<svg width="333" height="132" viewBox="0 0 333 132" fill="none" xmlns="http://www.w3.org/2000/svg">
<g clip-path="url(#clip0_51_14229)">
<path d="M137.445 82.2405H128.899V80.5809C133.849 69.8196 138.782 59.0475 143.76 48.3006H147.823C152.771 59.0691 157.776 69.8133 162.727 80.5809V82.2405H153.952L152.035 78.1185H139.592L137.676 82.2405H137.445ZM271.638 48.7218H286.038C291.85 48.7407 295.574 52.0104 297.202 56.1855C297.833 57.8055 298.149 59.5659 298.148 61.3218C298.146 63.0795 297.826 64.8381 297.191 66.4527C295.555 70.6116 291.836 73.8552 286.038 73.8552H280.369V82.2405H271.274V48.7218H271.638ZM280.369 65.586H285.991C287.462 65.586 288.443 64.4763 288.89 63.0588C289.071 62.481 289.167 61.8528 289.172 61.2309C289.176 60.6072 289.091 59.9808 288.915 59.4084C288.491 58.0314 287.523 56.9586 285.988 56.9442C284.669 56.9136 283.289 56.9244 281.949 56.9334L280.369 56.9442V65.586ZM256.633 49.5219C262.33 51.8583 266.779 57.1944 266.779 65.5284C266.779 73.8768 262.33 79.2246 256.634 81.5664C254.423 82.4754 252.026 82.9308 249.631 82.9308C247.237 82.9308 244.839 82.4754 242.629 81.5664C236.933 79.2246 232.482 73.8777 232.482 65.5284C232.482 57.1962 236.934 51.8583 242.628 49.5219C244.839 48.6147 247.236 48.1602 249.63 48.1602C252.025 48.1602 254.423 48.6147 256.633 49.5219ZM246.442 57.702C243.843 58.8378 241.811 61.446 241.811 65.5284C241.811 69.645 243.844 72.2748 246.443 73.4196C247.454 73.8651 248.553 74.0874 249.654 74.0874C250.754 74.0874 251.854 73.8651 252.864 73.4196C255.464 72.2748 257.496 69.6432 257.496 65.5284C257.496 61.4469 255.464 58.8378 252.866 57.702C251.855 57.261 250.756 57.0387 249.654 57.0387C248.552 57.0387 247.452 57.261 246.442 57.702ZM205.145 85.9413H197.862V74.2521H201.308L212.53 48.3006H216.601L228.196 74.2521H231.739V85.9413H224.139V82.3341H205.508V85.9413H205.145ZM218.73 74.1576L214.551 63.6681L210.535 74.1576H218.73ZM193.924 49.0863V82.2405H184.641V69.078H175.269V82.2405H165.986V48.7218H175.269V60.6207H184.641V48.7218H193.924V49.0863ZM142.623 70.2237H148.997L145.77 62.8788L142.623 70.2237Z" fill="#084E94"/>
<path fill-rule="evenodd" clip-rule="evenodd" d="M80.7983 34.0312L118.108 96.2491H42.6113L80.7983 34.0312Z" fill="#E3000F"/>
<path d="M55.3655 68.0408C56.2988 68.0408 57.2825 68.1047 58.2922 68.2334C61.1488 68.5979 63.8814 69.5879 66.526 70.5437C69.7752 71.72 72.8438 72.8315 76.0454 72.8315C78.1672 72.8315 80.1398 72.3338 82.0811 71.3105C84.0807 70.2557 85.4479 68.9813 86.3606 67.8509C84.3628 68.8724 81.1855 69.8255 76.3481 69.7112C73.0334 69.632 69.9603 68.48 66.9887 67.3667C63.9901 66.2408 61.1578 65.1797 58.1664 65.1797C56.1883 65.1797 54.3306 65.6531 52.4864 66.6269C50.883 67.4765 49.6864 68.4638 48.8043 69.4052C50.3565 68.6447 52.4909 68.0408 55.3655 68.0408ZM76.0454 74.2553C72.5959 74.2553 69.2632 73.0502 66.0409 71.8838C63.4718 70.9523 60.8155 69.9911 58.1143 69.6473C57.163 69.5258 56.2386 69.4646 55.3655 69.4646C48.6534 69.4646 46.5549 72.989 46.4687 73.1393C46.2908 73.4525 45.9054 73.5803 45.5758 73.4435C45.2443 73.3031 45.0682 72.9395 45.1679 72.5948C45.2173 72.4157 46.4642 68.2019 51.8235 65.3687C53.8779 64.2833 55.9512 63.7559 58.1664 63.7559C61.4147 63.7559 64.5022 64.9115 67.4872 66.032C70.3474 67.1039 73.3064 68.2145 76.3786 68.2865C85.4021 68.5106 88.1042 64.7828 88.1303 64.7477C88.3288 64.4633 88.7061 64.3607 89.0187 64.5101C89.3322 64.6586 89.4948 65.0096 89.3996 65.3453C89.3502 65.5226 88.106 69.7436 82.7422 72.5714C80.5935 73.7054 78.4043 74.2553 76.0454 74.2553Z" fill="white"/>
<path d="M49.7058 77.1178C50.6392 77.1178 51.6219 77.1826 52.6325 77.3113C55.4891 77.6758 58.2217 78.6649 60.8664 79.6216C64.1155 80.7988 67.1841 81.9085 70.3884 81.9085C72.5075 81.9085 74.4811 81.4117 76.4214 80.3884C78.421 79.3327 79.7883 78.0583 80.7009 76.9279C78.7031 77.9503 75.5312 78.9151 70.6884 78.7882C67.3737 78.7099 64.3006 77.5588 61.329 76.4446C58.3304 75.3187 55.4981 74.2558 52.5058 74.2558C50.5287 74.2558 48.671 74.731 46.8267 75.7057C45.2098 76.5589 44.0106 77.5498 43.1293 78.4903C44.6798 77.7262 46.8223 77.1178 49.7058 77.1178ZM70.3884 83.3341C66.9362 83.3341 63.6044 82.1281 60.3822 80.9617C57.8112 80.0311 55.1558 79.069 52.4546 78.7252C51.5033 78.6037 50.579 78.5425 49.7058 78.5425C42.9326 78.5425 40.8315 82.1758 40.8108 82.2136C40.6374 82.5277 40.2547 82.6609 39.9179 82.525C39.5846 82.3855 39.4085 82.0192 39.5083 81.6709C39.5577 81.4936 40.8045 77.278 46.1638 74.4466C48.2182 73.3612 50.2924 72.832 52.5058 72.832C55.7559 72.832 58.8416 73.9903 61.8275 75.1099C64.6886 76.1827 67.6468 77.2924 70.7217 77.3644C79.7478 77.6164 82.4463 73.8616 82.4706 73.8256C82.6691 73.5394 83.0464 73.4386 83.359 73.588C83.6734 73.7374 83.8351 74.0875 83.7399 74.4223C83.6905 74.6014 82.4463 78.8206 77.0826 81.6493C74.9338 82.7824 72.7437 83.3341 70.3884 83.3341Z" fill="white"/>
<path d="M44.2317 86.1949C45.1632 86.1949 46.1487 86.2597 47.1584 86.3884C50.015 86.752 52.7476 87.7411 55.3904 88.6987C58.6414 89.875 61.71 90.9865 64.9116 90.9865C67.0334 90.9865 69.0061 90.4888 70.9455 89.4646C72.9478 88.4098 74.3141 87.1345 75.2268 86.0041C73.2263 87.0256 70.0391 87.9742 65.2116 87.8653C61.8969 87.7861 58.8265 86.635 55.8549 85.5208C52.8563 84.3958 50.0213 83.3329 47.0326 83.3329C45.0545 83.3329 43.1969 83.8072 41.3526 84.7819C39.7366 85.6369 38.5364 86.626 37.6552 87.5674C39.2066 86.8033 41.3463 86.1949 44.2317 86.1949ZM64.9116 92.4103C61.4621 92.4103 58.1294 91.2034 54.9072 90.0379C52.3371 89.1073 49.679 88.1452 46.9778 87.8023C46.0292 87.6808 45.104 87.6187 44.2317 87.6187C37.5196 87.6187 35.4211 91.1431 35.3349 91.2925C35.1543 91.6057 34.7716 91.7362 34.4402 91.5958C34.1105 91.4563 33.9344 91.0936 34.0314 90.7471C34.0809 90.5698 35.3304 86.3569 40.687 83.5228C42.7414 82.4356 44.8174 81.9082 47.0326 81.9082C50.2809 81.9082 53.3684 83.0665 56.3525 84.1852C59.2136 85.2589 62.1726 86.3686 65.2457 86.4415C74.3429 86.6773 76.9677 82.9432 76.9929 82.9063C77.186 82.6165 77.5651 82.5139 77.8804 82.6588C78.1966 82.8073 78.361 83.1619 78.2667 83.4985C78.2146 83.6758 76.9722 87.8977 71.6075 90.7255C69.4588 91.8595 67.2678 92.4103 64.9116 92.4103Z" fill="white"/>
<path d="M76.2705 69.0002C67.8355 68.7995 60.8889 61.3313 52.0621 65.9987C46.9103 68.7221 45.7578 72.7892 45.7578 72.7892C45.7578 72.7892 48.5767 67.7267 58.1113 68.9399C66.4107 69.9983 73.6798 76.4972 82.3197 71.9414C87.4742 69.2243 88.624 65.1518 88.624 65.1518C88.624 65.1518 85.8797 69.227 76.2705 69.0002Z" fill="#50ACE1"/>
<path d="M55.2734 68.2781C56.1942 68.2781 57.1689 68.3429 58.1705 68.4698C61.0019 68.8307 63.7211 69.8153 66.3522 70.7675C69.6212 71.9519 72.7104 73.0697 75.9551 73.0697C78.1155 73.0697 80.1242 72.563 82.0986 71.5217C84.6848 70.1582 86.2299 68.4293 87.1139 67.0982C85.2804 68.2754 81.9297 69.6245 76.2596 69.4742C72.9853 69.3959 69.9329 68.2511 66.9793 67.145C63.9601 66.0119 61.1079 64.9427 58.0735 64.9427C56.0577 64.9427 54.1631 65.4251 52.283 66.4196C50.0597 67.5941 48.6053 69.0359 47.6792 70.2644C49.2261 69.2474 51.647 68.2781 55.2734 68.2781ZM75.9551 74.0192C72.5434 74.0192 69.234 72.8204 66.0297 71.6603C63.448 70.7261 60.7783 69.7595 58.051 69.4121C57.0898 69.2897 56.1565 69.2276 55.2734 69.2276C48.3619 69.2276 46.1925 72.9824 46.1736 73.0202C46.0559 73.2308 45.799 73.319 45.5771 73.2281C45.3544 73.1354 45.2367 72.8915 45.3023 72.6593C45.3517 72.4856 46.5698 68.3645 51.841 65.579C53.8613 64.5116 55.8996 63.9941 58.0735 63.9941C61.2795 63.9941 64.3454 65.1434 67.3098 66.2549C70.1898 67.3349 73.1686 68.4509 76.2812 68.5247C85.4592 68.7542 88.2071 64.922 88.2314 64.8833C88.3625 64.6925 88.6131 64.6223 88.8242 64.7231C89.0344 64.823 89.1422 65.057 89.0794 65.2802C89.03 65.4548 87.8145 69.5804 82.5415 72.3623C80.426 73.4774 78.2701 74.0192 75.9551 74.0192Z" fill="white"/>
<path d="M70.6114 78.0755C62.1773 77.8757 55.2307 70.4084 46.403 75.074C41.2512 77.7983 40.0996 81.8654 40.0996 81.8654C40.0996 81.8654 42.9176 76.8029 52.4522 78.0179C60.7516 79.0745 68.0216 85.5743 76.6606 81.0185C81.8151 78.2996 82.9649 74.2271 82.9649 74.2271C82.9649 74.2271 80.2206 78.3032 70.6114 78.0755Z" fill="#1370B8"/>
<path d="M49.6144 77.3561C50.5361 77.3561 51.5099 77.4209 52.5115 77.5478C55.3429 77.9087 58.0621 78.8933 60.6932 79.8446C63.9631 81.029 67.0514 82.1477 70.2961 82.1477C72.4556 82.1477 74.4651 81.641 76.4396 80.5997C79.0285 79.2353 80.5727 77.5073 81.454 76.1753C79.6214 77.3507 76.268 78.6854 70.5997 78.5513C67.3263 78.4748 64.2739 77.3291 61.3202 76.2221C58.301 75.089 55.4489 74.0198 52.4144 74.0198C50.3986 74.0198 48.5041 74.5031 46.624 75.4967C44.3881 76.6793 42.9328 78.1229 42.0094 79.3496C43.5536 78.329 45.979 77.3561 49.6144 77.3561ZM70.2961 83.0972C66.8852 83.0972 63.575 81.8984 60.3707 80.7383C57.789 79.8041 55.1201 78.8375 52.392 78.4901C51.4308 78.3668 50.4975 78.3056 49.6144 78.3056C42.7442 78.3056 40.5999 81.9443 40.5119 82.1C40.3942 82.3079 40.1391 82.3961 39.9163 82.3034C39.6953 82.2107 39.5786 81.9686 39.6432 81.7373C39.6935 81.5636 40.9108 77.4434 46.1829 74.657C48.2032 73.5887 50.2405 73.0703 52.4144 73.0703C55.6205 73.0703 58.6864 74.2205 61.6517 75.3329C64.5326 76.4129 67.5096 77.5289 70.6231 77.6027C79.8604 77.8583 82.5454 74.0018 82.5705 73.964C82.7008 73.7705 82.9514 73.6976 83.1634 73.7993C83.3754 73.8965 83.4832 74.1332 83.4203 74.3573C83.3709 74.5319 82.1555 78.6584 76.8816 81.4403C74.767 82.5545 72.6137 83.0972 70.2961 83.0972Z" fill="white"/>
<path d="M65.1372 87.1536C56.7022 86.9538 49.7538 79.4865 40.9288 84.1521C35.777 86.8764 34.6245 90.9426 34.6245 90.9426C34.6245 90.9426 37.4434 85.8801 46.9762 87.0951C55.2756 88.1526 62.5447 94.6515 71.1846 90.0957C76.3409 87.3777 77.4889 83.3052 77.4889 83.3052C77.4889 83.3052 74.7446 87.3822 65.1372 87.1536Z" fill="#084E94"/>
<path d="M44.1391 86.4323C45.0607 86.4323 46.0354 86.4962 47.037 86.624C49.8658 86.9849 52.5876 87.9695 55.2188 88.9217C58.4877 90.1043 61.577 91.2239 64.819 91.2239C66.9794 91.2239 68.9907 90.7172 70.9625 89.6759C73.5514 88.3106 75.0965 86.5835 75.9804 85.2515C74.147 86.426 70.7918 87.7733 65.1262 87.6275C61.8519 87.5501 58.7994 86.4044 55.8458 85.2974C52.8266 84.1652 49.9745 83.096 46.94 83.096C44.9242 83.096 43.0279 83.5784 41.1495 84.5738C38.9127 85.7555 37.4566 87.1991 36.534 88.4249C38.0791 87.4052 40.5045 86.4323 44.1391 86.4323ZM64.819 92.1734C61.4099 92.1734 58.0978 90.9737 54.8963 89.8145C52.3146 88.8803 49.643 87.9128 46.9175 87.5663C45.9564 87.443 45.0212 87.3818 44.1391 87.3818C37.2688 87.3818 35.1246 91.0196 35.0375 91.1753C34.918 91.3832 34.6629 91.4714 34.4419 91.3787C34.2191 91.2869 34.1014 91.0439 34.167 90.8126C34.2164 90.638 35.4363 86.5187 40.7076 83.7332C42.7261 82.6649 44.7661 82.1465 46.94 82.1465C50.1452 82.1465 53.212 83.2967 56.1773 84.4091C59.0563 85.4882 62.0342 86.6042 65.1486 86.678C74.3814 86.9075 77.071 83.0771 77.0961 83.0402C77.2273 82.8458 77.477 82.7729 77.689 82.8746C77.9001 82.9736 78.0097 83.2094 77.9459 83.4335C77.8965 83.6081 76.6784 87.7337 71.4053 90.5165C69.2925 91.6307 67.1375 92.1734 64.819 92.1734Z" fill="white"/>
</g>
<defs>
<clipPath id="clip0_51_14229">
<rect width="265" height="63" fill="white" transform="translate(34 34)"/>
</clipPath>
</defs>
</svg>
