<svg xmlns="http://www.w3.org/2000/svg" width="162" height="36" viewBox="0 0 162 36" fill="none">
    <g clip-path="url(#clip0_0_10785)">
        <path d="M8.72132 19.6436C8.56021 19.3729 8.42117 19.0897 8.30544 18.7969C8.15031 18.997 7.93688 19.1445 7.69437 19.219C7.45047 19.2676 5.36577 19.4569 5.3478 19.4569C4.98067 19.485 4.60069 19.5438 4.34909 19.9327C4.20731 20.1796 4.08293 20.436 3.97683 20.7C3.77659 21.1794 3.54504 21.645 3.28364 22.0941C3.28364 22.0941 2.55965 23.1634 2.47235 23.276C2.38506 23.3885 2.42871 23.5036 2.47235 23.6443L2.51087 23.7953C2.48961 23.985 2.43484 24.1694 2.34912 24.3401V24.3836L2.90367 25.1024L2.93962 25.1177L2.97299 25.1024L3.66361 24.2275V24.1763L3.44025 23.8668L3.28878 23.6801L3.32472 23.5855C3.507 23.5574 3.61226 23.5164 3.6328 23.4704C3.66294 23.3544 3.67336 23.2342 3.66361 23.1148C3.63838 22.8057 3.69134 22.4952 3.81765 22.2118C4.06804 21.852 4.34342 21.5101 4.64178 21.1886C4.72907 21.094 4.81122 21.0019 4.92162 20.8715C5.13728 20.6028 5.23997 20.6156 5.3632 20.5977C5.88507 20.6078 6.4032 20.6878 6.90363 20.8356C7.37088 21.0045 8.68536 21.1349 9.80478 20.9942C9.6969 20.81 9.1629 20.3189 8.72132 19.6436Z" fill="#050625" />
        <path d="M20.1922 22.763C19.553 22.3435 18.77 21.8574 18.4105 21.7576C18.1153 21.6733 17.6403 21.7858 17.1782 21.9214C17.4171 22.1251 17.5948 22.3907 17.6916 22.6888C17.7473 22.8278 17.8107 22.9635 17.8817 23.0955C18.031 23.3515 18.2029 23.5937 18.3951 23.8194C18.6518 24.129 18.8547 24.3745 18.8675 24.7326C18.8803 25.0908 18.5081 26.2009 18.164 26.8302C17.8636 27.3802 17.4708 27.9941 17.2347 28.365C17.1499 28.4955 17.0883 28.5952 17.0575 28.6464C17.0108 28.7274 16.9729 28.8132 16.9445 28.9022C16.9188 29.0064 16.8697 29.1036 16.8008 29.1862C16.6801 29.2987 16.4722 29.4419 16.4285 29.488L16.218 29.5187H16.1923L15.6172 30.1428V30.1889L15.6557 30.2145H16.8778L16.9138 30.194L17.1448 29.8359V29.7054L17.2475 29.5826C17.2885 29.5826 17.3912 29.5826 17.5042 29.5826L17.5351 29.5648C17.8716 28.9902 18.165 28.3917 18.4131 27.7741C18.526 27.5183 18.6133 27.3137 18.6698 27.2216C19.1252 26.3964 19.6582 25.6161 20.2616 24.8912C20.4267 24.707 20.5713 24.5054 20.6929 24.2901C20.7237 24.1852 20.6543 24.0854 20.5568 23.9499C20.2971 23.6102 20.1679 23.1893 20.1922 22.763Z" fill="#050625" />
        <path d="M13.5994 35.8172L13.4376 35.7046C13.4248 35.6765 12.2232 32.8039 5.13475 32.8039C1.72785 32.8039 2.03378e-05 31.0696 2.03378e-05 27.647V0.611463C-0.00067416 0.566441 0.0164423 0.522954 0.0476696 0.490405C0.0788969 0.457856 0.121726 0.438858 0.166899 0.437519H27.0215C27.0445 0.437174 27.0674 0.441438 27.0887 0.450057C27.1101 0.458677 27.1295 0.471476 27.1458 0.487698C27.162 0.503919 27.1749 0.523232 27.1835 0.544492C27.1921 0.565752 27.1964 0.588525 27.1961 0.611463V27.647C27.1961 31.0696 25.4683 32.8039 22.0613 32.8039C14.9395 32.8039 13.7739 35.6765 13.7611 35.7046L13.5967 35.8172M0.721449 1.27143V27.363C0.721449 30.5068 2.24389 31.7705 5.37094 31.7705C11.2759 31.7705 13.1064 33.3513 13.5865 34.1136C14.0743 33.3462 15.9125 31.7705 21.802 31.7705C24.9316 31.7705 26.4516 30.5068 26.4516 27.363V1.27143H0.721449Z" fill="#050625" />
        <path d="M24.1254 26.883C23.9637 26.0005 23.8892 25.1385 23.8353 24.5118C23.8253 24.1791 23.7814 23.8482 23.7044 23.5244C23.5456 23.3259 23.3568 23.1533 23.1447 23.0128C22.7647 22.7135 22.2923 22.3426 22.2307 22.0945C22.0201 21.2427 22.1152 20.3806 22.1999 19.6209C22.2594 19.2051 22.2826 18.7848 22.2692 18.365C22.1092 18.2436 21.9575 18.112 21.8148 17.971C21.9512 18.0631 22.101 18.1339 22.259 18.1807C22.4244 18.2363 22.5977 18.2657 22.7725 18.2677C22.9045 18.269 23.0359 18.2509 23.1626 18.214C23.2318 18.2012 23.2975 18.1743 23.3558 18.1352C23.4141 18.096 23.4637 18.0454 23.5015 17.9864L23.4758 17.9301C23.1093 17.747 22.7883 17.4848 22.5362 17.1626C22.3574 16.9365 22.1433 16.7405 21.9021 16.582C21.7182 16.5031 21.5249 16.4481 21.327 16.4182L21.1884 16.3901C21.1652 16.3901 21.0985 16.3518 21.0138 16.3134C20.6698 16.1497 19.8636 15.7685 19.0985 15.7788C18.4578 15.8046 17.8208 15.8902 17.1961 16.0346C16.7562 16.1445 16.3042 16.1986 15.8508 16.1957C15.4801 16.1686 15.1081 16.1609 14.7365 16.1727C14.028 16.1727 13.512 16.1906 13.0087 15.7532C12.1487 15.0088 12.4413 13.891 12.7802 12.5967C13.0196 11.8317 13.1483 11.0367 13.1628 10.2355C12.9659 10.1855 12.7804 10.0987 12.6159 9.97979C12.8278 10.0433 13.0469 10.0794 13.268 10.0873C13.545 10.0979 13.8218 10.0625 14.0871 9.98235C14.3184 9.89961 14.5203 9.75106 14.6678 9.55507C14.8152 9.35908 14.9015 9.12431 14.9163 8.87988C14.9163 8.77498 14.8624 8.74935 14.8342 8.74175C14.4884 8.73199 14.1429 8.76903 13.8072 8.85169L13.3733 8.92848C13.9792 8.72125 14.5563 8.43844 15.0908 8.08687C15.1822 8.0183 15.2824 7.96236 15.3887 7.9206H15.4862C15.8226 7.94362 16.7134 8.00757 16.9625 7.28621L16.9291 7.19156L16.8316 7.20948L16.811 7.2325C16.7006 7.37119 16.556 7.47898 16.3913 7.54533C16.2266 7.6117 16.0475 7.63435 15.8713 7.61108L16.0408 7.46783C16.3414 7.22679 16.6098 6.94825 16.8392 6.63904C17.0087 6.42928 17.5658 5.61583 17.7096 4.02988C17.7096 3.95313 17.7096 3.87895 17.7096 3.80477C17.7096 3.73059 17.7096 3.65641 17.7096 3.58734C17.7532 3.22411 17.7661 2.54112 17.3964 2.09858L17.2808 2.07812L17.2423 2.18555L17.2808 2.27509C17.4371 2.56824 17.4963 2.90306 17.4503 3.23178C17.4428 3.28687 17.4176 3.33806 17.3784 3.37759L17.3476 3.34945L17.3168 3.29829C17.1883 3.06346 16.9727 2.88808 16.716 2.80971L16.6184 2.85063L16.6467 2.96319C16.8447 3.11278 17.0051 3.3062 17.1152 3.52818C17.2252 3.75016 17.2819 3.99461 17.2808 4.24219C17.2758 4.86732 17.0914 5.47798 16.7494 6.00209L16.6313 6.09674C16.5876 6.09674 16.5337 6.07627 16.4464 6.00721C16.2899 5.88443 15.8405 5.09144 16.2513 4.10406L16.2103 3.98383L16.087 4.03755C15.8718 4.37734 15.7644 4.77379 15.7786 5.17529C15.7928 5.57679 15.928 5.96474 16.1666 6.28859L16.2462 6.42672C16.2818 6.50065 16.2927 6.58408 16.277 6.66462C16.2462 6.7874 15.5068 7.38853 15.25 7.50876C15.0968 7.58821 14.9196 7.60913 14.752 7.5676C14.5389 7.4883 13.4683 6.68252 13.8893 5.03517L13.8559 4.92518L13.7533 4.98145C13.3502 6.0507 13.5145 6.95367 14.2487 7.66735L14.3053 7.72875L14.3335 7.85409L14.2282 7.96408C13.8517 8.17333 13.4239 8.27345 12.9933 8.25314C12.8618 8.20153 12.7485 8.11258 12.6672 7.99734C12.5032 7.78725 12.3868 7.54422 12.3261 7.285C12.2654 7.02578 12.2618 6.75653 12.3155 6.49579L12.2462 6.39858L12.1409 6.4651C12.0367 6.76085 12.0033 7.07678 12.0435 7.38769C12.0836 7.69858 12.1961 7.99583 12.3721 8.25569L12.449 8.39383C12.3746 8.47824 11.3579 8.52172 11.2168 8.43475C10.1256 7.77223 9.60185 6.22464 9.63781 5.51863C9.6994 4.23964 10.046 3.27015 10.6647 2.63577V2.53089H10.5415C9.74304 3.16016 9.55564 3.91988 9.42983 4.6438C9.42719 4.68677 9.41528 4.72867 9.39486 4.76664C9.37453 4.8046 9.34618 4.83774 9.31171 4.86378L9.15258 4.84588C9.15258 4.84588 8.61858 4.53125 8.75977 3.58223L8.70331 3.49014L8.61345 3.5413C8.50508 3.81095 8.48698 4.10827 8.56195 4.38898C8.63685 4.66968 8.80077 4.91876 9.02933 5.09912L9.04727 5.11703C9.12555 5.19044 9.18317 5.28307 9.21416 5.38562C9.28236 5.69668 9.31931 6.01372 9.3246 6.33207L9.20135 6.49835L9.0781 6.47021C8.96692 6.39495 8.87268 6.29737 8.80151 6.18372C8.73034 6.07007 8.68372 5.94286 8.66479 5.81025L8.57749 5.74374L8.51326 5.85885C8.53591 6.05447 8.60783 6.24121 8.72232 6.40175C8.83672 6.56229 8.99006 6.69143 9.16796 6.77717L9.21929 6.80787C9.32518 6.88005 9.41297 6.97543 9.47604 7.08669C9.66856 7.45248 9.85092 7.74665 9.95102 7.90525L10.0049 7.99478C10.029 8.02501 10.0458 8.06027 10.0544 8.09792C10.0628 8.13557 10.0625 8.17465 10.0537 8.21221L9.96127 8.27104C9.80727 8.29918 9.40156 8.37592 8.93435 7.83362L8.83425 7.81316L8.80854 7.91804C9.11662 8.59079 9.74048 8.59335 10.0717 8.59591C10.1359 8.59844 10.1995 8.60788 10.2617 8.62404C10.4263 8.65952 10.5738 8.74977 10.6801 8.87988C10.5431 8.87384 10.4058 8.88583 10.2719 8.91567C10.1795 8.94378 10.141 9.02313 10.0999 9.09728C10.083 9.14746 10.0547 9.19317 10.0173 9.23086C9.97995 9.26856 9.93441 9.29724 9.88423 9.31468C9.62756 9.39652 8.31049 9.72147 8.17953 9.75214C7.99981 9.79306 8.10508 10.6576 8.10764 10.6653C8.25187 10.8728 8.47235 11.0152 8.72124 11.0618C9.11373 11.0701 9.50051 11.1572 9.8586 11.3176L9.95358 11.3585L10.0255 11.3893C10.1458 11.4406 10.2692 11.4843 10.3952 11.5197C10.5517 11.5555 10.7777 11.5939 10.7777 11.5939C10.6068 11.6077 10.4351 11.6077 10.2642 11.5939L10.0794 11.5709C10.2052 12.3587 9.58127 13.295 8.92145 14.1928C8.23087 15.1316 7.52229 16.5564 8.064 18.0042C8.13588 18.2063 8.21547 18.3854 8.29503 18.5567C8.46673 18.9709 8.68553 19.3639 8.94716 19.7283C9.15258 19.9637 9.5916 20.4318 9.80471 20.6569C9.80471 20.4804 9.73279 20.0071 9.73279 20.0071L10.0614 21.0841C10.0922 21.1582 10.1205 21.2376 10.1512 21.3194C10.2155 21.4985 10.2847 21.6826 10.3643 21.854C10.4758 22.0891 10.6046 22.3157 10.7495 22.5319C10.8856 22.7184 10.9817 22.9308 11.0318 23.156C11.0652 23.353 11.055 24.2458 11.0524 24.6295V24.788C11.075 24.9321 11.1173 25.0724 11.1782 25.205C11.2456 25.3542 11.2931 25.5116 11.3194 25.6731V28.2107C11.3049 28.319 11.271 28.4238 11.2193 28.5202L11.1834 28.6199C11.1834 28.6378 11.1834 28.9269 11.1602 29.0599C11.1448 29.1567 11.1089 29.2491 11.055 29.3311L10.7725 29.4462L10.752 29.4615L10.2719 30.1624V30.2085L10.3104 30.2315H11.5453L11.589 30.1931L11.6301 29.6815V29.6508L11.5556 29.5536L11.6583 29.395C11.7661 29.395 12.0126 29.395 12.0742 29.3311C12.1358 29.2671 12.1127 29.1571 12.0742 28.8195C12.0563 28.6634 12.0357 28.5022 12.0357 28.3872V28.0649C12.0357 27.3844 12.0357 25.9673 12.0357 25.7396C12.0478 25.6381 12.0693 25.5379 12.0999 25.4403C12.1538 25.2591 12.184 25.0716 12.1898 24.8827C12.1898 24.6448 12.2822 23.9286 12.3155 23.3479C12.3353 23.0159 12.4063 22.6889 12.5261 22.3784C12.6442 22.0587 12.734 21.7466 13.0164 21.6954C13.3795 21.6927 13.741 21.7426 14.0896 21.8438C14.532 21.9557 14.9843 22.025 15.44 22.051C15.7288 22.0426 16.0169 22.017 16.3027 21.9743C16.5851 21.9077 16.9086 21.7952 17.0138 21.7619C17.458 21.6136 18.1742 21.2836 18.6262 21.4345C18.9214 21.5317 19.8893 22.3324 20.5388 22.89C20.8317 23.0814 21.1137 23.2889 21.3835 23.5116C21.8379 23.8928 22.5979 24.5348 22.7904 24.9287C23.1421 25.6705 23.3039 26.4635 23.5606 27.6888C23.6294 28.0506 23.6646 28.418 23.6659 28.7862C23.6666 28.879 23.6982 28.969 23.7557 29.042L23.8276 29.1878C23.843 29.2697 23.8276 29.4718 23.7737 29.505L23.4605 29.7404V29.7557L23.2474 30.1931V30.234L23.2833 30.2545H24.3308L24.3745 30.2186L24.472 29.6687V29.6457L24.4104 29.4948L24.4463 29.2799C24.5524 29.2027 24.6401 29.1032 24.703 28.9883V28.9551C24.4452 28.2842 24.2518 27.5904 24.1254 26.883ZM10.9189 9.82116C10.8255 9.83265 10.7308 9.81934 10.6442 9.7828C10.6666 9.72726 10.7013 9.67741 10.7457 9.63707C10.7902 9.59673 10.8433 9.56697 10.9009 9.55003C11.0396 9.52705 11.1577 9.68559 11.1731 9.71378C11.1016 9.77495 11.0127 9.81248 10.9189 9.82116Z" fill="#050625" />
    </g>
    <path d="M35.2133 6.53802L37.1078 9.71515L38.9825 6.53802H40.8473V13.5238H39.239V8.88633L37.4137 11.9352H36.7427L34.8976 8.88633V13.5238H33.2893V6.53802H35.2133Z" fill="#050625" />
    <path d="M43.9165 10.7512L47.1627 6.53802H48.4454V13.5238H46.8371V9.36981L43.5909 13.5238H42.3082V6.53802H43.9165V10.7512Z" fill="#050625" />
    <path d="M51.5094 9.35008H54.2524V6.53802H55.8607V13.5238H54.2524V10.8005H51.5094V13.5238H49.9011V6.53802H51.5094V9.35008Z" fill="#050625" />
    <path d="M58.9288 10.7512L62.175 6.53802H63.4577V13.5238H61.8494V9.36981L58.6032 13.5238H57.3205V6.53802H58.9288V10.7512Z" fill="#050625" />
    <path d="M66.1862 10.0112C66.1862 10.2743 66.2191 10.5308 66.2848 10.7808C66.3506 11.0307 66.4526 11.2544 66.5907 11.4517C66.7354 11.6491 66.9196 11.8102 67.1433 11.9352C67.3669 12.0536 67.6366 12.1128 67.9523 12.1128C68.3602 12.1128 68.6924 12.024 68.9489 11.8464C69.2054 11.6688 69.3699 11.4155 69.4422 11.0866H70.9913C70.9585 11.5011 70.8532 11.8661 70.6756 12.1819C70.498 12.491 70.2678 12.7509 69.9849 12.9613C69.7086 13.1718 69.3929 13.3297 69.0377 13.435C68.6825 13.5402 68.3141 13.5928 67.9326 13.5928C67.3866 13.5928 66.9032 13.5073 66.4822 13.3363C66.0612 13.1653 65.706 12.9252 65.4166 12.616C65.1271 12.3003 64.9068 11.9253 64.7555 11.4912C64.6042 11.0505 64.5285 10.5604 64.5285 10.021C64.5285 9.49479 64.6042 9.0146 64.7555 8.58046C64.9134 8.13974 65.1403 7.76151 65.4363 7.44577C65.7323 7.13003 66.0908 6.88665 66.5118 6.71562C66.9328 6.53802 67.4097 6.44922 67.9425 6.44922C68.3372 6.44922 68.7055 6.50184 69.0476 6.60709C69.3962 6.70576 69.7054 6.86034 69.9751 7.07083C70.2447 7.27475 70.4651 7.53457 70.6361 7.85031C70.8072 8.16605 70.9124 8.54099 70.9519 8.97513H69.4225C69.3436 8.64624 69.1791 8.3897 68.9292 8.20552C68.6858 8.02134 68.3602 7.92925 67.9523 7.92925C67.63 7.92925 67.357 7.98845 67.1334 8.10685C66.9097 8.22525 66.7256 8.38312 66.5809 8.58046C66.4427 8.77122 66.3408 8.99158 66.275 9.24154C66.2158 9.4915 66.1862 9.74804 66.1862 10.0112Z" fill="#050625" />
    <path d="M71.2858 8.00818V6.53802H77.1665V8.00818H75.0253V13.5238H73.417V8.00818H71.2858Z" fill="#050625" />
    <path d="M83.0811 6.53802V8.00818H79.5586V9.35008H82.5483V10.7808H79.5586V12.0733H83.0811V13.5238H77.9503V6.53802H83.0811Z" fill="#050625" />
    <path d="M86.9578 6.53802C87.3657 6.53802 87.7373 6.58078 88.0728 6.66629C88.4148 6.7518 88.7076 6.88994 88.9509 7.0807C89.1943 7.27146 89.3818 7.52142 89.5134 7.83058C89.6515 8.13974 89.7206 8.51797 89.7206 8.96527C89.7206 9.39283 89.6515 9.76448 89.5134 10.0802C89.3752 10.396 89.1812 10.6624 88.9312 10.8794C88.6878 11.0899 88.3984 11.2478 88.0629 11.353C87.7275 11.4583 87.3657 11.5109 86.9776 11.5109H85.764V13.5238H84.1557V6.53802H86.9578ZM86.9381 10.0901C87.2867 10.0901 87.5696 10.0013 87.7867 9.82368C88.0103 9.64608 88.1287 9.38954 88.1419 9.05407C88.1419 8.67913 88.0399 8.41272 87.836 8.25485C87.6321 8.09041 87.3295 8.00818 86.9282 8.00818H85.764V10.0901H86.9381Z" fill="#050625" />
    <path d="M92.1252 10.0112C92.1252 10.2743 92.1581 10.5308 92.2239 10.7808C92.2897 11.0307 92.3916 11.2544 92.5298 11.4517C92.6745 11.6491 92.8587 11.8102 93.0823 11.9352C93.306 12.0536 93.5756 12.1128 93.8914 12.1128C94.2992 12.1128 94.6314 12.024 94.8879 11.8464C95.1445 11.6688 95.3089 11.4155 95.3813 11.0866H96.9304C96.8975 11.5011 96.7922 11.8661 96.6146 12.1819C96.437 12.491 96.2068 12.7509 95.924 12.9613C95.6477 13.1718 95.332 13.3297 94.9767 13.435C94.6215 13.5402 94.2532 13.5928 93.8717 13.5928C93.3257 13.5928 92.8422 13.5073 92.4212 13.3363C92.0002 13.1653 91.645 12.9252 91.3556 12.616C91.0662 12.3003 90.8458 11.9253 90.6945 11.4912C90.5432 11.0505 90.4676 10.5604 90.4676 10.021C90.4676 9.49479 90.5432 9.0146 90.6945 8.58046C90.8524 8.13974 91.0793 7.76151 91.3753 7.44577C91.6713 7.13003 92.0298 6.88665 92.4508 6.71562C92.8718 6.53802 93.3487 6.44922 93.8815 6.44922C94.2762 6.44922 94.6446 6.50184 94.9866 6.60709C95.3352 6.70576 95.6444 6.86034 95.9141 7.07083C96.1838 7.27475 96.4042 7.53457 96.5752 7.85031C96.7462 8.16605 96.8514 8.54099 96.8909 8.97513H95.3615C95.2826 8.64624 95.1182 8.3897 94.8682 8.20552C94.6248 8.02134 94.2992 7.92925 93.8914 7.92925C93.5691 7.92925 93.2961 7.98845 93.0724 8.10685C92.8488 8.22525 92.6646 8.38312 92.5199 8.58046C92.3818 8.77122 92.2798 8.99158 92.214 9.24154C92.1548 9.4915 92.1252 9.74804 92.1252 10.0112Z" fill="#050625" />
    <path d="M97.2248 8.00818V6.53802H103.105V8.00818H100.964V13.5238H99.3561V8.00818H97.2248Z" fill="#050625" />
    <path d="M103.88 13.5238V6.53802H107.165C107.448 6.53802 107.718 6.57091 107.974 6.63669C108.237 6.69589 108.468 6.79785 108.665 6.94256C108.862 7.0807 109.02 7.26488 109.139 7.49511C109.257 7.72533 109.316 8.00818 109.316 8.34366C109.316 8.63308 109.257 8.89949 109.139 9.14287C109.027 9.37968 108.846 9.57372 108.596 9.72502C108.938 9.85657 109.194 10.0671 109.365 10.3565C109.543 10.6393 109.632 10.9814 109.632 11.3826C109.632 11.8168 109.54 12.172 109.356 12.4483C109.178 12.7245 108.948 12.9416 108.665 13.0995C108.389 13.2574 108.076 13.3692 107.728 13.435C107.379 13.4942 107.034 13.5238 106.692 13.5238H103.88ZM106.622 9.31061C106.951 9.31061 107.218 9.26127 107.422 9.1626C107.632 9.05736 107.737 8.87318 107.737 8.61006C107.737 8.4785 107.708 8.37326 107.649 8.29432C107.596 8.20881 107.524 8.14632 107.432 8.10685C107.346 8.06081 107.244 8.0312 107.126 8.01805C107.014 8.00489 106.895 7.99832 106.77 7.99832H105.488V9.31061H106.622ZM105.488 12.0733H106.701C106.886 12.0733 107.057 12.0635 107.215 12.0437C107.379 12.024 107.52 11.9878 107.639 11.9352C107.757 11.8826 107.849 11.8069 107.915 11.7083C107.987 11.603 108.024 11.4682 108.024 11.3037C108.024 11.159 107.991 11.0439 107.925 10.9584C107.866 10.8663 107.783 10.7972 107.678 10.7512C107.573 10.7051 107.451 10.6755 107.313 10.6624C107.175 10.6492 107.03 10.6426 106.879 10.6426H105.488V12.0733Z" fill="#050625" />
    <path d="M113.859 6.44922C114.391 6.44922 114.872 6.53473 115.299 6.70576C115.733 6.8702 116.102 7.1103 116.404 7.42604C116.713 7.7352 116.95 8.10685 117.115 8.54099C117.279 8.97513 117.361 9.45861 117.361 9.99142C117.361 10.5177 117.279 11.0011 117.115 11.4418C116.95 11.8826 116.713 12.2641 116.404 12.5864C116.102 12.9087 115.733 13.1587 115.299 13.3363C114.865 13.5139 114.378 13.5994 113.839 13.5928C113.293 13.5928 112.803 13.5073 112.369 13.3363C111.941 13.1587 111.576 12.912 111.274 12.5963C110.971 12.2805 110.737 11.9056 110.573 11.4714C110.415 11.0307 110.336 10.5473 110.336 10.021C110.336 9.48821 110.418 9.00473 110.583 8.57059C110.754 8.12987 110.991 7.75164 111.293 7.4359C111.602 7.12016 111.974 6.87678 112.408 6.70576C112.842 6.53473 113.326 6.44922 113.859 6.44922ZM111.984 10.0112C111.984 10.2808 112.02 10.5407 112.092 10.7906C112.171 11.0406 112.287 11.2642 112.438 11.4616C112.596 11.6523 112.793 11.8069 113.03 11.9253C113.267 12.0437 113.55 12.1062 113.878 12.1128C114.194 12.1128 114.467 12.0536 114.697 11.9352C114.928 11.8168 115.118 11.6589 115.27 11.4616C115.421 11.2642 115.533 11.0406 115.605 10.7906C115.677 10.5407 115.714 10.2874 115.714 10.0309C115.714 9.77435 115.677 9.5211 115.605 9.27114C115.539 9.02118 115.431 8.79753 115.28 8.60019C115.128 8.40286 114.934 8.2417 114.697 8.11672C114.467 7.99174 114.188 7.92925 113.859 7.92925C113.536 7.92925 113.257 7.98845 113.02 8.10685C112.783 8.22525 112.589 8.38312 112.438 8.58046C112.287 8.77122 112.171 8.99158 112.092 9.24154C112.02 9.4915 111.984 9.74804 111.984 10.0112Z" fill="#050625" />
    <path d="M122.477 10.0112C122.477 10.2743 122.51 10.5308 122.576 10.7808C122.642 11.0307 122.744 11.2544 122.882 11.4517C123.027 11.6491 123.211 11.8102 123.434 11.9352C123.658 12.0536 123.928 12.1128 124.244 12.1128C124.651 12.1128 124.984 12.024 125.24 11.8464C125.497 11.6688 125.661 11.4155 125.733 11.0866H127.283C127.25 11.5011 127.144 11.8661 126.967 12.1819C126.789 12.491 126.559 12.7509 126.276 12.9613C126 13.1718 125.684 13.3297 125.329 13.435C124.974 13.5402 124.605 13.5928 124.224 13.5928C123.678 13.5928 123.194 13.5073 122.773 13.3363C122.352 13.1653 121.997 12.9252 121.708 12.616C121.418 12.3003 121.198 11.9253 121.047 11.4912C120.895 11.0505 120.82 10.5604 120.82 10.021C120.82 9.49479 120.895 9.0146 121.047 8.58046C121.205 8.13974 121.431 7.76151 121.727 7.44577C122.023 7.13003 122.382 6.88665 122.803 6.71562C123.224 6.53802 123.701 6.44922 124.234 6.44922C124.628 6.44922 124.997 6.50184 125.339 6.60709C125.687 6.70576 125.997 6.86034 126.266 7.07083C126.536 7.27475 126.756 7.53457 126.927 7.85031C127.098 8.16605 127.204 8.54099 127.243 8.97513H125.714C125.635 8.64624 125.47 8.3897 125.22 8.20552C124.977 8.02134 124.651 7.92925 124.244 7.92925C123.921 7.92925 123.648 7.98845 123.425 8.10685C123.201 8.22525 123.017 8.38312 122.872 8.58046C122.734 8.77122 122.632 8.99158 122.566 9.24154C122.507 9.4915 122.477 9.74804 122.477 10.0112Z" fill="#050625" />
    <path d="M134.274 6.53802V13.5238H132.666V7.99832H129.962V13.5238H128.354V6.53802H134.274Z" fill="#050625" />
    <path d="M138.873 6.44922C139.406 6.44922 139.886 6.53473 140.313 6.70576C140.747 6.8702 141.116 7.1103 141.418 7.42604C141.728 7.7352 141.964 8.10685 142.129 8.54099C142.293 8.97513 142.375 9.45861 142.375 9.99142C142.375 10.5177 142.293 11.0011 142.129 11.4418C141.964 11.8826 141.728 12.2641 141.418 12.5864C141.116 12.9087 140.747 13.1587 140.313 13.3363C139.879 13.5139 139.392 13.5994 138.853 13.5928C138.307 13.5928 137.817 13.5073 137.383 13.3363C136.955 13.1587 136.59 12.912 136.288 12.5963C135.985 12.2805 135.751 11.9056 135.587 11.4714C135.429 11.0307 135.35 10.5473 135.35 10.021C135.35 9.48821 135.432 9.00473 135.597 8.57059C135.768 8.12987 136.005 7.75164 136.307 7.4359C136.616 7.12016 136.988 6.87678 137.422 6.70576C137.856 6.53473 138.34 6.44922 138.873 6.44922ZM136.998 10.0112C136.998 10.2808 137.034 10.5407 137.107 10.7906C137.185 11.0406 137.301 11.2642 137.452 11.4616C137.61 11.6523 137.807 11.8069 138.044 11.9253C138.281 12.0437 138.564 12.1062 138.892 12.1128C139.208 12.1128 139.481 12.0536 139.711 11.9352C139.942 11.8168 140.132 11.6589 140.284 11.4616C140.435 11.2642 140.547 11.0406 140.619 10.7906C140.691 10.5407 140.728 10.2874 140.728 10.0309C140.728 9.77435 140.691 9.5211 140.619 9.27114C140.553 9.02118 140.445 8.79753 140.294 8.60019C140.142 8.40286 139.948 8.2417 139.711 8.11672C139.481 7.99174 139.202 7.92925 138.873 7.92925C138.55 7.92925 138.271 7.98845 138.034 8.10685C137.797 8.22525 137.603 8.38312 137.452 8.58046C137.301 8.77122 137.185 8.99158 137.107 9.24154C137.034 9.4915 136.998 9.74804 136.998 10.0112Z" fill="#050625" />
    <path d="M146.255 6.53802C146.663 6.53802 147.035 6.58078 147.37 6.66629C147.712 6.7518 148.005 6.88994 148.248 7.0807C148.492 7.27146 148.679 7.52142 148.811 7.83058C148.949 8.13974 149.018 8.51797 149.018 8.96527C149.018 9.39283 148.949 9.76448 148.811 10.0802C148.673 10.396 148.479 10.6624 148.229 10.8794C147.985 11.0899 147.696 11.2478 147.36 11.353C147.025 11.4583 146.663 11.5109 146.275 11.5109H145.061V13.5238H143.453V6.53802H146.255ZM146.236 10.0901C146.584 10.0901 146.867 10.0013 147.084 9.82368C147.308 9.64608 147.426 9.38954 147.439 9.05407C147.439 8.67913 147.337 8.41272 147.133 8.25485C146.93 8.09041 146.627 8.00818 146.226 8.00818H145.061V10.0901H146.236Z" fill="#050625" />
    <path d="M149.373 8.00818V6.53802H155.253V8.00818H153.112V13.5238H151.504V8.00818H149.373Z" fill="#050625" />
    <path d="M156.977 12.3693L156.552 13.5238H154.816L157.569 6.53802H159.285L161.999 13.5238H160.252L159.838 12.3693H156.977ZM157.47 10.9288H159.345C159.193 10.4881 159.039 10.0506 158.881 9.61648C158.73 9.17576 158.575 8.73504 158.417 8.29432L157.47 10.9288Z" fill="#050625" />
    <path d="M33.8886 24.5715H37.4068V21.7805H37.9566V27.7599H37.4068V25.0789H33.8886V27.7599H33.3389V21.7805H33.8886V24.5715Z" fill="#050625" />
    <path d="M39.855 27.7599V21.7805H40.4047V27.0325L43.8384 21.7805H44.5403V27.7599H43.9906V22.5502L40.5569 27.7599H39.855Z" fill="#050625" />
    <path d="M49.0081 27.7599V25.0789H47.9087L46.471 27.7599H45.8197L47.4435 24.7406L45.8197 21.7805H46.4371L47.9341 24.5715H49.0081V21.7805H49.5579V24.5715H50.6404L52.1458 21.7805H52.7463L51.1225 24.7406L52.7547 27.7599H52.0866L50.6573 25.0789H49.5579V27.7599H49.0081Z" fill="#050625" />
    <path d="M54.0352 21.7805H57.9678V22.288H54.5849V24.5376H57.6295V25.0451H54.5849V27.2524H57.9678V27.7599H54.0352V21.7805Z" fill="#050625" />
    <path d="M59.5354 27.7599V21.7805H63.2989V22.288H60.0851V27.7599H59.5354Z" fill="#050625" />
    <path d="M67.1583 27.8275C66.6959 27.8275 66.29 27.7514 65.9404 27.5992C65.5908 27.4469 65.2976 27.2355 65.0608 26.9649C64.8297 26.6886 64.6549 26.3644 64.5365 25.9923C64.4181 25.6202 64.3589 25.2142 64.3589 24.7744C64.3589 24.3347 64.4181 23.9287 64.5365 23.5566C64.6549 23.1788 64.8297 22.8546 65.0608 22.584C65.2976 22.3134 65.5908 22.1019 65.9404 21.9497C66.29 21.7918 66.6959 21.7129 67.1583 21.7129C67.6206 21.7129 68.0237 21.7918 68.3676 21.9497C68.7172 22.1019 69.0076 22.3162 69.2388 22.5924C69.4756 22.8631 69.6532 23.1845 69.7716 23.5566C69.89 23.9287 69.9492 24.3347 69.9492 24.7744C69.9492 25.2142 69.89 25.6202 69.7716 25.9923C69.6532 26.3644 69.4756 26.6858 69.2388 26.9564C69.0076 27.2271 68.7172 27.4413 68.3676 27.5992C68.0237 27.7514 67.6206 27.8275 67.1583 27.8275ZM67.1583 22.2119C66.7805 22.2119 66.4507 22.2795 66.1687 22.4148C65.8868 22.5502 65.6529 22.7362 65.4668 22.973C65.2807 23.2042 65.1426 23.4748 65.0524 23.7849C64.9622 24.095 64.9171 24.4249 64.9171 24.7744C64.9171 25.124 64.9622 25.4538 65.0524 25.7639C65.1482 26.074 65.2892 26.3447 65.4752 26.5758C65.6613 26.807 65.8925 26.9902 66.1687 27.1256C66.4507 27.2609 66.7805 27.3285 67.1583 27.3285C67.536 27.3285 67.8658 27.2637 68.1478 27.134C68.4297 26.9987 68.6608 26.8155 68.8413 26.5843C69.0217 26.3531 69.157 26.0825 69.2472 25.7724C69.3374 25.4623 69.3825 25.1296 69.3825 24.7744C69.3825 24.4249 69.3374 24.095 69.2472 23.7849C69.157 23.4748 69.0189 23.2042 68.8328 22.973C68.6524 22.7362 68.4212 22.5502 68.1393 22.4148C67.863 22.2795 67.536 22.2119 67.1583 22.2119Z" fill="#050625" />
    <path d="M71.5104 21.7805H73.5401C74.1885 21.7805 74.696 21.9384 75.0625 22.2542C75.4289 22.5699 75.6122 23.0632 75.6122 23.7342C75.6122 24.0725 75.553 24.3657 75.4346 24.6137C75.3218 24.8618 75.164 25.0704 74.961 25.2396C74.7636 25.4031 74.5268 25.5243 74.2506 25.6033C73.9799 25.6822 73.6867 25.7217 73.371 25.7217H72.0601V27.7599H71.5104V21.7805ZM73.3541 25.2142C73.6078 25.2142 73.839 25.186 74.0476 25.1296C74.2562 25.0733 74.4338 24.983 74.5804 24.859C74.727 24.735 74.8398 24.5771 74.9187 24.3854C75.0033 24.1937 75.0456 23.9654 75.0456 23.7004C75.0456 23.1929 74.9074 22.8321 74.6311 22.6178C74.3549 22.3979 73.9771 22.288 73.4979 22.288H72.0601V25.2142H73.3541Z" fill="#050625" />
    <path d="M79.6949 27.8275C79.2326 27.8275 78.8266 27.7514 78.477 27.5992C78.1275 27.4469 77.8343 27.2355 77.5975 26.9649C77.3663 26.6886 77.1915 26.3644 77.0731 25.9923C76.9547 25.6202 76.8955 25.2142 76.8955 24.7744C76.8955 24.3347 76.9547 23.9287 77.0731 23.5566C77.1915 23.1788 77.3663 22.8546 77.5975 22.584C77.8343 22.3134 78.1275 22.1019 78.477 21.9497C78.8266 21.7918 79.2326 21.7129 79.6949 21.7129C80.1572 21.7129 80.5604 21.7918 80.9043 21.9497C81.2538 22.1019 81.5442 22.3162 81.7754 22.5924C82.0122 22.8631 82.1898 23.1845 82.3082 23.5566C82.4266 23.9287 82.4858 24.3347 82.4858 24.7744C82.4858 25.2142 82.4266 25.6202 82.3082 25.9923C82.1898 26.3644 82.0122 26.6858 81.7754 26.9564C81.5442 27.2271 81.2538 27.4413 80.9043 27.5992C80.5604 27.7514 80.1572 27.8275 79.6949 27.8275ZM79.6949 22.2119C79.3171 22.2119 78.9873 22.2795 78.7054 22.4148C78.4235 22.5502 78.1895 22.7362 78.0034 22.973C77.8174 23.2042 77.6792 23.4748 77.589 23.7849C77.4988 24.095 77.4537 24.4249 77.4537 24.7744C77.4537 25.124 77.4988 25.4538 77.589 25.7639C77.6849 26.074 77.8258 26.3447 78.0119 26.5758C78.1979 26.807 78.4291 26.9902 78.7054 27.1256C78.9873 27.2609 79.3171 27.3285 79.6949 27.3285C80.0726 27.3285 80.4025 27.2637 80.6844 27.134C80.9663 26.9987 81.1975 26.8155 81.3779 26.5843C81.5583 26.3531 81.6936 26.0825 81.7838 25.7724C81.8741 25.4623 81.9192 25.1296 81.9192 24.7744C81.9192 24.4249 81.8741 24.095 81.7838 23.7849C81.6936 23.4748 81.5555 23.2042 81.3694 22.973C81.189 22.7362 80.9578 22.5502 80.6759 22.4148C80.3997 22.2795 80.0726 22.2119 79.6949 22.2119Z" fill="#050625" />
    <path d="M83.4147 29.4598V27.2524H83.4993C83.6233 27.2524 83.7305 27.2214 83.8207 27.1594C83.9165 27.0917 83.9955 27.01 84.0575 26.9141C84.1364 26.7901 84.1984 26.6548 84.2435 26.5082C84.2886 26.3616 84.3197 26.2291 84.3366 26.1107C84.3817 25.8401 84.4127 25.5497 84.4296 25.2396C84.4465 24.9295 84.4606 24.6504 84.4719 24.4023C84.4944 23.9625 84.5085 23.5256 84.5142 23.0914C84.5254 22.6573 84.5367 22.2203 84.548 21.7805H88.2777V27.2524H89.0219V29.4598H88.4722V27.7599H83.9644V29.4598H83.4147ZM87.7364 27.2524V22.288H85.0893L85.0047 24.7744C84.9934 25.0451 84.9793 25.3354 84.9624 25.6455C84.9455 25.95 84.9088 26.2347 84.8525 26.4997C84.8186 26.6632 84.7679 26.8098 84.7002 26.9395C84.6326 27.0692 84.5565 27.1735 84.4719 27.2524H87.7364Z" fill="#050625" />
    <path d="M92.7752 22.2119C92.3975 22.2175 92.0705 22.288 91.7942 22.4233C91.5179 22.553 91.2924 22.7362 91.1176 22.973C90.9428 23.2042 90.8131 23.4748 90.7286 23.7849C90.644 24.0894 90.6017 24.4136 90.6017 24.7575C90.6017 25.1071 90.644 25.4369 90.7286 25.747C90.8131 26.0571 90.9428 26.3306 91.1176 26.5674C91.298 26.7986 91.5236 26.9846 91.7942 27.1256C92.0705 27.2609 92.4003 27.3285 92.7837 27.3285C92.9585 27.3285 93.1361 27.3116 93.3165 27.2778C93.4969 27.2383 93.6661 27.1791 93.8239 27.1002C93.9818 27.0156 94.1228 26.9113 94.2468 26.7873C94.3708 26.6632 94.4667 26.5138 94.5344 26.339H95.1517C95.0672 26.604 94.9431 26.8324 94.7796 27.0241C94.6217 27.2101 94.4357 27.3624 94.2214 27.4808C94.0128 27.5992 93.7817 27.6866 93.5279 27.7429C93.2799 27.7993 93.0261 27.8275 92.7668 27.8275C92.2988 27.8275 91.8929 27.7514 91.5489 27.5992C91.205 27.4413 90.9203 27.2271 90.6947 26.9564C90.4748 26.6858 90.3085 26.3644 90.1958 25.9923C90.0886 25.6202 90.0351 25.2142 90.0351 24.7744C90.0351 24.3403 90.0914 23.9372 90.2042 23.565C90.317 23.1873 90.4861 22.8631 90.7117 22.5924C90.9428 22.3162 91.2304 22.1019 91.5743 21.9497C91.9239 21.7918 92.327 21.7129 92.7837 21.7129C93.0431 21.7129 93.2911 21.7411 93.5279 21.7975C93.7704 21.8538 93.9903 21.9441 94.1876 22.0681C94.3906 22.1865 94.5625 22.3387 94.7035 22.5248C94.8501 22.7109 94.9629 22.9364 95.0418 23.2014H94.4836C94.416 23.0266 94.3201 22.8772 94.1961 22.7531C94.0777 22.6291 93.9423 22.5276 93.7901 22.4487C93.6379 22.3641 93.4744 22.3049 93.2996 22.2711C93.1248 22.2316 92.95 22.2119 92.7752 22.2119Z" fill="#050625" />
    <path d="M96.7158 27.7599V21.7805H97.2655V24.6137H98.3142L100.319 21.7805H100.97L98.8301 24.7575L100.987 27.7599H100.327L98.4073 25.1212H97.2655V27.7599H96.7158Z" fill="#050625" />
    <path d="M104.479 27.8275C104.017 27.8275 103.611 27.7514 103.261 27.5992C102.912 27.4469 102.618 27.2355 102.382 26.9649C102.151 26.6886 101.976 26.3644 101.857 25.9923C101.739 25.6202 101.68 25.2142 101.68 24.7744C101.68 24.3347 101.739 23.9287 101.857 23.5566C101.976 23.1788 102.151 22.8546 102.382 22.584C102.618 22.3134 102.912 22.1019 103.261 21.9497C103.611 21.7918 104.017 21.7129 104.479 21.7129C104.941 21.7129 105.345 21.7918 105.688 21.9497C106.038 22.1019 106.328 22.3162 106.56 22.5924C106.796 22.8631 106.974 23.1845 107.092 23.5566C107.211 23.9287 107.27 24.3347 107.27 24.7744C107.27 25.2142 107.211 25.6202 107.092 25.9923C106.974 26.3644 106.796 26.6858 106.56 26.9564C106.328 27.2271 106.038 27.4413 105.688 27.5992C105.345 27.7514 104.941 27.8275 104.479 27.8275ZM104.479 22.2119C104.101 22.2119 103.771 22.2795 103.49 22.4148C103.208 22.5502 102.974 22.7362 102.788 22.973C102.602 23.2042 102.463 23.4748 102.373 23.7849C102.283 24.095 102.238 24.4249 102.238 24.7744C102.238 25.124 102.283 25.4538 102.373 25.7639C102.469 26.074 102.61 26.3447 102.796 26.5758C102.982 26.807 103.213 26.9902 103.49 27.1256C103.771 27.2609 104.101 27.3285 104.479 27.3285C104.857 27.3285 105.187 27.2637 105.469 27.134C105.751 26.9987 105.982 26.8155 106.162 26.5843C106.343 26.3531 106.478 26.0825 106.568 25.7724C106.658 25.4623 106.703 25.1296 106.703 24.7744C106.703 24.4249 106.658 24.095 106.568 23.7849C106.478 23.4748 106.34 23.2042 106.154 22.973C105.973 22.7362 105.742 22.5502 105.46 22.4148C105.184 22.2795 104.857 22.2119 104.479 22.2119Z" fill="#050625" />
    <path d="M111.191 20.6134C111.428 20.6134 111.636 20.5655 111.817 20.4697C112.003 20.3682 112.118 20.1934 112.163 19.9453H112.688C112.671 20.1596 112.617 20.3372 112.527 20.4781C112.437 20.6191 112.324 20.7347 112.189 20.8249C112.053 20.9151 111.898 20.9799 111.724 21.0194C111.554 21.0532 111.377 21.0701 111.191 21.0701C111.005 21.0701 110.824 21.0532 110.65 21.0194C110.48 20.9799 110.325 20.9179 110.184 20.8333C110.049 20.7431 109.936 20.6275 109.846 20.4866C109.756 20.34 109.702 20.1596 109.685 19.9453H110.21C110.255 20.1934 110.37 20.3682 110.557 20.4697C110.743 20.5655 110.954 20.6134 111.191 20.6134ZM108.831 27.7599V21.7805H109.381V27.0325L112.815 21.7805H113.517V27.7599H112.967V22.5502L109.533 27.7599H108.831Z" fill="#050625" />
    <path d="M120.501 27.8275C120.038 27.8275 119.632 27.7514 119.283 27.5992C118.933 27.4469 118.64 27.2355 118.403 26.9649C118.172 26.6886 117.997 26.3644 117.879 25.9923C117.761 25.6202 117.701 25.2142 117.701 24.7744C117.701 24.3347 117.761 23.9287 117.879 23.5566C117.997 23.1788 118.172 22.8546 118.403 22.584C118.64 22.3134 118.933 22.1019 119.283 21.9497C119.632 21.7918 120.038 21.7129 120.501 21.7129C120.963 21.7129 121.366 21.7918 121.71 21.9497C122.06 22.1019 122.35 22.3162 122.581 22.5924C122.818 22.8631 122.996 23.1845 123.114 23.5566C123.232 23.9287 123.292 24.3347 123.292 24.7744C123.292 25.2142 123.232 25.6202 123.114 25.9923C122.996 26.3644 122.818 26.6858 122.581 26.9564C122.35 27.2271 122.06 27.4413 121.71 27.5992C121.366 27.7514 120.963 27.8275 120.501 27.8275ZM120.501 22.2119C120.123 22.2119 119.793 22.2795 119.511 22.4148C119.229 22.5502 118.995 22.7362 118.809 22.973C118.623 23.2042 118.485 23.4748 118.395 23.7849C118.305 24.095 118.26 24.4249 118.26 24.7744C118.26 25.124 118.305 25.4538 118.395 25.7639C118.491 26.074 118.632 26.3447 118.818 26.5758C119.004 26.807 119.235 26.9902 119.511 27.1256C119.793 27.2609 120.123 27.3285 120.501 27.3285C120.878 27.3285 121.208 27.2637 121.49 27.134C121.772 26.9987 122.003 26.8155 122.184 26.5843C122.364 26.3531 122.499 26.0825 122.59 25.7724C122.68 25.4623 122.725 25.1296 122.725 24.7744C122.725 24.4249 122.68 24.095 122.59 23.7849C122.499 23.4748 122.361 23.2042 122.175 22.973C121.995 22.7362 121.764 22.5502 121.482 22.4148C121.206 22.2795 120.878 22.2119 120.501 22.2119Z" fill="#050625" />
    <path d="M124.853 21.7805H128.836V22.288H125.403V24.3177H126.916C127.21 24.3177 127.489 24.3403 127.754 24.3854C128.019 24.4249 128.25 24.5066 128.447 24.6307C128.65 24.7491 128.811 24.9154 128.929 25.1296C129.048 25.3439 129.107 25.623 129.107 25.9669C129.107 26.3108 129.048 26.5984 128.929 26.8296C128.811 27.0551 128.65 27.2383 128.447 27.3793C128.244 27.5146 128.007 27.6133 127.737 27.6753C127.472 27.7317 127.187 27.7599 126.883 27.7599H124.853V21.7805ZM125.403 27.2524H126.781C127.007 27.2524 127.227 27.2383 127.441 27.2101C127.655 27.1763 127.844 27.1171 128.007 27.0325C128.171 26.9423 128.301 26.8155 128.396 26.652C128.498 26.4884 128.549 26.2714 128.549 26.0007C128.549 25.7301 128.498 25.5187 128.396 25.3664C128.301 25.2086 128.171 25.0902 128.007 25.0112C127.844 24.9323 127.658 24.8816 127.449 24.859C127.246 24.8365 127.038 24.8252 126.823 24.8252H125.403V27.2524Z" fill="#050625" />
    <path d="M134.522 27.7599V22.288H131.731C131.725 22.6094 131.72 22.9307 131.714 23.2521L131.697 23.8864C131.697 24.2078 131.692 24.5292 131.68 24.8506C131.669 25.155 131.655 25.4736 131.638 25.8062C131.621 26.1332 131.573 26.4433 131.494 26.7365C131.398 27.103 131.238 27.3708 131.012 27.54C130.787 27.7091 130.488 27.7993 130.116 27.8106V27.244C130.285 27.244 130.429 27.2045 130.547 27.1256C130.665 27.041 130.761 26.931 130.835 26.7957C130.897 26.6773 130.944 26.5251 130.978 26.339C131.018 26.153 131.046 25.9585 131.063 25.7555C131.08 25.5525 131.091 25.3552 131.097 25.1635C131.102 24.9661 131.108 24.7998 131.114 24.6645C131.125 24.1852 131.133 23.706 131.139 23.2267C131.145 22.7475 131.153 22.2654 131.164 21.7805H135.072V27.7599H134.522Z" fill="#050625" />
    <path d="M137.425 26.4321L136.934 27.7599H136.317L138.55 21.7805H139.319L141.544 27.7599H140.926L140.436 26.4321H137.425ZM137.611 25.9246H140.258L138.93 22.2964L137.611 25.9246Z" fill="#050625" />
    <path d="M145.077 22.2119C144.699 22.2175 144.372 22.288 144.096 22.4233C143.82 22.553 143.594 22.7362 143.419 22.973C143.245 23.2042 143.115 23.4748 143.03 23.7849C142.946 24.0894 142.904 24.4136 142.904 24.7575C142.904 25.1071 142.946 25.4369 143.03 25.747C143.115 26.0571 143.245 26.3306 143.419 26.5674C143.6 26.7986 143.825 26.9846 144.096 27.1256C144.372 27.2609 144.702 27.3285 145.086 27.3285C145.26 27.3285 145.438 27.3116 145.618 27.2778C145.799 27.2383 145.968 27.1791 146.126 27.1002C146.284 27.0156 146.425 26.9113 146.549 26.7873C146.673 26.6632 146.769 26.5138 146.836 26.339H147.454C147.369 26.604 147.245 26.8324 147.081 27.0241C146.924 27.2101 146.738 27.3624 146.523 27.4808C146.315 27.5992 146.083 27.6866 145.83 27.7429C145.582 27.7993 145.328 27.8275 145.069 27.8275C144.601 27.8275 144.195 27.7514 143.851 27.5992C143.507 27.4413 143.222 27.2271 142.997 26.9564C142.777 26.6858 142.61 26.3644 142.498 25.9923C142.39 25.6202 142.337 25.2142 142.337 24.7744C142.337 24.3403 142.393 23.9372 142.506 23.565C142.619 23.1873 142.788 22.8631 143.013 22.5924C143.245 22.3162 143.532 22.1019 143.876 21.9497C144.226 21.7918 144.629 21.7129 145.086 21.7129C145.345 21.7129 145.593 21.7411 145.83 21.7975C146.072 21.8538 146.292 21.9441 146.489 22.0681C146.692 22.1865 146.864 22.3387 147.005 22.5248C147.152 22.7109 147.265 22.9364 147.344 23.2014H146.785C146.718 23.0266 146.622 22.8772 146.498 22.7531C146.38 22.6291 146.244 22.5276 146.092 22.4487C145.94 22.3641 145.776 22.3049 145.601 22.2711C145.427 22.2316 145.252 22.2119 145.077 22.2119Z" fill="#050625" />
    <path d="M152.825 22.288H150.846V27.7599H150.297V22.288H148.318V21.7805H152.825V22.288Z" fill="#050625" />
    <path d="M154.105 27.7599V21.7805H154.655V27.0325L158.088 21.7805H158.79V27.7599H158.241V22.5502L154.807 27.7599H154.105Z" fill="#050625" />
    <defs>
        <clipPath id="clip0_0_10785">
            <rect width="27.1961" height="35.3797" fill="white" transform="translate(0 0.4375)" />
        </clipPath>
    </defs>
</svg>