<svg xmlns="http://www.w3.org/2000/svg" width="138" height="27" viewBox="0 0 138 27" fill="none">
    <path fill-rule="evenodd" clip-rule="evenodd" d="M12.0025 0C22.1782 0 23.6177 0 23.6177 0C23.6177 0 23.4802 0.836584 23.4091 1.28142C23.3526 1.63472 23.2596 2.29191 23.2049 2.7459C23.1356 3.31155 22.9477 3.72344 22.6067 4.05661C22.3332 4.32571 21.9065 4.57284 21.1989 4.66803L21.1478 15.194L21.1956 26.4044H15.9254L15.8776 11.3351L13.6054 11.3497L13.6532 26.4044H8.3903L8.34254 11.3497H5.97186L6.01963 26.4044H0.731198L0.683429 12.265L2 11H0.5L0.00508258 6.59016H0.00390625H16.0016V4.75956H8.70725H1.13539L0.731198 0H12.0025Z" fill="#1A2A4B" />
    <path fill-rule="evenodd" clip-rule="evenodd" d="M27.7206 7H41.441V24.8909C41.441 25.2681 41.2916 25.6299 41.0254 25.8971C40.7601 26.1634 40.4004 26.3142 40.0246 26.3166L32.7279 26.3641H24.5293V17.3429C24.5293 17.3429 24.4779 8.75371 24.6439 8.28142C24.7934 7.85672 25.0815 7.5327 25.4955 7.32035C26.0626 7.03295 27.7206 7 27.7206 7ZM29.7116 12.6584V21.5533H36.4261V11.7596H28.7998L29.7116 12.6584Z" fill="#1A2A4B" />
    <path fill-rule="evenodd" clip-rule="evenodd" d="M124.199 7H137.92V24.8909C137.92 25.2681 137.77 25.6299 137.504 25.8971C137.239 26.1634 136.879 26.3142 136.503 26.3166L129.206 26.3641H121.008V17.3429C121.008 17.3429 120.956 8.75371 121.122 8.28142C121.272 7.85672 121.56 7.5327 121.974 7.32035C122.541 7.03295 124.199 7 124.199 7ZM126.19 12.6584V21.5533H132.905V11.7596H125.278L126.19 12.6584Z" fill="#1A2A4B" />
    <path fill-rule="evenodd" clip-rule="evenodd" d="M53.0687 7.00166H60.6366V14.3241C60.6366 14.3241 60.1841 20.1051 60.0692 20.4566C59.9251 20.8977 59.6607 21.198 59.2212 21.4176C58.665 21.6977 58.0906 21.7398 49.5561 21.738L49.5726 26.4044H44.4574L44.4409 17.1157C44.4337 8.72243 44.4501 8.26111 44.7783 7.82543C44.968 7.57464 45.3199 7.2671 45.5625 7.14261C45.8871 6.9742 53.0687 7.00166 53.0687 7.00166ZM49.5726 12.3474V14.7744L49.5561 16.9784L55.3005 16.9839C55.5211 15.3492 55.6451 14.152 55.7163 13.2715L55.8476 11.6679L48.6772 11.6697L49.5726 12.3474Z" fill="#1A2A4B" />
    <path fill-rule="evenodd" clip-rule="evenodd" d="M78.732 7.00397C79.1948 7.00143 79.6392 7.1846 79.9658 7.51247C80.2861 7.83395 80.467 8.26849 80.4697 8.72226L80.5167 16.9347V26.4044H75.2684V11.668H69.4328V26.4044H64.294V12.5247L65.3093 11.4392H63.5408L63.098 7.0897L78.732 7.00397Z" fill="#1A2A4B" />
    <path fill-rule="evenodd" clip-rule="evenodd" d="M91.8182 7H96.6969C97.7216 7 98.5685 7.77558 98.5937 8.80001C98.6027 9.16827 98.6084 9.59098 98.6075 10.0663C98.6057 11.4502 98.3358 14.597 98.3358 14.597C98.3358 14.597 97.9455 18.1795 97.8252 18.5328C97.6775 18.9685 97.4039 19.276 96.9699 19.4938C96.4265 19.7666 95.7937 19.8142 89.1284 19.8142L89.2196 21.7363H97.6082V26.4044H90.6657H84.0734V17.2514V8.73124C84.0734 8.32255 84.218 7.92703 84.4816 7.61469C84.8105 7.22491 85.2946 7 85.8046 7H91.8182ZM88.6269 12.2117L89.1284 12.673V15.0546L93.0492 15.0601C93.2589 13.5664 93.3209 12.8231 93.3209 12.446L93.3227 11.7596L88.1254 11.7467L88.6269 12.2117Z" fill="#1A2A4B" />
    <path fill-rule="evenodd" clip-rule="evenodd" d="M117.753 0V24.9321C117.751 25.3082 117.601 25.677 117.336 25.9434C117.07 26.2106 116.709 26.3618 116.332 26.3641H101.5L101.627 11.0751C101.78 9.56488 102.026 8.06196 102.174 7.73428C102.342 7.36084 102.677 7.03682 103.078 6.86475C103.587 6.64507 104.618 6.59016 112.652 6.59016V4.75956H107.364C102.907 4.75956 102.032 4.71745 101.802 4.48497C101.651 4.33486 101.523 3.98338 101.517 3.70696C101.51 3.43054 101.432 1.8306 101.432 1.8306V0H117.753ZM106.634 12.446V21.1434H112.654L112.652 11.3497H106L106.634 12.446Z" fill="#1A2A4B" />
</svg>