<svg width="333" height="132" viewBox="0 0 333 132" fill="none" xmlns="http://www.w3.org/2000/svg">
<path d="M105.829 32.3613H38V100.397H105.829V32.3613Z" fill="#ED1A3A"/>
<path d="M94.8752 39.1376C93.3164 39.1376 92.1359 40.1749 91.5478 41.4215L83.0073 55.5249C82.415 56.8292 81.9828 58.2945 81.9828 59.2645C81.9828 60.1313 82.1013 60.8971 82.418 61.603L91.6566 83.7408H55.781C54.4895 83.7408 53.4237 82.4397 53.4237 81.2386V43.1048C53.1523 37.8916 45.6823 37.8944 45.5178 43.2685L45.681 83.7408C45.681 88.1408 49.0723 91.666 53.4237 91.666H102.337L90.4145 61.0661C90.0855 59.9269 89.9389 58.8937 90.7409 57.5357L98.6286 44.6698C98.7397 44.4015 98.9006 43.2671 98.9006 42.941C98.7443 40.6047 96.9192 39.0344 94.8752 39.1376ZM75.5094 39.1558C73.5907 39.1687 71.6743 40.4982 71.6743 43.1048V70.3926C71.6743 74.3551 66.3614 74.029 66.3614 70.3926V43.1048C66.3614 37.8916 58.6731 37.8916 58.6731 43.1048V70.611C58.6731 76.9015 63.356 81.0839 68.9453 81.0839C74.6869 81.0839 79.3535 76.9015 79.3535 70.611V43.1048C79.3535 40.4466 77.428 39.1429 75.5094 39.1558Z" fill="white"/>
<path d="M119.117 40.3555V58.3561C119.117 62.8552 118.66 65.3566 115.008 65.3566C114.325 65.3566 113.869 65.3566 113.186 65.1089V72.8565C114.552 73.36 115.465 73.36 116.608 73.36C126.874 73.36 127.33 65.6083 127.33 61.1051V48.1072H133.261V72.8565H141.47V40.3555H119.117Z" fill="black"/>
<path d="M144.21 40.3555L155.389 63.8582L151.284 72.8565H160.18L173.411 40.3555H164.515L159.724 54.1046L154.019 40.3555H144.21Z" fill="black"/>
<path d="M175.921 72.8565H184.134V58.8555L192.574 72.8565H203.066L191.435 56.1065L202.839 40.3555H193.03L184.134 54.1046V40.3555H175.921V72.8565Z" fill="black"/>
<path d="M216.527 73.8607C227.475 73.8607 232.493 65.3578 232.493 56.6072C232.493 48.1084 227.475 39.6055 216.527 39.6055C205.804 39.6055 200.787 48.1084 200.787 56.6072C200.787 65.3578 205.804 73.8607 216.527 73.8607ZM216.527 66.109C212.874 66.109 209.226 62.8564 209.226 56.6072C209.226 50.358 212.874 47.3572 216.527 47.3572C220.405 47.3572 224.053 50.358 224.053 56.6072C224.053 62.8564 220.405 66.109 216.527 66.109Z" fill="black"/>
<path d="M236.602 40.3561V72.8571H244.585L255.99 53.3581V72.8571H263.977V40.3561H255.99L244.585 59.8591V40.3561H236.602ZM250.516 38.6059C253.938 38.6059 257.36 37.3553 258.959 33.6032L254.168 31.6055C253.481 34.1068 251.429 34.3545 250.516 34.3545C249.833 34.3545 247.55 34.1068 247.094 31.6055L242.307 33.6032C243.672 37.3553 247.324 38.6059 250.516 38.6059Z" fill="black"/>
<path d="M272.646 40.3555V58.3561C272.646 62.8552 272.185 65.3566 268.537 65.3566C267.854 65.3566 267.398 65.3566 266.711 65.1089V72.8565C268.081 73.36 268.994 73.36 270.133 73.36C280.398 73.36 280.855 65.6083 280.855 61.1051V48.1072H286.786V72.8565H294.999V40.3555H272.646Z" fill="black"/>
<path d="M113.252 91.0969H114.408V85.0665H121.157V91.0969H122.313V79.2754H121.157V84.1171H114.408V79.2754H113.252V91.0969Z" fill="black"/>
<path d="M125.256 91.0969H131.585V90.1476H126.411V84.9509H131.38V84.0015H126.411V80.2289H131.585V79.2754H125.256V91.0969Z" fill="black"/>
<path d="M139.2 91.0966H140.343V89.4703H140.824C144.633 89.4703 146.208 87.2083 146.208 84.8391C146.208 82.0653 144.164 80.2285 140.824 80.2285H140.343V78.8086H139.2V80.2285H138.735C135.375 80.2285 133.335 82.0653 133.335 84.8391C133.335 87.2083 134.91 89.4703 138.735 89.4703H139.2V91.0966ZM140.343 81.1779C144.164 81.2274 145.003 83.0188 145.003 84.8391C145.003 87.6789 143.124 88.4177 140.343 88.5168V81.1779ZM139.2 88.5168C136.42 88.4177 134.54 87.6789 134.54 84.8391C134.54 83.0188 135.375 81.2274 139.2 81.1779V88.5168Z" fill="black"/>
<path d="M150.384 91.0969H151.494V80.2289H154.628V79.2754H147.254V80.2289H150.384V91.0969Z" fill="black"/>
<path d="M155.994 91.0969H157.294L160.428 85.9044H161.423V91.0969H162.583V79.2754H159.864C156.298 79.2754 155.784 81.6488 155.784 82.6972C155.784 84.695 157.343 85.9044 159.177 85.8383L155.994 91.0969ZM161.423 84.9509H159.753C158.807 84.9509 156.928 84.8395 156.928 82.5816C156.928 80.3899 158.918 80.2289 159.864 80.2289H161.423V84.9509Z" fill="black"/>
<path d="M165.54 91.0969H166.696V85.0665H173.445V91.0969H174.6V79.2754H173.445V84.1171H166.696V79.2754H165.54V91.0969Z" fill="black"/>
<path d="M176.287 91.0957H177.446L179.067 87.257H184.031L185.656 91.0957H186.811L181.526 78.9688L176.287 91.0957ZM179.486 86.3242L181.526 81.4866L183.616 86.3242H179.486Z" fill="black"/>
<path d="M188.148 91.0969H189.448L192.582 85.9044H193.577V91.0969H194.733V79.2754H192.019C188.453 79.2754 187.939 81.6488 187.939 82.6972C187.939 84.695 189.498 85.9044 191.328 85.8383L188.148 91.0969ZM193.577 84.9509H191.908C190.958 84.9509 189.078 84.8395 189.078 82.5816C189.078 80.3899 191.073 80.2289 192.019 80.2289H193.577V84.9509Z" fill="black"/>
<path d="M201.598 91.0969H202.753V85.3719L208.038 91.0969H209.548L203.843 85.0004L209.453 79.2754H208.038L202.753 84.7899V79.2754H201.598V91.0969Z" fill="black"/>
<path d="M217.004 91.4672C220.508 91.4672 223.383 88.937 223.383 85.2097C223.383 81.4866 220.508 78.9688 217.004 78.9688C213.549 78.9688 210.674 81.4866 210.674 85.2097C210.674 88.937 213.549 91.4672 217.004 91.4672ZM217.004 90.4683C214.129 90.4683 211.879 88.3055 211.879 85.2097C211.879 82.114 214.129 79.9057 217.004 79.9057C219.882 79.9057 222.177 82.114 222.177 85.2097C222.177 88.3055 219.882 90.4683 217.004 90.4683Z" fill="black"/>
<path d="M224.974 91.0966H226.085L227.175 82.3707L231.514 91.629L235.803 82.3707L236.963 91.0966H238.004L236.383 78.8086L231.514 89.3712L226.595 78.8086L224.974 91.0966Z" fill="black"/>
<path d="M240.176 79.2754V91.0969H241.332V80.2289H248.081V91.0969H249.237V79.2754H240.176Z" fill="black"/>
<path d="M250.927 91.0957H252.082L253.703 87.257H258.671L260.292 91.0957H261.447L256.162 78.9688L250.927 91.0957ZM254.122 86.3242L256.162 81.4866L258.252 86.3242H254.122Z" fill="black"/>
<path d="M263.088 91.0969H264.244V85.0665H270.993V91.0969H272.153V79.2754H270.993V84.1171H264.244V79.2754H263.088V91.0969Z" fill="black"/>
<path d="M275.09 79.275V91.629L283.16 81.7433V91.0966H284.299V78.8086L276.25 88.6282V79.275H275.09Z" fill="black"/>
<path d="M286.902 91.0969H288.201L291.335 85.9044H292.331V91.0969H293.49V79.2754H290.776C287.206 79.2754 286.692 81.6488 286.692 82.6972C286.692 84.695 288.251 85.9044 290.085 85.8383L286.902 91.0969ZM292.331 84.9509H290.661C289.715 84.9509 287.835 84.8395 287.835 82.5816C287.835 80.3899 289.826 80.2289 290.776 80.2289H292.331V84.9509Z" fill="black"/>
</svg>
