<svg width="333" height="132" viewBox="0 0 333 132" fill="none" xmlns="http://www.w3.org/2000/svg">
<path d="M149.558 56.1783L156.335 51.1783H133.865V80.8211H156.335V75.8211H140.285V68.3211H153.838V63.3212H140.285V56.1783H149.558ZM121.56 56.1783L128.337 51.1783H102.657V80.8211H116.032C123.522 80.8211 127.802 77.4283 127.802 71.5354C127.802 65.8212 123.878 62.7854 116.745 62.7854H108.898V56.1783H121.56V56.1783ZM115.853 67.6069C119.955 67.6069 121.738 69.0354 121.738 71.714C121.738 74.3926 119.777 75.8211 115.853 75.8211H109.077V67.6069H115.853ZM174.347 51.1783H162.22V80.8211H168.64V72.4283H174.525C182.372 72.4283 187.187 68.3212 187.187 61.714C187.187 55.1069 182.193 51.1783 174.347 51.1783V51.1783ZM174.347 67.4283H168.64V55.9997H174.347C178.448 55.9997 180.767 57.964 180.767 61.714C180.588 65.464 178.448 67.4283 174.347 67.4283ZM91.7783 74.3926C89.995 75.2854 88.2117 75.8211 86.25 75.8211C80.5433 75.8211 76.2633 71.714 76.2633 65.9997C76.2633 60.2854 80.365 56.1783 86.25 56.1783C88.39 56.1783 90.3517 56.8926 92.135 57.964L96.7717 54.5712L96.415 54.214C93.74 51.8926 90.1733 50.6426 86.0717 50.6426C81.6133 50.6426 77.69 52.0711 74.6583 54.9283C71.805 57.7854 70.0217 61.714 70.2 65.8211C70.2 69.9283 71.805 73.8569 74.6583 76.8926C77.69 79.7497 81.7917 81.3569 85.8933 81.1783C90.53 81.1783 94.4533 79.5712 97.3067 76.714L93.205 73.6783L91.7783 74.3926ZM284.2 63.3212H270.468V51.1783H264.048V80.8211H270.468V68.6783H284.2V80.8211H290.62V51.1783H284.2V63.3212ZM240.865 51.1783L228.025 80.8211H234.445L236.942 74.9283H250.495L252.992 80.8211H259.768L247.285 51.1783H240.865V51.1783ZM239.082 69.9283L244.075 57.964L248.712 69.9283H239.082ZM313.803 65.464L325.395 51.1783H318.083L308.453 63.8569H304.887V51.1783H298.467V80.8211H304.887V68.8569H308.988L318.797 80.8211H327L313.803 65.464ZM214.65 62.7854H206.803V56.1783H223.567V51.1783H200.383V80.8211H213.758C221.248 80.8211 225.528 77.4283 225.528 71.5354C225.707 65.8212 221.783 62.7854 214.65 62.7854V62.7854ZM213.58 75.9997H206.803V67.7854H213.58C217.682 67.7854 219.465 69.214 219.465 71.8926C219.643 74.5711 217.503 75.9997 213.58 75.9997V75.9997Z" fill="#21A038"/>
<path d="M49.6579 50.6094C50.8156 52.1284 51.7957 53.7786 52.5783 55.527L30.3778 72.1346L21.0996 66.2323V59.1316L30.3778 65.0339L49.6579 50.6094Z" fill="#21A038"/>
<path d="M11.6305 65.7314C11.6305 65.4128 11.6382 65.0963 11.6535 64.7816L6.03062 64.502C6.01148 64.9098 6.00001 65.3216 6.00001 65.7371C5.99761 68.9842 6.62697 72.1997 7.852 75.1992C9.07701 78.1989 10.8736 80.9235 13.1386 83.2168L17.127 79.1712C15.3835 77.409 14.0003 75.3144 13.057 73.008C12.1138 70.7015 11.629 68.2286 11.6305 65.7314Z" fill="url(#paint0_linear_30_14765)"/>
<path d="M30.3728 46.712C30.6867 46.712 30.9985 46.7236 31.3086 46.7392L31.5899 41.0311C31.1868 41.0117 30.781 41.002 30.3728 41.002C27.1716 40.998 24.0014 41.6358 21.0438 42.8786C18.0863 44.1215 15.3998 45.945 13.1387 48.2444L17.1271 52.2919C18.8637 50.5219 20.9279 49.1178 23.2011 48.1602C25.4743 47.2026 27.9115 46.7104 30.3728 46.712Z" fill="url(#paint1_linear_30_14765)"/>
<path d="M30.3726 84.7517C30.0588 84.7517 29.7468 84.7517 29.4349 84.7265L29.1536 90.4326C29.558 90.4533 29.9644 90.4637 30.3726 90.4637C33.5725 90.4671 36.7412 89.8289 39.6972 88.5857C42.6531 87.3425 45.3378 85.5187 47.5973 83.2194L43.6165 79.1738C41.8796 80.9428 39.8156 82.3462 37.5428 83.3034C35.2701 84.2607 32.8334 84.7529 30.3726 84.7517Z" fill="url(#paint2_linear_30_14765)"/>
<path d="M40.9374 50.0312L45.676 46.4867C41.3448 42.9276 35.9384 40.9901 30.3652 41V46.712C34.1391 46.7072 37.8254 47.8646 40.9374 50.0312Z" fill="url(#paint3_linear_30_14765)"/>
<path d="M54.7438 65.7328C54.7469 64.2469 54.6188 62.7636 54.361 61.3008L49.1152 65.224C49.1152 65.393 49.1152 65.562 49.1152 65.7328C49.1166 68.3903 48.5676 71.0184 47.5041 73.4468C46.4405 75.8751 44.8859 78.0496 42.9412 79.8292L46.7249 84.0729C49.2531 81.7566 51.2735 78.9271 52.6549 75.7677C54.0364 72.6082 54.7481 69.1894 54.7438 65.7328Z" fill="#21A038"/>
<path d="M30.3729 84.7518C27.754 84.7527 25.1642 84.1955 22.7709 83.1162C20.3778 82.0369 18.2347 80.4595 16.4803 78.4863L12.3005 82.3241C14.5827 84.8902 17.3709 86.9408 20.4843 88.3431C23.5976 89.7452 26.9666 90.4678 30.3729 90.4637V84.7518Z" fill="url(#paint4_linear_30_14765)"/>
<path d="M17.8046 51.6343L14.0228 47.3906C11.4938 49.7064 9.47272 52.5358 8.0906 55.6953C6.70849 58.8548 5.99623 62.2738 6.00001 65.7306H11.6305C11.6294 63.0733 12.1784 60.4452 13.2419 58.0168C14.3055 55.5886 15.86 53.4141 17.8046 51.6343Z" fill="url(#paint5_linear_30_14765)"/>
<defs>
<linearGradient id="paint0_linear_30_14765" x1="14.2773" y1="82.5041" x2="7.96286" y2="64.5166" gradientUnits="userSpaceOnUse">
<stop offset="0.14" stop-color="#F1E813"/>
<stop offset="0.3" stop-color="#E6E418"/>
<stop offset="0.58" stop-color="#C9DA26"/>
<stop offset="0.89" stop-color="#A2CC39"/>
</linearGradient>
<linearGradient id="paint1_linear_30_14765" x1="14.7463" y1="49.2543" x2="30.6493" y2="43.2823" gradientUnits="userSpaceOnUse">
<stop offset="0.06" stop-color="#0FA7DF"/>
<stop offset="0.54" stop-color="#0098F8"/>
<stop offset="0.92" stop-color="#0290EA"/>
</linearGradient>
<linearGradient id="paint2_linear_30_14765" x1="28.7824" y1="87.0163" x2="46.7248" y2="83.0221" gradientUnits="userSpaceOnUse">
<stop offset="0.12" stop-color="#A2CC39"/>
<stop offset="0.28" stop-color="#86C239"/>
<stop offset="0.87" stop-color="#219F38"/>
</linearGradient>
<linearGradient id="paint3_linear_30_14765" x1="29.1941" y1="42.9131" x2="44.551" y2="47.583" gradientUnits="userSpaceOnUse">
<stop offset="0.06" stop-color="#0290EA"/>
<stop offset="0.79" stop-color="#0C89CA"/>
</linearGradient>
<linearGradient id="paint4_linear_30_14765" x1="13.7129" y1="81.6288" x2="30.4458" y2="87.7911" gradientUnits="userSpaceOnUse">
<stop offset="0.13" stop-color="#F1E813"/>
<stop offset="0.3" stop-color="#EAE616"/>
<stop offset="0.53" stop-color="#D8DF1F"/>
<stop offset="0.8" stop-color="#BAD52D"/>
<stop offset="0.98" stop-color="#A2CC39"/>
</linearGradient>
<linearGradient id="paint5_linear_30_14765" x1="8.09757" y1="66.422" x2="14.9636" y2="48.8217" gradientUnits="userSpaceOnUse">
<stop offset="0.07" stop-color="#A2CC39"/>
<stop offset="0.26" stop-color="#81C45E"/>
<stop offset="0.92" stop-color="#0FA7DF"/>
</linearGradient>
</defs>
</svg>
