<svg xmlns="http://www.w3.org/2000/svg" width="333" height="132" viewBox="0 0 333 132" fill="none">
    <path d="M312 10.5773L308.52 7.69693C307.381 11.4894 305.969 14.9298 303.98 17.6181C303.034 15.5699 301.671 13.5216 299.971 11.6014C299.714 8.241 299.04 4.88059 297.902 1.6322L294.389 0C294.341 2.00024 294.052 4.08049 293.571 6.01673C290.428 3.80846 286.883 2.16026 282.969 1.04013L279.441 3.56843C286.931 7.18487 294.357 16.69 294.501 26.7712C292.721 28.0194 290.78 29.2355 288.679 30.3877C287.829 23.1388 284.589 14.7698 279.97 10.9933L277.115 12.7055C278.302 15.5219 279.088 18.4342 279.361 21.4426L274.774 20.6105C274.838 24.931 275.944 29.0755 278.527 32.948C278.27 33.8281 277.981 34.6602 277.645 35.4603C275.752 36.1804 273.795 36.8845 271.774 37.5406C268.887 33.252 268.037 24.931 269.208 17.6981L265.583 17.0261C261.301 23.0428 259.521 30.2597 259.12 39.2048C257.949 39.2048 256.826 39.1087 255.719 38.9487C253.474 32.3879 252.848 23.9229 253.795 17.8422L250.17 17.1381C246.754 21.9227 244.925 28.3074 244.091 35.7323C242.054 34.3082 240.178 32.4999 238.493 30.3397C239.263 20.2585 246.224 9.34513 254.324 3.92048L251.629 1.48818C247.972 2.56031 244.893 4.19251 242.118 6.16075C241.878 4.32052 241.814 2.03225 242.006 0L237.515 2.4803C236.585 5.21663 235.334 10.2092 234.981 13.2976C234.003 14.5938 233.072 15.9859 232.19 17.4421C231.42 14.9938 230.891 11.2974 230.811 7.88896L227.346 11.2334C223.994 22.0027 226.689 35.3483 233.329 42.7572C231.982 52.7904 234.371 60.8554 239.167 65.96C236.922 69.8325 235.045 74.233 233.441 79.0656L237.948 92.8913H243.706C244.059 110.333 253.41 123.647 267.508 132C273.17 110.141 284.782 96.0436 299.329 85.4824L292.721 65.3039C297.228 56.5829 299.024 46.8217 298.976 38.4527C306.082 32.2919 312 23.2028 312 10.5773Z" fill="#C1C6C8" />
    <path d="M310.377 11.5053L309.334 10.6412C308.211 14.4976 306.174 18.018 303.4 21.2344C302.614 18.1461 300.785 15.0897 298.251 12.3534C298.075 9.361 297.385 5.47252 296.615 2.99222L295.733 2.57617C295.733 3.93634 295.38 6.67267 294.69 9.04096C291.451 6.46464 287.553 4.32038 283.399 2.91221L282.549 3.52029C290.167 7.82481 296.904 18.7701 296.23 27.7152C293.504 29.6995 290.44 31.5397 287.12 33.2199C286.928 26.4351 283.816 16.8819 279.838 13.1375L279.245 13.4895C280.656 16.8019 281.539 21.8905 281.266 27.0111C279.518 25.539 278.427 24.0828 277.785 22.9466L276.55 22.7226C276.951 26.003 278.331 29.8595 280.464 32.6118C280.095 34.084 279.614 35.5082 278.988 36.8363C276.454 37.8285 273.84 38.7406 271.129 39.6047C267.232 35.0441 266.43 26.019 267.264 19.1222L266.398 18.9622C262.244 25.0429 260.928 33.6679 260.848 40.9168C258.603 41.0448 256.438 40.9008 254.369 40.5008C252.508 35.1081 251.032 27.4592 251.866 19.2662L251 19.1062C247.52 24.4508 246.028 31.8757 245.595 38.7246C241.97 36.8203 239.003 34.02 236.662 30.8676C237.383 20.1303 244.248 9.31299 251.77 4.01635L250.984 3.31226C247.199 4.72043 243.767 6.80068 240.687 9.61703C240.27 7.10472 240.206 4.24037 240.35 2.89621L238.923 3.71231C237.961 6.8967 237.014 10.8652 236.678 13.9696C234.881 16.2738 233.245 18.9302 231.786 21.9385C230.246 17.906 229.524 14.0496 229.556 11.3132L228.626 12.3854C226.83 21.0904 225.081 40.3408 246.365 49.1098C246.076 49.6219 245.772 50.182 245.515 50.662C241.634 49.2378 238.057 47.0936 234.817 44.1332C233.855 52.1502 235.988 60.6952 241.249 65.7358C238.65 69.8323 236.742 74.0248 235.186 79.0495L239.164 91.2429H245.307C245.339 108.013 253.326 121.103 266.542 129.392C271.659 110.109 282.597 96.0275 297.417 84.8902L290.921 65.0958C295.46 56.1507 297.176 47.9257 297.225 40.1167C293.52 42.8531 289.494 45.2213 285.083 47.1736L284.522 45.4454C304.891 35.9242 309.96 22.7866 310.377 11.5053Z" fill="#002855" />
    <path d="M278.911 62.8392H288.165C290.491 59.0307 292.945 51.9898 293.41 46.4532C287.86 49.9256 281.333 52.4699 275.077 54.2621L277.146 47.9253C272.495 49.5895 265.133 51.2857 259.215 51.1897L257.274 45.125L252.751 50.7257C251.725 50.5817 250.682 50.3736 249.608 50.1176C247.715 53.046 245.903 57.8465 244.86 61.911H248.132C243.978 66.7596 240.786 72.6323 238.669 79.0491H248.357L249.367 82.1375L243.93 84.2177L239.968 83.0016L241.588 87.9622H251.276C256.424 81.3534 262.439 76.7768 270.25 74.3925C272.784 71.9283 274.131 68.6799 274.548 64.7754C276.81 69.1439 275.27 73.0644 272.623 77.2729C265.053 78.9211 257.868 84.1057 253.28 91.2426H248.645C249.062 105.244 254.548 116.734 264.796 124.079C270.137 106.828 281.044 93.5629 293.586 83.7377L288.422 67.9438L278.911 62.8392ZM258.541 65.9915L253.152 69.848L256.103 64.6314L253.361 61.895C260.386 61.895 265.855 60.3428 270.089 57.0785C268.437 61.895 264.732 65.9915 258.541 65.9915ZM285.423 59.0307H278.317L278.622 58.2306C282.102 57.0624 284.765 55.8943 287.347 54.3741C286.978 55.9103 286.112 57.8465 285.423 59.0307ZM237.723 50.2136C239.599 51.5578 242.133 52.7419 244.363 53.478C243.368 55.4943 242.358 58.4386 241.813 61.895C239.022 59.3507 237.546 54.4061 237.723 50.2136Z" fill="#E4002B" />
    <path d="M264.362 98.5871C264.939 95.9307 265.87 93.4825 267.105 91.2422H248.596C248.676 93.7385 248.916 96.1548 249.317 98.4431L252.445 97.1789C253.439 103.804 256.134 109.82 260.448 115.277C259.005 109.276 258.668 103.228 259.422 97.1789L264.362 98.5871Z" fill="white" />
    <path d="M239.934 83.0026L241.554 87.9632H251.241C252.829 85.915 254.272 84.3468 256.053 82.6346L253.871 75.9458H247.328L245.868 71.4492L239.789 75.9458C239.34 77.0659 239.051 77.882 238.667 79.0501H248.354L249.364 82.1385L243.927 84.2188L239.934 83.0026Z" fill="white" />
    <path d="M244.845 61.8955H248.117L245.583 59.3672C245.326 60.1833 245.054 61.0314 244.845 61.8955Z" fill="white" />
    <path d="M259.472 59.6384L258.878 57.8302L253.361 61.8947C260.386 61.8947 265.855 60.3425 270.089 57.0781L259.472 59.6384Z" fill="white" />
    <path fill-rule="evenodd" clip-rule="evenodd" d="M301.575 27.011C300.981 21.2183 298.848 16.6577 295.143 13.3613C297.357 17.4418 299.843 22.3704 299.265 29.1552C295.239 32.6277 290.187 35.748 284.686 38.2763C285.007 34.5159 284.766 30.4834 283.9 26.947C283.788 31.0915 282.97 35.9401 281.173 39.7965C277.003 41.4767 272.673 42.8209 268.39 43.733C265.984 40.6126 265.215 35.652 264.541 30.9795C263.771 35.316 263.771 42.1328 265.567 47.1734C281.687 44.4051 300.067 35.572 304.831 23.2345C303.884 24.5147 302.794 25.7788 301.575 27.011Z" fill="white" />
    <path fill-rule="evenodd" clip-rule="evenodd" d="M251.901 43.3648C250.265 39.5563 249.447 34.5637 249.286 29.7951C248.805 31.9394 248.083 38.1961 248.709 43.2047C241.924 40.9005 237.305 37.028 234.097 32.3234C234.418 24.3705 236.776 19.9699 238.38 15.8574C235.749 18.5778 233.295 23.5384 232.189 29.107C231.242 27.2828 230.456 25.3786 229.815 23.4103C230.216 32.3714 234.707 41.6845 248.917 46.6131C249.96 45.413 251.067 44.1969 251.901 43.3648Z" fill="white" />
    <path fill-rule="evenodd" clip-rule="evenodd" d="M49.6599 65C62.9406 65 64.8194 65 64.8194 65C64.8194 65 64.64 66.0772 64.5472 66.65C64.4734 67.105 64.352 67.9512 64.2806 68.5358C64.1902 69.2642 63.945 69.7945 63.5 70.2236C63.143 70.5701 62.586 70.8883 61.6626 71.0109L61.5959 84.5648L61.6583 99H54.7799L54.7175 79.5958L51.752 79.6146L51.8143 99H44.9455L44.8831 79.6146H41.7891L41.8514 99H34.9492L34.8869 80.7932L36.6052 79.1643H34.6475L34.0015 73.4859H34H54.8794V71.1287H45.3591H35.4768L34.9492 65H49.6599Z" fill="#002763" />
    <path fill-rule="evenodd" clip-rule="evenodd" d="M70.1743 74.0137H88.0815V97.0512C88.0815 97.5369 87.8864 98.0028 87.539 98.3469C87.1928 98.6898 86.7233 98.8839 86.2328 98.887L76.7095 98.9481H66.0092V87.3318C66.0092 87.3318 65.9422 76.2719 66.1587 75.6637C66.3539 75.1168 66.73 74.6996 67.2702 74.4262C68.0104 74.0561 70.1743 74.0137 70.1743 74.0137ZM72.7729 81.2998V92.7534H81.5363V80.1424H71.5829L72.7729 81.2998Z" fill="#002763" />
    <path fill-rule="evenodd" clip-rule="evenodd" d="M196.093 74.0137H214V97.0512C214 97.5369 213.805 98.0028 213.457 98.3469C213.111 98.6898 212.642 98.8839 212.151 98.887L202.628 98.9481H191.928V87.3318C191.928 87.3318 191.861 76.2719 192.077 75.6637C192.272 75.1168 192.649 74.6996 193.189 74.4262C193.929 74.0561 196.093 74.0137 196.093 74.0137ZM198.691 81.2998V92.7534H207.455V80.1424H197.501L198.691 81.2998Z" fill="#002763" />
    <path fill-rule="evenodd" clip-rule="evenodd" d="M103.257 74.0158H113.135V83.4446C113.135 83.4446 112.544 90.8886 112.394 91.3412C112.206 91.9093 111.861 92.2959 111.287 92.5788C110.561 92.9394 109.812 92.9936 98.6729 92.9913L98.6943 99H92.0183L91.9968 87.0393C91.9873 76.2316 92.0087 75.6376 92.4371 75.0765C92.6847 74.7536 93.144 74.3576 93.4606 74.1973C93.8842 73.9804 103.257 74.0158 103.257 74.0158ZM98.6943 80.8993V84.0245L98.6729 86.8626L106.17 86.8696C106.458 84.7646 106.62 83.223 106.713 82.0892L106.884 80.0243L97.5257 80.0267L98.6943 80.8993Z" fill="#002763" />
    <path fill-rule="evenodd" clip-rule="evenodd" d="M136.752 74.0188C137.356 74.0155 137.936 74.2514 138.362 74.6736C138.78 75.0875 139.016 75.6471 139.02 76.2314L139.081 86.8062V99H132.231V80.0245H124.615V99H117.908V81.1277L119.233 79.7299H116.925L116.347 74.1292L136.752 74.0188Z" fill="#002763" />
    <path fill-rule="evenodd" clip-rule="evenodd" d="M153.831 74.0137H160.751C161.775 74.0137 162.623 74.7872 162.658 75.8103C162.679 76.3926 162.694 77.112 162.692 77.962C162.69 79.744 162.337 83.796 162.337 83.796C162.337 83.796 161.828 88.4091 161.671 88.864C161.478 89.425 161.121 89.8211 160.555 90.1016C159.846 90.4528 159.02 90.5141 150.32 90.5141L150.44 92.9891H161.388V99H152.327H143.723V87.214V76.2563C143.723 75.7217 143.914 75.2048 144.261 74.7986C144.687 74.3004 145.31 74.0137 145.966 74.0137H153.831ZM149.666 80.7246L150.32 81.3186V84.3853L155.438 84.3924C155.711 82.4689 155.792 81.5119 155.792 81.0263L155.795 80.1424L149.011 80.1259L149.666 80.7246Z" fill="#002763" />
    <path fill-rule="evenodd" clip-rule="evenodd" d="M187.679 65V97.1043C187.677 97.5885 187.482 98.0634 187.135 98.4065C186.788 98.7505 186.317 98.9452 185.825 98.9481H166.468L166.633 79.2611C166.833 77.3164 167.154 75.3811 167.347 74.9592C167.566 74.4783 168.004 74.0611 168.527 73.8395C169.191 73.5566 170.536 73.4859 181.023 73.4859V71.1287H174.12C168.304 71.1287 167.161 71.0745 166.861 70.7751C166.664 70.5819 166.497 70.1293 166.49 69.7733C166.48 69.4174 166.378 67.3572 166.378 67.3572V65H187.679ZM173.168 81.0263V92.2257H181.025L181.023 79.6146H172.341L173.168 81.0263Z" fill="#002763" />
</svg>