<svg xmlns="http://www.w3.org/2000/svg" width="28" height="28" viewBox="0 0 28 28" fill="none">
    <path d="M14 27.25C21.3178 27.25 27.25 21.3178 27.25 14C27.25 6.68223 21.3178 0.75 14 0.75C6.68223 0.75 0.75 6.68223 0.75 14C0.75 21.3178 6.68223 27.25 14 27.25Z" fill="#EC2D38" />
    <path d="M7.79155 17.1226C7.79155 18.3241 7.79155 19.4756 7.79155 20.6271C7.79155 21.2634 7.79154 21.2647 7.16339 21.2661C6.8749 21.2661 6.58663 21.2661 6.29859 21.2661C5.72588 21.2661 5.72453 21.2661 5.72453 20.7049C5.72453 17.0743 5.72453 13.4436 5.72453 9.81262C5.72755 9.76038 5.72755 9.70798 5.72453 9.65574C5.68937 9.3562 5.81377 9.20813 6.12278 9.2318C6.14847 9.2318 6.1755 9.2318 6.20119 9.2318C7.25871 9.23856 7.06332 9.14118 7.28307 10.0871C7.30877 10.1987 7.29996 10.3542 7.4122 10.3995C7.55623 10.4577 7.59613 10.2879 7.66713 10.2068C8.33872 9.54296 9.22022 9.13328 10.1607 9.04792C11.1011 8.96256 12.042 9.20684 12.8221 9.73892C13.2928 10.0765 13.6884 10.5079 13.984 11.006C14.2796 11.5041 14.4688 12.058 14.5396 12.6329C14.689 13.3541 14.6825 14.0989 14.5206 14.8174C14.3586 15.5358 14.0448 16.2114 13.6004 16.7987C13.2652 17.2141 12.8479 17.5559 12.3745 17.8027C11.9012 18.0495 11.3821 18.1959 10.8495 18.2329C10.317 18.2699 9.7826 18.1966 9.27969 18.0177C8.77678 17.8387 8.3162 17.558 7.92675 17.1929C7.88369 17.1658 7.83849 17.1422 7.79155 17.1226V17.1226ZM9.78689 16.4721C11.1122 16.4856 11.8208 16.015 12.2407 15.1347C12.4521 14.7036 12.5693 14.2325 12.5844 13.7526C12.5996 13.2727 12.5124 12.7951 12.3286 12.3516C12.1715 11.8737 11.859 11.462 11.441 11.1822C11.0229 10.9023 10.5232 10.7703 10.0215 10.8072C9.53228 10.8153 9.05842 10.9795 8.66915 11.276C8.27988 11.5724 7.99559 11.9856 7.85779 12.4551C7.57631 13.2535 7.58878 14.1262 7.89295 14.9163C8.01429 15.3367 8.26025 15.7105 8.59837 15.9882C8.9365 16.266 9.35091 16.4347 9.78689 16.4721V16.4721Z" fill="white" />
    <path d="M18.9272 9.03911C20.0374 9.02199 21.1411 9.21232 22.1815 9.60032C22.4655 9.70985 22.5487 9.85049 22.406 10.1324C22.2518 10.4363 22.113 10.7477 21.9902 11.0655C21.8874 11.3313 21.7731 11.384 21.4959 11.2501C20.5447 10.7613 19.4655 10.579 18.4066 10.7282C18.2239 10.751 18.0473 10.8089 17.8866 10.8986C17.7743 10.9548 17.6795 11.0404 17.6123 11.1464C17.545 11.2524 17.5079 11.3747 17.5048 11.5002C17.5018 11.6257 17.5329 11.7496 17.5949 11.8587C17.6569 11.9679 17.7474 12.0581 17.8568 12.1197C18.2589 12.3401 18.6921 12.4985 19.1415 12.5896C19.8061 12.7408 20.4586 12.9411 21.0936 13.1887C21.6679 13.3801 22.1509 13.7774 22.4495 14.3039C22.748 14.8305 22.841 15.449 22.7103 16.0401C22.6478 16.4876 22.4538 16.9065 22.1528 17.2436C21.8518 17.5806 21.4575 17.8207 21.0199 17.9333C19.2964 18.4732 17.4292 18.3083 15.827 17.4749C15.4788 17.3004 15.4078 17.0915 15.6289 16.7629C15.7594 16.5659 15.868 16.3553 15.9527 16.1347C16.0765 15.8183 16.2273 15.7595 16.543 15.9319C17.3634 16.3822 18.287 16.6108 19.2227 16.5952C19.5249 16.5946 19.8246 16.5392 20.1071 16.4316C20.2661 16.3857 20.4075 16.2927 20.5127 16.1649C20.6178 16.0371 20.6817 15.8804 20.696 15.7155C20.704 15.5567 20.6613 15.3994 20.5742 15.2663C20.4871 15.1333 20.36 15.0313 20.2112 14.9751C19.7138 14.7392 19.1924 14.5578 18.656 14.4342C18.0329 14.2767 17.4271 14.0577 16.8473 13.7803C16.4172 13.5909 16.0554 13.2741 15.8109 12.8727C15.5663 12.4713 15.4506 12.0046 15.4794 11.5355C15.4855 11.0315 15.6524 10.5426 15.9557 10.14C16.259 9.73745 16.683 9.44224 17.1658 9.2974C17.7289 9.09103 18.3285 9.00311 18.9272 9.03911V9.03911Z" fill="white" />
</svg>