<svg width="36" height="36" viewBox="0 0 36 36" fill="none" xmlns="http://www.w3.org/2000/svg">
<path d="M28.3367 8.55359H30.8318C30.9736 8.55359 31.1096 8.49726 31.2098 8.39699C31.3101 8.29672 31.3664 8.16073 31.3664 8.01893C31.3664 7.87713 31.3101 7.74114 31.2098 7.64088C31.1096 7.54061 30.9736 7.48428 30.8318 7.48428H27.2674C27.1256 7.48428 26.9896 7.54061 26.8894 7.64088C26.7891 7.74114 26.7328 7.87713 26.7328 8.01893V11.5833C26.7328 11.7251 26.7891 11.8611 26.8894 11.9613C26.9896 12.0616 27.1256 12.1179 27.2674 12.1179C27.4092 12.1179 27.5452 12.0616 27.6455 11.9613C27.7458 11.8611 27.8021 11.7251 27.8021 11.5833V9.55517C29.8823 11.9447 31.0225 15.0092 31.01 18.1773C31.01 20.7857 30.2365 23.3355 28.7874 25.5043C27.3383 27.673 25.2786 29.3634 22.8688 30.3616C20.4589 31.3598 17.8073 31.6209 15.249 31.1121C12.6908 30.6032 10.3409 29.3471 8.49648 27.5028C6.65209 25.6584 5.39604 23.3085 4.88717 20.7502C4.37831 18.192 4.63947 15.5403 5.63765 13.1305C6.63583 10.7207 8.32618 8.66096 10.495 7.21183C12.6637 5.7627 15.2135 4.98923 17.8219 4.98923C17.9637 4.98923 18.0997 4.9329 18.1999 4.83263C18.3002 4.73237 18.3565 4.59637 18.3565 4.45458C18.3565 4.31278 18.3002 4.17679 18.1999 4.07652C18.0997 3.97625 17.9637 3.91992 17.8219 3.91992C15.002 3.91992 12.2455 4.75611 9.90088 6.32273C7.55626 7.88936 5.72885 10.1161 4.64974 12.7213C3.57063 15.3265 3.28829 18.1932 3.83841 20.9588C4.38854 23.7245 5.74643 26.2649 7.74036 28.2589C9.7343 30.2528 12.2747 31.6107 15.0404 32.1608C17.8061 32.7109 20.6728 32.4286 23.278 31.3495C25.8832 30.2704 28.1099 28.443 29.6765 26.0984C31.2431 23.7537 32.0793 20.9972 32.0793 18.1773C32.0924 14.6118 30.7553 11.1735 28.3367 8.55359Z" fill="#EC2D38"/>
<path d="M8.19824 18.3567C8.19824 20.2953 8.77312 22.1904 9.85017 23.8024C10.9272 25.4143 12.4581 26.6706 14.2492 27.4125C16.0402 28.1544 18.0111 28.3485 19.9125 27.9703C21.8139 27.5921 23.5604 26.6585 24.9313 25.2877C26.3021 23.9169 27.2356 22.1703 27.6139 20.2689C27.9921 18.3675 27.798 16.3967 27.0561 14.6056C26.3142 12.8145 25.0578 11.2837 23.4459 10.2066C21.834 9.12956 19.9389 8.55469 18.0002 8.55469C15.4014 8.55752 12.9099 9.59113 11.0723 11.4287C9.23469 13.2664 8.20107 15.7579 8.19824 18.3567ZM26.7329 18.3567C26.7329 20.0838 26.2207 21.7722 25.2612 23.2083C24.3016 24.6444 22.9378 25.7636 21.3421 26.4246C19.7464 27.0856 17.9905 27.2585 16.2966 26.9215C14.6026 26.5846 13.0466 25.7529 11.8253 24.5316C10.604 23.3103 9.7723 21.7543 9.43534 20.0603C9.09839 18.3664 9.27133 16.6105 9.93228 15.0148C10.5932 13.4191 11.7125 12.0553 13.1486 11.0957C14.5847 10.1362 16.2731 9.62399 18.0002 9.62399C20.3154 9.62682 22.5349 10.5478 24.172 12.1849C25.8091 13.8219 26.7301 16.0415 26.7329 18.3567Z" fill="#EC2D38"/>
<path d="M17.4653 12.2964V18.3558C17.4654 18.4615 17.4968 18.5647 17.5556 18.6526C17.6143 18.7404 17.6978 18.8089 17.7954 18.8493C17.8931 18.8897 18.0005 18.9003 18.1042 18.8797C18.2078 18.8591 18.303 18.8083 18.3778 18.7336L23.0115 14.0999C23.1059 13.9986 23.1573 13.8645 23.1549 13.726C23.1524 13.5875 23.0963 13.4554 22.9984 13.3574C22.9004 13.2594 22.7683 13.2033 22.6297 13.2009C22.4912 13.1984 22.3572 13.2499 22.2558 13.3443L18.5346 17.0655V12.2964C18.5346 12.1546 18.4783 12.0186 18.378 11.9183C18.2778 11.818 18.1418 11.7617 18 11.7617C17.8582 11.7617 17.7222 11.818 17.6219 11.9183C17.5217 12.0186 17.4653 12.1546 17.4653 12.2964Z" fill="#EC2D38"/>
</svg>
