<svg width="36" height="36" viewBox="0 0 36 36" fill="none" xmlns="http://www.w3.org/2000/svg">
<path d="M32.4958 23.8994H26.8055V19.5213H32.4094C32.7064 19.5213 32.9475 19.2803 32.9475 18.9832V12.9525C32.9475 12.6551 32.7064 12.4144 32.4094 12.4144H26.8604V7.25287C26.8604 6.95548 26.6193 6.71476 26.3223 6.71476H12.182V4.23732C12.182 3.93993 11.9413 3.69922 11.6439 3.69922H3.37819C3.0808 3.69922 2.84009 3.93993 2.84009 4.23732V10.2684C2.84009 10.5658 3.0808 10.8065 3.37819 10.8065H6.97274V14.2992L7.08467 20.3199V23.8025H3.49048C3.19309 23.8025 2.95237 24.0436 2.95237 24.3406V30.3717C2.95237 30.6687 3.19309 30.9098 3.49048 30.9098H11.7561C12.0535 30.9098 12.2942 30.6687 12.2942 30.3717V24.3406C12.2942 24.0436 12.0535 23.8025 11.7561 23.8025H8.16124V20.3098L8.04931 14.2891V10.8065H11.6442C11.9416 10.8065 12.1823 10.5658 12.1823 10.2684V7.79098H25.7846V12.4144H16.4509C16.1535 12.4144 15.9128 12.6551 15.9128 12.9525V18.9832C15.9128 19.2803 16.1535 19.5213 16.4509 19.5213H25.7293V23.8994H16.3738C16.0764 23.8994 15.8357 24.1404 15.8357 24.4375V30.4686C15.8357 30.7656 16.0764 31.0067 16.3738 31.0067H32.4958C32.7929 31.0067 33.0339 30.7656 33.0339 30.4686V24.4375C33.0339 24.1404 32.7929 23.8994 32.4958 23.8994ZM11.218 29.8336H4.02858V24.8787H11.218V29.8336ZM11.1058 9.73031H3.9163V4.77543H11.1058V9.73031ZM16.989 13.4906H31.8713V18.4451H16.989V13.4906ZM31.9577 29.9304H16.9119V24.9756H31.9577V29.9304Z" fill="#EC2D38"/>
</svg>
