<svg width="36" height="36" viewBox="0 0 36 36" fill="none" xmlns="http://www.w3.org/2000/svg">
<path d="M31.1401 6.11914H4.86007C4.71685 6.11914 4.5795 6.17603 4.47823 6.2773C4.37696 6.37857 4.32007 6.51592 4.32007 6.65914V23.9391C4.32007 24.0824 4.37696 24.2197 4.47823 24.321C4.5795 24.4222 4.71685 24.4791 4.86007 24.4791H12.3877L6.62767 30.2391C6.52654 30.3404 6.46974 30.4776 6.46974 30.6207C6.46974 30.7638 6.52654 30.9011 6.62767 31.0023L8.95687 33.3315C9.05812 33.4327 9.19537 33.4895 9.33847 33.4895C9.48157 33.4895 9.61882 33.4327 9.72007 33.3315L18.5725 24.4791H31.1401C31.2833 24.4791 31.4206 24.4222 31.5219 24.321C31.6232 24.2197 31.6801 24.0824 31.6801 23.9391V6.65914C31.6801 6.51592 31.6232 6.37857 31.5219 6.2773C31.4206 6.17603 31.2833 6.11914 31.1401 6.11914ZM9.36007 32.1759L7.78327 30.5991L20.3113 18.0711L22.9537 16.9911L21.8737 19.6335L9.36007 32.1759ZM30.6001 23.3991H19.6525L22.7197 20.3319C22.7706 20.2817 22.811 20.2217 22.8385 20.1555L24.4405 16.2243C24.4886 16.1236 24.5043 16.0104 24.4854 15.9003C24.4665 15.7902 24.414 15.6887 24.335 15.6098C24.2561 15.5308 24.1546 15.4783 24.0445 15.4594C23.9344 15.4405 23.8212 15.4562 23.7205 15.5043L19.8001 17.1207C19.734 17.1483 19.6741 17.1887 19.6237 17.2395L13.4677 23.3991H5.40007V7.19914H30.6001V23.3991Z" fill="#EC2D38"/>
<path d="M26.6401 14.3994C27.1385 14.3994 27.6257 14.2516 28.0402 13.9747C28.4546 13.6978 28.7776 13.3042 28.9683 12.8437C29.159 12.3833 29.2089 11.8766 29.1117 11.3877C29.0145 10.8989 28.7745 10.4499 28.422 10.0975C28.0696 9.74504 27.6206 9.50503 27.1317 9.4078C26.6429 9.31056 26.1362 9.36047 25.6758 9.5512C25.2153 9.74193 24.8217 10.0649 24.5448 10.4793C24.2679 10.8938 24.1201 11.381 24.1201 11.8794C24.1201 12.5477 24.3856 13.1887 24.8582 13.6613C25.3308 14.1339 25.9718 14.3994 26.6401 14.3994ZM26.6401 10.4394C26.9249 10.4394 27.2033 10.5238 27.4401 10.6821C27.6769 10.8403 27.8615 11.0652 27.9705 11.3283C28.0795 11.5914 28.108 11.881 28.0524 12.1603C27.9969 12.4396 27.8597 12.6962 27.6584 12.8976C27.457 13.099 27.2004 13.2361 26.921 13.2917C26.6417 13.3473 26.3522 13.3188 26.0891 13.2098C25.8259 13.1008 25.601 12.9162 25.4428 12.6794C25.2846 12.4426 25.2001 12.1642 25.2001 11.8794C25.2001 11.4975 25.3518 11.1312 25.6219 10.8611C25.8919 10.5911 26.2582 10.4394 26.6401 10.4394Z" fill="#EC2D38"/>
<path d="M7.55999 21.2408H12.2796C12.4228 21.2408 12.5602 21.1839 12.6614 21.0826C12.7627 20.9814 12.8196 20.844 12.8196 20.7008C12.8196 20.5576 12.7627 20.4202 12.6614 20.319C12.5602 20.2177 12.4228 20.1608 12.2796 20.1608H8.55719L14.8572 10.5272L17.9064 15.1892C17.9439 15.2512 17.9936 15.3049 18.0523 15.3473C18.1111 15.3897 18.1778 15.4198 18.2485 15.4359C18.3191 15.4519 18.3923 15.4536 18.4636 15.4408C18.5349 15.428 18.6029 15.401 18.6635 15.3614C18.7242 15.3217 18.7763 15.2703 18.8166 15.2101C18.857 15.15 18.8848 15.0823 18.8985 15.0111C18.9122 14.94 18.9114 14.8668 18.8962 14.796C18.8809 14.7251 18.8516 14.6581 18.81 14.5988L15.3108 9.2456C15.2586 9.17489 15.1905 9.11742 15.112 9.07782C15.0336 9.03821 14.9469 9.01758 14.859 9.01758C14.7711 9.01758 14.6844 9.03821 14.6059 9.07782C14.5275 9.11742 14.4594 9.17489 14.4072 9.2456L7.10639 20.4056C7.05313 20.4872 7.02293 20.5816 7.019 20.679C7.01506 20.7763 7.03753 20.8729 7.08402 20.9585C7.13052 21.0441 7.19931 21.1156 7.2831 21.1653C7.36689 21.215 7.46257 21.2411 7.55999 21.2408Z" fill="#EC2D38"/>
</svg>
