<svg width="36" height="36" viewBox="0 0 36 36" fill="none" xmlns="http://www.w3.org/2000/svg">
<path d="M32.7836 2.96484H12.9659C12.6685 2.96484 12.4278 3.20556 12.4278 3.50295V11.6233H3.51857C3.22118 11.6233 2.98047 11.864 2.98047 12.1614V27.9197C2.98047 28.2167 3.22118 28.4578 3.51857 28.4578H8.22808L12.6535 33.1379C12.7571 33.2477 12.8996 33.3065 13.0445 33.3065C13.1112 33.3065 13.1787 33.2943 13.2432 33.2685C13.4481 33.187 13.5822 32.9894 13.5826 32.7687L13.5847 28.4578H24.2991C24.5962 28.4578 24.8373 28.2167 24.8373 27.9197V19.7993H32.7833C33.0803 19.7993 33.3214 19.5582 33.3214 19.2612V3.50295C33.3218 3.20556 33.0807 2.96484 32.7836 2.96484ZM23.761 27.3816H13.047C12.75 27.3816 12.5089 27.6223 12.5089 27.9193L12.5071 31.4167L8.85085 27.5502C8.74932 27.4426 8.60798 27.3816 8.45982 27.3816H4.05668V12.6995H12.4278V19.2612C12.4278 19.5582 12.6685 19.7993 12.9659 19.7993H16.9691V23.7641C16.9691 23.9807 17.0989 24.1763 17.2987 24.2602C17.3662 24.2885 17.4369 24.3022 17.5068 24.3022C17.6453 24.3022 17.7813 24.2491 17.8839 24.1479L22.3143 19.7993H23.761V27.3816ZM32.2455 18.7231H22.0943C21.9534 18.7231 21.8178 18.7783 21.7173 18.8774L18.0453 22.4816V19.2608C18.0453 18.9638 17.8046 18.7227 17.5072 18.7227H13.504V4.04106H32.2455V18.7231Z" fill="#EC2D38"/>
<path d="M17.9402 9.37452C17.9424 9.37452 17.9449 9.37452 17.947 9.37452C18.8647 9.37093 19.608 8.62153 19.6044 7.70424C19.6008 6.7891 18.855 6.04688 17.9406 6.04688C17.9384 6.04688 17.9359 6.04688 17.9337 6.04688C17.0161 6.05046 16.2728 6.79986 16.2764 7.71716C16.2803 8.63265 17.0258 9.37452 17.9402 9.37452ZM17.9381 7.12309C17.9388 7.12309 17.9395 7.12309 17.9406 7.12309C18.2634 7.12309 18.5267 7.38497 18.5282 7.70819C18.5289 7.86531 18.4683 8.01311 18.3574 8.12432C18.2469 8.23589 18.0995 8.29723 17.9427 8.29795C17.7845 8.30261 17.6378 8.23804 17.5266 8.12755C17.415 8.01706 17.3537 7.86962 17.353 7.71285C17.3515 7.38891 17.6141 7.12452 17.9381 7.12309Z" fill="#EC2D38"/>
<path d="M23.261 9.37452C23.2632 9.37452 23.2657 9.37452 23.2678 9.37452C24.1855 9.37093 24.9288 8.62153 24.9252 7.70424C24.9216 6.7891 24.1758 6.04688 23.2614 6.04688C23.2592 6.04688 23.2567 6.04688 23.2545 6.04688C22.3369 6.05046 21.5936 6.79986 21.5972 7.71716C21.599 8.16163 21.7737 8.57884 22.0894 8.89166C22.4033 9.2034 22.819 9.37452 23.261 9.37452ZM23.2589 7.12309C23.2596 7.12309 23.2606 7.12309 23.2614 7.12309C23.5842 7.12309 23.8475 7.38497 23.849 7.70819C23.8497 7.86531 23.7891 8.01311 23.6782 8.12432C23.5677 8.23589 23.4203 8.29723 23.2635 8.29795C23.2628 8.29795 23.2617 8.29795 23.261 8.29795C23.105 8.29795 22.9582 8.23768 22.8474 8.12755C22.7358 8.0167 22.6745 7.86962 22.6738 7.71249C22.672 7.38891 22.9349 7.12452 23.2589 7.12309Z" fill="#EC2D38"/>
</svg>
