<svg width="333" height="132" viewBox="0 0 333 132" fill="none" xmlns="http://www.w3.org/2000/svg">
<g clip-path="url(#clip0_30_14765)">
<path d="M167.012 59.0144H175.41V78.811H182.277V59.0144H190.682V53.1875H167.012V59.0144Z" fill="#004268"/>
<path d="M298.258 53.1875V63.5052H287.864V53.1875H281.122V78.811H287.864V69.5325H298.258V78.811H305V53.1875H298.258Z" fill="#004268"/>
<path d="M121.61 53.1875L110.213 78.811H117.2L118.952 74.5652H130.743L132.487 78.811H139.556L128.144 53.1875H121.61ZM121.15 69.2356L124.862 60.254L128.575 69.2356H121.15Z" fill="#004268"/>
<path d="M159.885 65.1902C161.021 64.8017 161.998 64.0525 162.668 63.0567C163.339 62.061 163.665 60.8733 163.597 59.675C163.641 55.2213 160.56 53.1875 154.947 53.1875H141.999V78.811H154.353C160.345 78.811 164.458 76.9776 164.458 71.1136C164.513 69.7465 164.084 68.4039 163.248 67.3209C162.412 66.2379 161.221 65.4836 159.885 65.1902ZM148.651 58.3835H154.353C156.224 58.3835 157.182 59.341 157.182 60.8404C157.182 62.3398 156.224 63.2974 154.353 63.2974L148.636 63.2528L148.651 58.3835ZM154.591 73.6076H148.599V68.0331H154.576C156.692 68.0331 157.776 69.1168 157.776 70.8241C157.776 72.5313 156.729 73.6076 154.606 73.6076H154.591Z" fill="#004268"/>
<path d="M206.474 52.5195C197.283 52.5195 192.665 58.5914 192.665 65.9548C192.665 73.3182 197.283 79.4346 206.474 79.4346C215.666 79.4346 220.247 73.3182 220.247 65.9548C220.247 58.5914 215.688 52.5195 206.474 52.5195ZM206.474 73.1104C202.235 73.1104 199.532 70.2377 199.532 65.9548C199.532 61.6718 202.25 58.8438 206.474 58.8438C210.699 58.8438 213.387 61.6718 213.387 65.9548C213.387 70.2377 210.692 73.1104 206.474 73.1104Z" fill="#004268"/>
<path d="M237.859 62.0429H231.718V58.762H244.34L246.835 53.1875H225.036V78.811H237.064C243.056 78.811 247.251 76.5842 247.251 70.2377C247.258 65.1679 244.14 62.0429 237.859 62.0429ZM237.027 73.3998H231.718V67.0978H237.168C239.581 67.0978 240.702 68.2632 240.702 70.2599C240.702 72.2567 239.648 73.3998 237.027 73.3998Z" fill="#004268"/>
<path d="M260.868 53.1875L249.463 78.811H256.457L258.21 74.5652H269.978L271.723 78.811H278.798L267.394 53.1875H260.868ZM260.407 69.2356L264.12 60.254L267.832 69.2356H260.407Z" fill="#004268"/>
<path d="M87.6795 82.368L81.8288 69.237L96.0694 63.4844L87.6795 82.368ZM28.0073 91.0007H73.8547L66.8904 75.3015L28.0073 91.0007Z" fill="#F37021"/>
<path d="M91.5107 91L69.2441 41H67.9299H50.2666L28 91L49.539 82.3005L59.7554 59.364L73.8474 91H91.5107Z" fill="#004268"/>
</g>
<defs>
<clipPath id="clip0_30_14765">
<rect width="277" height="50" fill="white" transform="translate(28 41)"/>
</clipPath>
</defs>
</svg>
