<svg xmlns="http://www.w3.org/2000/svg" width="155" height="30" viewBox="0 0 155 30" fill="none">
    <path d="M0 29.6078V0.392157H10.4232C12.6829 0.392157 14.5572 0.810458 16.0462 1.64706C17.5353 2.47059 18.652 3.60131 19.3966 5.03922C20.1411 6.46405 20.5133 8.0719 20.5133 9.86275C20.5133 11.6536 20.1411 13.268 19.3966 14.7059C18.652 16.1307 17.5287 17.2614 16.0266 18.098C14.5376 18.9216 12.6567 19.3333 10.384 19.3333H3.25235V15.6078H9.97257C11.4224 15.6078 12.5914 15.3595 13.4796 14.8627C14.3809 14.366 15.034 13.6863 15.4389 12.8235C15.8568 11.9477 16.0658 10.9608 16.0658 9.86275C16.0658 8.75163 15.8568 7.77124 15.4389 6.92157C15.034 6.05882 14.3809 5.38562 13.4796 4.90196C12.5784 4.4183 11.4028 4.17647 9.95298 4.17647H4.40831V29.6078H0Z" fill="#333533" />
    <path d="M35.3652 30C32.8574 30 30.6108 29.3987 28.6254 28.1961C26.64 26.9935 25.0726 25.2745 23.9232 23.0392C22.7738 20.7908 22.1991 18.1176 22.1991 15.0196C22.1991 11.8954 22.7738 9.21569 23.9232 6.98039C25.0726 4.73203 26.64 3.00654 28.6254 1.80392C30.6108 0.601307 32.8574 0 35.3652 0C37.8992 0 40.1523 0.601307 42.1246 1.80392C44.0969 3.00654 45.6513 4.73203 46.7876 6.98039C47.937 9.21569 48.5118 11.8954 48.5118 15.0196C48.5118 18.1307 47.937 20.8039 46.7876 23.0392C45.6513 25.2745 44.0969 26.9935 42.1246 28.1961C40.1523 29.3987 37.8992 30 35.3652 30ZM35.3652 25.9804C37.0502 25.9804 38.5522 25.5621 39.8715 24.7255C41.1907 23.8889 42.2291 22.6536 42.9867 21.0196C43.7573 19.3856 44.1426 17.3856 44.1426 15.0196C44.1426 12.6405 43.7573 10.634 42.9867 9C42.2291 7.35294 41.1907 6.11111 39.8715 5.27451C38.5522 4.43791 37.0502 4.01961 35.3652 4.01961C33.6933 4.01961 32.1912 4.43791 30.8589 5.27451C29.5397 6.11111 28.4948 7.35294 27.7241 9C26.9535 10.634 26.5682 12.6405 26.5682 15.0196C26.5682 17.3856 26.9535 19.3856 27.7241 21.0196C28.4948 22.6536 29.5397 23.8889 30.8589 24.7255C32.1912 25.5621 33.6933 25.9804 35.3652 25.9804Z" fill="#333533" />
    <path d="M63.6771 30C61.1693 30 58.9227 29.3987 56.9373 28.1961C54.9519 26.9935 53.3911 25.2745 52.2547 23.0392C51.1183 20.7908 50.5502 18.1176 50.5502 15.0196C50.5502 11.8954 51.1183 9.21569 52.2547 6.98039C53.4041 4.73203 54.965 3.00654 56.9373 1.80392C58.9227 0.601307 61.1693 0 63.6771 0C65.2184 0 66.6617 0.222222 68.007 0.666667C69.3655 1.11111 70.5802 1.75817 71.6513 2.60784C72.7223 3.45752 73.604 4.49673 74.2962 5.72549C75.0016 6.95425 75.4718 8.34641 75.7069 9.90196H71.279C71.1092 8.94771 70.7892 8.11111 70.319 7.39216C69.8618 6.66013 69.2936 6.04575 68.6144 5.54902C67.9483 5.03922 67.1972 4.66013 66.3613 4.41176C65.5384 4.15033 64.6633 4.01961 63.7359 4.01961C62.064 4.01961 60.5554 4.44444 59.21 5.29412C57.8777 6.13072 56.8263 7.37255 56.0556 9.01961C55.2981 10.6536 54.9193 12.6536 54.9193 15.0196C54.9193 17.3987 55.3046 19.4052 56.0752 21.0392C56.8459 22.6601 57.8973 23.8889 59.2296 24.7255C60.5619 25.5621 62.0575 25.9804 63.7163 25.9804C64.6437 25.9804 65.5188 25.8562 66.3417 25.6078C67.1646 25.3595 67.9156 24.9869 68.5948 24.4902C69.274 23.9935 69.8422 23.3922 70.2994 22.6863C70.7696 21.9673 71.0961 21.1373 71.279 20.1961H75.7069C75.4848 21.6471 75.0342 22.9739 74.355 24.1765C73.6758 25.366 72.8072 26.3987 71.7492 27.2745C70.6912 28.1373 69.483 28.8105 68.1246 29.2941C66.7662 29.7647 65.2837 30 63.6771 30Z" fill="#333533" />
    <path d="M78.5094 0.392157H83.8777L93.1646 23.098H93.4977L102.804 0.392157H108.251V29.6078H103.94V8.47059H103.666L95.0259 29.5686H91.5384L82.9961 8.45098H82.7218V29.6078H78.5094V0.392157Z" fill="#333533" />
    <path d="M112.15 29.6078V0.392157H130.469V4.17647H116.559V12.9804H129.49V16.7451H116.559V25.8235H130.607V29.6078H112.15Z" fill="#333533" />
    <path d="M132.39 4.17647V0.392157H155V4.17647H145.909V29.6078H141.52V4.17647H132.39Z" fill="#333533" />
</svg>