<svg xmlns="http://www.w3.org/2000/svg" width="161" height="35" viewBox="0 0 161 35" fill="none">
    <path fill-rule="evenodd" clip-rule="evenodd" d="M0 5.03736C1.06028 14.9565 5.25394 21.8457 5.25394 21.8457C5.25394 21.8457 7.14341 21.4497 10.3114 20.571C12.438 19.9794 15.9777 18.3259 15.9777 18.3259C9.84041 16.9096 3.63219 11.7689 0 5.03736Z" fill="#F47216" />
    <path fill-rule="evenodd" clip-rule="evenodd" d="M6.15356 23.8365C9.79802 30.5083 14.777 34.0078 14.777 34.0078C14.777 34.0078 32.0443 26.9467 36.0438 0.701015C24.871 17.3828 15.2321 21.4213 6.15356 23.8365Z" fill="#15642A" />
    <path d="M44.8736 24.0539C44.8736 24.7963 44.998 25.4891 45.2485 26.1331C45.4998 26.7763 45.8483 27.3372 46.3006 27.8164C46.751 28.2947 47.2841 28.6696 47.9006 28.9434C48.5169 29.2164 49.1955 29.3514 49.9377 29.3514C50.6778 29.3514 51.3586 29.2164 51.9795 28.9434C52.5995 28.6696 53.1379 28.2947 53.5872 27.8164C54.0386 27.3372 54.3889 26.7763 54.6381 26.1331C54.8894 25.4891 55.0133 24.7963 55.0133 24.0539C55.0133 23.3213 54.8894 22.6307 54.6381 21.9807C54.3889 21.3343 54.0386 20.7661 53.5872 20.2846C53.1379 19.803 52.5995 19.4229 51.9795 19.144C51.3586 18.8682 50.6778 18.7287 49.9377 18.7287C49.1955 18.7287 48.5169 18.8682 47.9006 19.144C47.2841 19.4229 46.751 19.803 46.3006 20.2846C45.8483 20.7661 45.4998 21.3343 45.2485 21.9807C44.998 22.6307 44.8736 23.3213 44.8736 24.0539ZM39.6826 24.0674C39.6826 23.1204 39.8027 22.2101 40.0455 21.3358C40.2863 20.4662 40.6295 19.6487 41.0779 18.8848C41.5258 18.1184 42.0603 17.4239 42.6819 16.798C43.3043 16.1712 43.994 15.6364 44.7558 15.1955C45.5162 14.753 46.3334 14.4091 47.2056 14.1631C48.079 13.917 48.9893 13.7926 49.9377 13.7926C50.8759 13.7926 51.7838 13.917 52.6602 14.1631C53.5377 14.4091 54.3578 14.753 55.1175 15.1955C55.8779 15.6364 56.5727 16.1712 57.1989 16.798C57.8242 17.4239 58.3587 18.1184 58.8019 18.8848C59.2444 19.6487 59.5886 20.4662 59.8347 21.3358C60.0813 22.2101 60.2057 23.1204 60.2057 24.0674C60.2057 25.0172 60.0813 25.9237 59.8347 26.7974C59.5886 27.6679 59.2444 28.4821 58.8019 29.2381C58.3587 29.9938 57.8242 30.6824 57.1989 31.303C56.5727 31.9239 55.8779 32.4599 55.1175 32.9069C54.3578 33.3547 53.5377 33.6971 52.6602 33.9402C51.7838 34.1792 50.8759 34.3008 49.9377 34.3008C48.9893 34.3008 48.079 34.1792 47.2056 33.9402C46.3334 33.6971 45.5162 33.3547 44.7558 32.9069C43.994 32.4599 43.3043 31.9239 42.6819 31.303C42.0603 30.6824 41.5258 29.9938 41.0779 29.2381C40.6295 28.4821 40.2863 27.6679 40.0455 26.7974C39.8027 25.9237 39.6826 25.0172 39.6826 24.0674Z" fill="#15642A" />
    <path d="M73.3232 20.581C73.3232 20.3115 73.276 20.0446 73.1809 19.7769C73.0877 19.5078 72.9521 19.267 72.7737 19.0579C72.593 18.8478 72.3771 18.6757 72.1238 18.5427C71.8667 18.4085 71.5793 18.3403 71.2569 18.3403H68.4143V22.8204H71.2569C71.5793 22.8204 71.8687 22.756 72.1296 22.6271C72.3874 22.4973 72.6056 22.3295 72.7799 22.123C72.9544 21.9177 73.0877 21.6802 73.1809 21.4139C73.276 21.1433 73.3232 20.8671 73.3232 20.581ZM63.2224 14.7046C63.2224 14.5177 63.272 14.3686 63.3694 14.2571C63.4688 14.1452 63.6146 14.0889 63.8135 14.0889H72.383C72.9993 14.0889 73.5813 14.1736 74.1272 14.3426C74.6737 14.5133 75.1739 14.748 75.6305 15.0479C76.0849 15.3478 76.4965 15.704 76.8639 16.1216C77.2306 16.5363 77.541 16.9854 77.7959 17.4692C78.0501 17.9513 78.2436 18.4604 78.3786 18.992C78.5135 19.5242 78.581 20.0625 78.581 20.607C78.581 21.4139 78.4355 22.1989 78.1446 22.9681C77.8544 23.738 77.4398 24.4222 76.9044 25.0198C76.3691 25.6211 75.722 26.1047 74.9722 26.4757C74.2209 26.8477 73.39 27.0366 72.4767 27.0457H68.4143V33.4302C68.4143 33.8142 68.209 34.0078 67.7951 34.0078H63.8135C63.6328 34.0078 63.4905 33.9583 63.3838 33.8669C63.2766 33.7729 63.2224 33.6268 63.2224 33.4302V14.7046Z" fill="#15642A" />
    <path d="M81.0195 14.6662C81.0195 14.272 81.216 14.0755 81.6111 14.0755H93.5893C93.7768 14.0845 93.9208 14.1519 94.0242 14.2764C94.127 14.4032 94.1787 14.5418 94.1787 14.694V18.2217C94.1787 18.4085 94.121 18.5556 94.0047 18.6628C93.8893 18.7708 93.7498 18.8248 93.5893 18.8248H86.2112V33.4173C86.2007 33.5945 86.1355 33.7392 86.0095 33.8473C85.8858 33.956 85.7463 34.0078 85.5949 34.0078H81.6246C81.4372 34.0078 81.2887 33.9498 81.1807 33.8315C81.0743 33.7158 81.0195 33.5793 81.0195 33.4173V14.6662Z" fill="#15642A" />
    <path d="M95.3598 33.659C95.4303 33.5225 95.5053 33.3883 95.581 33.2475C95.6552 33.111 95.7437 32.9683 95.8419 32.8269L101.878 23.8133C100.851 22.2677 99.8324 20.7359 98.8262 19.2266C97.8214 17.7135 96.8032 16.1869 95.7745 14.6393C95.7205 14.5667 95.6792 14.4998 95.6462 14.4378C95.6162 14.3745 95.5975 14.3071 95.587 14.2351C95.6057 14.1654 95.6552 14.1317 95.7407 14.1378C95.8254 14.1399 95.9139 14.1197 96.0039 14.0755H100.671C101.003 14.0755 101.261 14.2457 101.448 14.5854L104.735 19.5207L108.059 14.5854C108.249 14.2457 108.508 14.0755 108.84 14.0755H113.049C113.121 14.0755 113.207 14.0755 113.306 14.0755C113.404 14.0755 113.496 14.077 113.581 14.0807C113.665 14.0875 113.739 14.1024 113.801 14.1294C113.864 14.1557 113.896 14.1961 113.896 14.2503C113.896 14.3566 113.848 14.4744 113.749 14.5989L107.578 23.8133L113.868 33.2029C113.958 33.326 114.028 33.4408 114.077 33.5445C114.126 33.6461 114.146 33.7348 114.136 33.8066C114.136 33.941 114.057 34.0078 113.896 34.0078H109.094C108.941 34.0078 108.804 33.9636 108.678 33.8743C108.552 33.7826 108.455 33.6619 108.385 33.509L104.735 28.1045L101.127 33.509C101.057 33.6619 100.957 33.7826 100.83 33.8743C100.707 33.9636 100.568 34.0078 100.417 34.0078H95.602C95.5293 34.0078 95.4655 33.9867 95.4145 33.9454C95.3598 33.9065 95.3306 33.8502 95.3306 33.7776C95.3306 33.7348 95.3426 33.695 95.3598 33.659Z" fill="#15642A" />
    <path d="M116.861 14.6662C116.861 14.5052 116.905 14.3686 117 14.2577C117.095 14.1452 117.244 14.0889 117.449 14.0889H121.258C121.492 14.0889 121.653 14.1384 121.742 14.2365C121.83 14.3347 121.876 14.482 121.876 14.6806V26.1998C123.074 24.234 124.252 22.2897 125.417 20.3671C126.577 18.4446 127.755 16.5003 128.944 14.5321C129.041 14.3979 129.136 14.2913 129.225 14.2096C129.314 14.1303 129.418 14.0889 129.535 14.0889H133.812C134 14.0889 134.149 14.1317 134.254 14.2163C134.363 14.3013 134.416 14.4345 134.416 14.6129V33.4173C134.416 33.6057 134.354 33.7527 134.228 33.8546C134.103 33.956 133.948 34.0078 133.761 34.0078H129.937C129.794 34.0078 129.667 33.9636 129.561 33.8743C129.452 33.7858 129.382 33.659 129.346 33.4979V22.7545C128.203 24.5877 127.071 26.3917 125.952 28.1713C124.836 29.9533 123.709 31.7581 122.573 33.5922C122.474 33.7422 122.358 33.8502 122.224 33.9141C122.089 33.9762 121.96 34.0078 121.836 34.0078H117.449C117.253 34.0078 117.105 33.9498 117.005 33.8315C116.908 33.7158 116.861 33.5764 116.861 33.4173V14.6662Z" fill="#15642A" />
    <path d="M139.904 14.6791C139.919 14.5177 139.984 14.3806 140.091 14.2629C140.195 14.1458 140.348 14.0889 140.546 14.0889H145.187C145.517 14.0889 145.732 14.2606 145.831 14.5989L149.479 26.7771L153.153 14.5989C153.278 14.2606 153.508 14.0889 153.838 14.0889H158.425C158.587 14.0889 158.732 14.1452 158.861 14.2571C158.991 14.3686 159.063 14.5095 159.084 14.6791C159.397 17.8274 159.716 20.9488 160.043 24.0488C160.369 27.1462 160.687 30.2699 161 33.4173V33.4841C161 33.8315 160.805 34.0078 160.411 34.0078H156.616C156.203 34.0078 155.989 33.8127 155.97 33.4173L154.803 23.0486L151.785 33.4841C151.768 33.572 151.703 33.6809 151.591 33.8066C151.48 33.9311 151.371 33.9955 151.262 33.9955H147.735C147.629 33.9955 147.515 33.9325 147.394 33.8127C147.271 33.6912 147.208 33.5817 147.198 33.4841L144.18 23.0747L143.014 33.4173C142.998 33.8127 142.777 34.0078 142.356 34.0078H138.56C138.177 34.0078 137.985 33.8127 137.985 33.4173L139.904 14.6791Z" fill="#15642A" />
</svg>