<svg width="333" height="132" viewBox="0 0 333 132" fill="none" xmlns="http://www.w3.org/2000/svg">
<path d="M32.4404 69.0556C32.0628 68.4205 31.7369 67.7563 31.4657 67.0692C31.1021 67.5387 30.6019 67.8847 30.0335 68.0594C29.4619 68.1735 24.5759 68.6175 24.5338 68.6175C23.6734 68.6835 22.7828 68.8216 22.1931 69.7338C21.8608 70.313 21.5693 70.9146 21.3207 71.534C20.8514 72.6586 20.3087 73.7509 19.696 74.8045C19.696 74.8045 17.9992 77.313 17.7946 77.5771C17.59 77.841 17.6923 78.1112 17.7946 78.4412L17.8849 78.7953C17.835 79.2404 17.7067 79.673 17.5058 80.0735V80.1755L18.8055 81.8619L18.8897 81.8977L18.9679 81.8619L20.5866 79.8094V79.6893L20.0631 78.9633L19.708 78.5252L19.7923 78.3031C20.2195 78.2372 20.4662 78.1412 20.5143 78.0332C20.585 77.7611 20.6094 77.4791 20.5866 77.1989C20.5274 76.4738 20.6516 75.7455 20.9476 75.0807C21.5344 74.2365 22.1798 73.4345 22.8791 72.6803C23.0837 72.4582 23.2762 72.2422 23.535 71.9362C24.0404 71.3059 24.2811 71.336 24.5699 71.2939C25.793 71.3176 27.0074 71.5053 28.1802 71.852C29.2753 72.2482 32.3561 72.5542 34.9797 72.2242C34.7269 71.7921 33.4753 70.6398 32.4404 69.0556Z" fill="#050625"/>
<path d="M59.3251 76.3769C57.8269 75.3927 55.9917 74.2524 55.1493 74.0184C54.4572 73.8204 53.344 74.0845 52.261 74.4025C52.8209 74.8804 53.2375 75.5034 53.4643 76.2027C53.5949 76.5289 53.7435 76.8473 53.9097 77.157C54.2598 77.7574 54.6626 78.3256 55.1131 78.8552C55.7148 79.5815 56.1902 80.1575 56.2203 80.9975C56.2503 81.8378 55.3779 84.4422 54.5716 85.9184C53.8675 87.2088 52.9469 88.6489 52.3934 89.519C52.1948 89.8252 52.0504 90.0591 51.9782 90.1791C51.8687 90.3692 51.78 90.5705 51.7133 90.7793C51.6531 91.0239 51.538 91.2517 51.3764 91.4454C51.0936 91.7094 50.6063 92.0455 50.504 92.1535L50.0106 92.2256H49.9503L48.6025 93.6897V93.7978L48.6927 93.8579H51.557L51.6413 93.8098L52.1828 92.9697V92.6635L52.4234 92.3755C52.5197 92.3755 52.7603 92.3755 53.0251 92.3755L53.0974 92.3336C53.8861 90.9857 54.5739 89.5816 55.1553 88.1328C55.4199 87.5328 55.6245 87.0527 55.7568 86.8366C56.8243 84.9007 58.0734 83.0702 59.4877 81.3697C59.8746 80.9374 60.2136 80.4646 60.4984 79.9595C60.5707 79.7134 60.4081 79.4793 60.1795 79.1613C59.571 78.3644 59.268 77.377 59.3251 76.3769Z" fill="#050625"/>
<path d="M43.8731 107L43.494 106.736C43.4639 106.67 40.6477 99.9308 24.0344 99.9308C16.0496 99.9308 12 95.8621 12 87.8328V24.4081C11.9984 24.3025 12.0385 24.2005 12.1117 24.1241C12.1849 24.0478 12.2853 24.0032 12.3912 24H75.3308C75.3847 23.9992 75.4384 24.0092 75.4884 24.0295C75.5383 24.0497 75.5839 24.0797 75.622 24.1178C75.66 24.1558 75.6902 24.2011 75.7106 24.251C75.7307 24.3009 75.7408 24.3543 75.74 24.4081V87.8328C75.74 95.8621 71.6905 99.9308 63.7056 99.9308C47.014 99.9308 44.2821 106.67 44.2521 106.736L43.8669 107M13.6909 25.9564V87.1667C13.6909 94.5419 17.2591 97.5064 24.588 97.5064C38.4275 97.5064 42.7177 101.215 43.8429 103.003C44.9861 101.203 49.2945 97.5064 63.0978 97.5064C70.4327 97.5064 73.995 94.5419 73.995 87.1667V25.9564H13.6909Z" fill="#050625"/>
<path d="M68.5434 86.0384C68.1645 83.9681 67.9899 81.9458 67.8636 80.4755C67.8401 79.6951 67.7373 78.9188 67.5567 78.1592C67.1845 77.6934 66.742 77.2885 66.2449 76.959C65.3543 76.2568 64.2473 75.3867 64.1027 74.8045C63.6093 72.8063 63.8321 70.7839 64.0307 69.0017C64.1699 68.0261 64.2244 67.0402 64.193 66.0552C63.8181 65.7705 63.4624 65.4618 63.128 65.131C63.4477 65.3472 63.7987 65.5132 64.169 65.6229C64.5568 65.7535 64.9629 65.8223 65.3725 65.8272C65.6819 65.8301 65.9899 65.7876 66.2869 65.7011C66.4491 65.671 66.6031 65.608 66.7397 65.5163C66.8763 65.4244 66.9925 65.3055 67.0813 65.167L67.021 65.035C66.162 64.6054 65.4097 63.9905 64.8188 63.2346C64.3997 62.7042 63.8979 62.2442 63.3326 61.8724C62.9015 61.6874 62.4486 61.5583 61.9848 61.4883L61.6599 61.4223C61.6056 61.4223 61.4493 61.3324 61.2507 61.2424C60.4444 60.8582 58.555 59.964 56.7618 59.9881C55.2601 60.0486 53.7672 60.2495 52.3031 60.5883C51.2722 60.846 50.2128 60.973 49.1502 60.9662C48.2812 60.9026 47.4094 60.8846 46.5386 60.9123C44.8778 60.9123 43.6685 60.9542 42.489 59.9281C40.4734 58.1818 41.1592 55.5594 41.9535 52.5229C42.5144 50.7283 42.8163 48.8633 42.8502 46.9838C42.3887 46.8663 41.9539 46.6627 41.5684 46.3838C42.0649 46.5328 42.5785 46.6175 43.0968 46.6359C43.7458 46.6609 44.3947 46.5777 45.0164 46.3898C45.5586 46.1957 46.0317 45.8472 46.3774 45.3874C46.7228 44.9276 46.9253 44.3769 46.9598 43.8035C46.9598 43.5574 46.8334 43.4972 46.7674 43.4794C45.957 43.4565 45.1473 43.5434 44.3604 43.7373L43.3434 43.9175C44.7635 43.4313 46.116 42.7679 47.3689 41.9431C47.583 41.7822 47.8178 41.651 48.067 41.553H48.2956C49.0839 41.607 51.1718 41.757 51.7556 40.0647L51.6773 39.8427L51.4487 39.8847L51.4004 39.9387C51.1418 40.2641 50.803 40.517 50.4168 40.6726C50.0309 40.8283 49.6111 40.8815 49.1982 40.8269L49.5954 40.4908C50.3 39.9254 50.9291 39.2719 51.4667 38.5465C51.8639 38.0544 53.1695 36.1461 53.5066 32.4255C53.5066 32.2454 53.5066 32.0714 53.5066 31.8974C53.5066 31.7233 53.5066 31.5493 53.5066 31.3873C53.6089 30.5351 53.6389 28.9329 52.7725 27.8947L52.5016 27.8467L52.4114 28.0987L52.5016 28.3088C52.8678 28.9965 53.0067 29.782 52.8988 30.5531C52.8814 30.6824 52.8223 30.8025 52.7303 30.8952L52.6582 30.8292L52.5859 30.7092C52.2849 30.1583 51.7794 29.7468 51.1778 29.563L50.9492 29.659L51.0155 29.923C51.4795 30.274 51.8553 30.7277 52.1134 31.2485C52.3713 31.7692 52.5042 32.3427 52.5016 32.9235C52.4898 34.3901 52.0576 35.8227 51.2561 37.0522L50.9793 37.2743C50.877 37.2743 50.7506 37.2263 50.5461 37.0642C50.1791 36.7762 49.1259 34.9159 50.0888 32.5995L49.9925 32.3174L49.7037 32.4435C49.1994 33.2406 48.9475 34.1707 48.9808 35.1126C49.0142 36.0545 49.3309 36.9646 49.8902 37.7244L50.0768 38.0484C50.1603 38.2218 50.1857 38.4176 50.1489 38.6065C50.0768 38.8945 48.3438 40.3048 47.7421 40.5868C47.3829 40.7732 46.9677 40.8223 46.5748 40.7249C46.0753 40.5388 43.5662 38.6485 44.5529 34.7839L44.4747 34.5258L44.234 34.6578C43.2894 37.1663 43.6745 39.2846 45.3953 40.9589L45.5278 41.1029L45.5939 41.397L45.3473 41.655C44.4648 42.1459 43.4622 42.3808 42.453 42.3331C42.1448 42.2121 41.8792 42.0034 41.6887 41.733C41.3043 41.2402 41.0315 40.67 40.8891 40.0619C40.7469 39.4538 40.7384 38.8221 40.8643 38.2104L40.702 37.9824L40.4552 38.1384C40.2109 38.8323 40.1326 39.5734 40.2268 40.3028C40.3207 41.0322 40.5844 41.7295 40.9969 42.3391L41.1772 42.6632C41.0029 42.8612 38.6201 42.9632 38.2892 42.7592C35.7318 41.2049 34.5043 37.5743 34.5886 35.918C34.7329 32.9176 35.5453 30.6432 36.9954 29.1549V28.9089H36.7065C34.8352 30.3851 34.396 32.1674 34.1011 33.8657C34.0949 33.9665 34.067 34.0648 34.0192 34.1539C33.9715 34.243 33.9051 34.3207 33.8243 34.3818L33.4513 34.3398C33.4513 34.3398 32.1998 33.6017 32.5307 31.3753L32.3984 31.1593L32.1878 31.2793C31.9338 31.9119 31.8913 32.6094 32.0671 33.2679C32.2426 33.9264 32.6268 34.5108 33.1625 34.9339L33.2045 34.9759C33.388 35.1481 33.523 35.3654 33.5957 35.606C33.7555 36.3357 33.8421 37.0795 33.8545 37.8264L33.5656 38.2164L33.2768 38.1504C33.0162 37.9739 32.7953 37.745 32.6285 37.4783C32.4617 37.2117 32.3524 36.9133 32.3081 36.6022L32.1035 36.4461L31.953 36.7162C32.006 37.1751 32.1746 37.6132 32.4429 37.9898C32.7111 38.3664 33.0704 38.6694 33.4874 38.8706L33.6077 38.9426C33.8559 39.1119 34.0616 39.3357 34.2094 39.5967C34.6606 40.4548 35.088 41.1449 35.3226 41.517L35.449 41.727C35.5053 41.798 35.5449 41.8807 35.5648 41.969C35.5846 42.0573 35.584 42.149 35.5633 42.2371L35.3467 42.3751C34.9857 42.4411 34.0349 42.6212 32.9399 41.349L32.7052 41.301L32.645 41.547C33.367 43.1253 34.8292 43.1313 35.6055 43.1373C35.7558 43.1432 35.905 43.1653 36.0507 43.2033C36.4365 43.2865 36.7823 43.4982 37.0314 43.8035C36.7102 43.7893 36.3886 43.8174 36.0747 43.8874C35.8581 43.9534 35.7679 44.1395 35.6716 44.3135C35.6319 44.4312 35.5656 44.5384 35.478 44.6269C35.3905 44.7153 35.2837 44.7826 35.1661 44.8235C34.5645 45.0155 31.4777 45.7778 31.1708 45.8497C30.7496 45.9457 30.9963 47.974 31.0023 47.992C31.3403 48.4788 31.8571 48.8129 32.4404 48.9223C33.3603 48.9417 34.2668 49.1459 35.106 49.5223L35.3287 49.6183L35.4972 49.6904C35.7791 49.8109 36.0683 49.9133 36.3636 49.9965C36.7305 50.0804 37.2602 50.1704 37.2602 50.1704C36.8596 50.2028 36.4572 50.2028 36.0567 50.1704L35.6235 50.1165C35.9184 51.9648 34.4561 54.1612 32.9096 56.2674C31.2911 58.4698 29.6304 61.8123 30.9 65.2089C31.0685 65.6831 31.255 66.1031 31.4415 66.5051C31.8439 67.4767 32.3567 68.3988 32.9699 69.2536C33.4513 69.8057 34.4803 70.9039 34.9797 71.432C34.9797 71.0179 34.8112 69.9077 34.8112 69.9077L35.5813 72.4342C35.6536 72.6081 35.7198 72.7943 35.7919 72.9863C35.9424 73.4063 36.1048 73.8384 36.2913 74.2404C36.5527 74.7919 36.8543 75.3235 37.194 75.8308C37.5131 76.2683 37.7384 76.7667 37.8558 77.2949C37.9341 77.757 37.91 79.8514 37.904 80.7516V81.1236C37.9569 81.4616 38.0561 81.7907 38.1989 82.1017C38.3568 82.4518 38.4682 82.821 38.5298 83.1999V89.1531C38.4957 89.4071 38.4163 89.653 38.2952 89.8791L38.2109 90.1132C38.2109 90.1551 38.2109 90.8332 38.1567 91.1453C38.1204 91.3723 38.0363 91.5891 37.91 91.7815L37.248 92.0515L37.2 92.0875L36.0747 93.7318V93.8398L36.165 93.8938H39.0593L39.1616 93.8038L39.2579 92.6036V92.5316L39.0833 92.3036L39.3241 91.9314C39.5768 91.9314 40.1545 91.9314 40.2988 91.7815C40.4432 91.6314 40.3891 91.3733 40.2988 90.5813C40.2568 90.2152 40.2085 89.837 40.2085 89.5671V88.811C40.2085 87.2146 40.2085 83.8901 40.2085 83.3561C40.237 83.1179 40.2874 82.8829 40.3591 82.6538C40.4854 82.2288 40.5561 81.7889 40.5697 81.3456C40.5697 80.7875 40.7863 79.1073 40.8643 77.745C40.9107 76.9662 41.0771 76.1991 41.3578 75.4707C41.6347 74.7206 41.8452 73.9885 42.5071 73.8685C43.358 73.8621 44.2054 73.9792 45.0224 74.2166C46.0593 74.4789 47.1192 74.6416 48.1873 74.7025C48.8642 74.6829 49.5394 74.6228 50.2091 74.5226C50.871 74.3665 51.6292 74.1025 51.8759 74.0244C52.9168 73.6765 54.5956 72.9023 55.6547 73.2562C56.3466 73.4843 58.6151 75.3626 60.1375 76.6709C60.8239 77.12 61.4849 77.6068 62.1171 78.1292C63.1821 79.0234 64.9633 80.5296 65.4145 81.4536C66.2389 83.1939 66.618 85.0543 67.2196 87.9288C67.381 88.7776 67.4635 89.6394 67.4664 90.5032C67.4682 90.7209 67.5422 90.9321 67.677 91.1034L67.8454 91.4454C67.8816 91.6374 67.8454 92.1116 67.719 92.1895L66.985 92.7416V92.7775L66.4855 93.8038V93.8998L66.5698 93.9479H69.0248L69.1271 93.8637L69.3558 92.5735V92.5196L69.2114 92.1655L69.2955 91.6615C69.5443 91.4804 69.7498 91.2469 69.8973 90.9773V90.8994C69.293 89.3255 68.8396 87.6978 68.5434 86.0384ZM37.5911 46.0117C37.3722 46.0386 37.1502 46.0074 36.9473 45.9217C36.9997 45.7914 37.081 45.6744 37.1853 45.5798C37.2895 45.4852 37.4139 45.4154 37.5489 45.3756C37.874 45.3217 38.1507 45.6936 38.1869 45.7598C38.0193 45.9033 37.811 45.9913 37.5911 46.0117Z" fill="#050625"/>
<path d="M114.024 30.1976V48.0465H109.919V33.9287H103.018V48.0465H98.9127V30.1976H114.024Z" fill="#050625"/>
<path d="M124.906 30.1976C125.947 30.1976 126.896 30.3068 127.752 30.5253C128.625 30.7438 129.372 31.0968 129.993 31.5842C130.615 32.0716 131.093 32.7102 131.429 33.5001C131.782 34.2901 131.958 35.2565 131.958 36.3993C131.958 37.4918 131.782 38.4414 131.429 39.2481C131.076 40.0548 130.581 40.7355 129.943 41.2901C129.322 41.8279 128.583 42.2313 127.727 42.5002C126.87 42.7691 125.947 42.9036 124.956 42.9036H121.858V48.0465H117.753V30.1976H124.906ZM124.856 39.2733C125.745 39.2733 126.467 39.0464 127.022 38.5926C127.592 38.1388 127.895 37.4834 127.928 36.6262C127.928 35.6682 127.668 34.9875 127.147 34.5842C126.627 34.164 125.855 33.9539 124.83 33.9539H121.858V39.2733H124.856Z" fill="#050625"/>
<path d="M136.753 45.0969L135.67 48.0465H131.237L138.264 30.1976H142.646L149.572 48.0465H145.115L144.057 45.0969H136.753ZM138.012 41.4162H142.797C142.411 40.2901 142.017 39.1725 141.614 38.0632C141.227 36.9371 140.833 35.8111 140.43 34.685L138.012 41.4162Z" fill="#050625"/>
<path d="M151.473 48.0465V30.1976H159.86C160.582 30.1976 161.271 30.2816 161.925 30.4497C162.597 30.601 163.185 30.8615 163.688 31.2312C164.192 31.5842 164.595 32.0548 164.897 32.643C165.2 33.2312 165.351 33.9539 165.351 34.8111C165.351 35.5506 165.2 36.2313 164.897 36.8531C164.612 37.4582 164.15 37.954 163.512 38.3405C164.385 38.6767 165.04 39.2145 165.477 39.954C165.93 40.6767 166.157 41.5506 166.157 42.5758C166.157 43.6851 165.922 44.5927 165.451 45.2986C164.998 46.0044 164.41 46.5591 163.688 46.9624C162.983 47.3658 162.186 47.6515 161.296 47.8196C160.406 47.9708 159.524 48.0465 158.651 48.0465H151.473ZM158.475 37.2817C159.314 37.2817 159.994 37.1556 160.515 36.9035C161.052 36.6346 161.321 36.164 161.321 35.4918C161.321 35.1556 161.245 34.8867 161.094 34.685C160.96 34.4665 160.775 34.3069 160.54 34.206C160.322 34.0884 160.062 34.0128 159.759 33.9791C159.474 33.9455 159.172 33.9287 158.853 33.9287H155.579V37.2817H158.475ZM155.579 44.3406H158.676C159.147 44.3406 159.583 44.3154 159.986 44.2649C160.406 44.2145 160.767 44.1221 161.069 43.9876C161.371 43.8532 161.606 43.6599 161.774 43.4078C161.959 43.1389 162.051 42.7943 162.051 42.3742C162.051 42.0044 161.967 41.7103 161.799 41.4918C161.648 41.2565 161.438 41.08 161.17 40.9624C160.901 40.8447 160.591 40.7691 160.238 40.7355C159.885 40.7019 159.516 40.6851 159.13 40.6851H155.579V44.3406Z" fill="#050625"/>
<path d="M173.042 40.9624L181.328 30.1976H184.602V48.0465H180.497V37.4329L172.211 48.0465H168.937V30.1976H173.042V40.9624Z" fill="#050625"/>
<path d="M186.58 33.9539V30.1976H201.591V33.9539H196.126V48.0465H192.021V33.9539H186.58Z" fill="#050625"/>
<path d="M216.689 30.1976V33.9539H207.697V37.3825H215.329V41.038H207.697V44.3406H216.689V48.0465H203.592V30.1976H216.689Z" fill="#050625"/>
<path d="M224.368 33.9539L224.343 38.2145C224.343 38.8195 224.335 39.4666 224.318 40.1557C224.301 40.8279 224.251 41.5002 224.167 42.1725C224.1 42.8448 223.99 43.5002 223.839 44.1389C223.688 44.7607 223.47 45.3238 223.185 45.828C222.731 46.6347 222.093 47.2145 221.27 47.5675C220.448 47.9036 219.465 48.0717 218.324 48.0717H217.593V44.3154C218.164 44.3154 218.609 44.2229 218.928 44.038C219.264 43.8364 219.524 43.5843 219.709 43.2817C219.894 42.9624 220.028 42.6011 220.112 42.1977C220.213 41.7775 220.28 41.3489 220.313 40.912C220.38 39.8195 220.422 38.8195 220.439 37.9119C220.473 36.9876 220.49 36.1052 220.49 35.2649C220.506 34.4077 220.515 33.5758 220.515 32.769C220.515 31.9455 220.523 31.0884 220.54 30.1976H233.385V48.0465H229.28V33.9539H224.368Z" fill="#050625"/>
<path d="M237.091 48.0465V30.1976H241.196V36.475H244.974C245.948 36.475 246.838 36.5758 247.644 36.7775C248.45 36.9624 249.138 37.2817 249.709 37.7355C250.297 38.1724 250.75 38.7523 251.069 39.475C251.388 40.1809 251.548 41.0548 251.548 42.0968C251.548 43.2565 251.329 44.2229 250.893 44.996C250.473 45.7523 249.911 46.3574 249.205 46.8112C248.5 47.265 247.694 47.5843 246.788 47.7692C245.881 47.954 244.941 48.0465 243.967 48.0465H237.091ZM241.196 44.3406H244.143C244.596 44.3406 245.025 44.3154 245.428 44.2649C245.831 44.1977 246.192 44.0885 246.511 43.9372C246.83 43.7691 247.073 43.5422 247.241 43.2565C247.426 42.954 247.518 42.559 247.518 42.0716C247.518 41.6683 247.434 41.3405 247.266 41.0884C247.115 40.8363 246.905 40.6431 246.636 40.5086C246.385 40.3573 246.082 40.2565 245.73 40.2061C245.377 40.1388 244.999 40.1052 244.596 40.1052H241.196V44.3406Z" fill="#050625"/>
<path d="M257.582 39.0716C257.582 39.7439 257.666 40.3994 257.834 41.038C258.002 41.6767 258.262 42.2481 258.615 42.7523C258.984 43.2565 259.454 43.6683 260.025 43.9876C260.596 44.2901 261.285 44.4414 262.09 44.4414C263.131 44.4414 263.979 44.2145 264.634 43.7607C265.289 43.3069 265.709 42.6599 265.894 41.8195H269.848C269.764 42.8784 269.495 43.8111 269.042 44.6179C268.588 45.4078 268.001 46.0717 267.279 46.6095C266.574 47.1473 265.768 47.5507 264.861 47.8196C263.954 48.0885 263.014 48.2229 262.04 48.2229C260.646 48.2229 259.412 48.0045 258.338 47.5675C257.263 47.1305 256.356 46.5171 255.618 45.7271C254.879 44.9204 254.316 43.9624 253.93 42.8532C253.544 41.7271 253.351 40.475 253.351 39.0968C253.351 37.7523 253.544 36.5254 253.93 35.4161C254.333 34.2901 254.912 33.3237 255.668 32.5169C256.424 31.7102 257.339 31.0884 258.413 30.6514C259.488 30.1976 260.705 29.9707 262.065 29.9707C263.073 29.9707 264.013 30.1052 264.886 30.3741C265.776 30.6262 266.565 31.0211 267.254 31.5589C267.942 32.08 268.505 32.7438 268.941 33.5506C269.378 34.3573 269.646 35.3153 269.747 36.4245H265.843C265.642 35.5842 265.222 34.9287 264.584 34.4581C263.963 33.9875 263.131 33.7522 262.09 33.7522C261.268 33.7522 260.571 33.9035 260 34.206C259.429 34.5086 258.959 34.9119 258.59 35.4161C258.237 35.9035 257.977 36.4666 257.809 37.1052C257.658 37.7439 257.582 38.3993 257.582 39.0716Z" fill="#050625"/>
<path d="M270.599 33.9539V30.1976H285.61V33.9539H280.145V48.0465H276.04V33.9539H270.599Z" fill="#050625"/>
<path d="M287.586 48.0465V30.1976H295.973C296.695 30.1976 297.383 30.2816 298.038 30.4497C298.71 30.601 299.297 30.8615 299.801 31.2312C300.305 31.5842 300.708 32.0548 301.01 32.643C301.312 33.2312 301.464 33.9539 301.464 34.8111C301.464 35.5506 301.312 36.2313 301.01 36.8531C300.725 37.4582 300.263 37.954 299.625 38.3405C300.498 38.6767 301.153 39.2145 301.589 39.954C302.043 40.6767 302.269 41.5506 302.269 42.5758C302.269 43.6851 302.034 44.5927 301.564 45.2986C301.111 46.0044 300.523 46.5591 299.801 46.9624C299.096 47.3658 298.298 47.6515 297.409 47.8196C296.519 47.9708 295.637 48.0465 294.764 48.0465H287.586ZM294.588 37.2817C295.427 37.2817 296.107 37.1556 296.628 36.9035C297.165 36.6346 297.434 36.164 297.434 35.4918C297.434 35.1556 297.358 34.8867 297.207 34.685C297.073 34.4665 296.888 34.3069 296.653 34.206C296.435 34.0884 296.174 34.0128 295.872 33.9791C295.587 33.9455 295.285 33.9287 294.966 33.9287H291.691V37.2817H294.588ZM291.691 44.3406H294.789C295.259 44.3406 295.696 44.3154 296.099 44.2649C296.519 44.2145 296.88 44.1221 297.182 43.9876C297.484 43.8532 297.719 43.6599 297.887 43.4078C298.072 43.1389 298.164 42.7943 298.164 42.3742C298.164 42.0044 298.08 41.7103 297.912 41.4918C297.761 41.2565 297.551 41.08 297.283 40.9624C297.014 40.8447 296.703 40.7691 296.351 40.7355C295.998 40.7019 295.629 40.6851 295.243 40.6851H291.691V44.3406Z" fill="#050625"/>
<path d="M313.059 29.9707C314.419 29.9707 315.644 30.1892 316.736 30.6262C317.844 31.0463 318.784 31.6598 319.557 32.4665C320.346 33.2564 320.95 34.206 321.37 35.3153C321.79 36.4245 322 37.6598 322 39.0212C322 40.3657 321.79 41.601 321.37 42.7271C320.95 43.8532 320.346 44.828 319.557 45.6515C318.784 46.475 317.844 47.1137 316.736 47.5675C315.628 48.0213 314.385 48.2398 313.008 48.2229C311.615 48.2229 310.364 48.0045 309.256 47.5675C308.164 47.1137 307.232 46.4834 306.46 45.6767C305.688 44.87 305.092 43.912 304.672 42.8027C304.269 41.6767 304.067 40.4414 304.067 39.0968C304.067 37.7355 304.277 36.5002 304.697 35.3909C305.134 34.2649 305.738 33.2985 306.51 32.4917C307.3 31.685 308.248 31.0631 309.356 30.6262C310.465 30.1892 311.699 29.9707 313.059 29.9707ZM308.273 39.0716C308.273 39.7607 308.366 40.4246 308.55 41.0632C308.752 41.7019 309.046 42.2733 309.432 42.7775C309.835 43.2649 310.339 43.6599 310.943 43.9624C311.548 44.2649 312.27 44.4246 313.109 44.4414C313.915 44.4414 314.612 44.2901 315.2 43.9876C315.787 43.6851 316.274 43.2817 316.66 42.7775C317.047 42.2733 317.332 41.7019 317.517 41.0632C317.701 40.4246 317.794 39.7775 317.794 39.122C317.794 38.4666 317.701 37.8195 317.517 37.1808C317.349 36.5422 317.072 35.9707 316.686 35.4665C316.299 34.9623 315.804 34.5506 315.2 34.2312C314.612 33.9119 313.898 33.7522 313.059 33.7522C312.236 33.7522 311.522 33.9035 310.918 34.206C310.313 34.5086 309.818 34.9119 309.432 35.4161C309.046 35.9035 308.752 36.4666 308.55 37.1052C308.366 37.7439 308.273 38.3993 308.273 39.0716Z" fill="#050625"/>
<path d="M100.395 67.1539H109.26V60.1144H110.646V75.196H109.26V68.4338H100.395V75.196H99.0096V60.1144H100.395V67.1539Z" fill="#050625"/>
<path d="M115.429 75.196V60.1144H116.814V73.3615L125.467 60.1144H127.236V75.196H125.85V62.0556L117.198 75.196H115.429Z" fill="#050625"/>
<path d="M138.494 75.196V68.4338H135.724L132.101 75.196H130.46L134.551 67.5806L130.46 60.1144H132.015L135.788 67.1539H138.494V60.1144H139.879V67.1539H142.607L146.401 60.1144H147.914L143.822 67.5806L147.935 75.196H146.251L142.65 68.4338H139.879V75.196H138.494Z" fill="#050625"/>
<path d="M151.161 60.1144H161.071V61.3943H152.547V67.0686H160.219V68.3485H152.547V73.9161H161.071V75.196H151.161V60.1144Z" fill="#050625"/>
<path d="M165.021 75.196V60.1144H174.505V61.3943H166.406V75.196H165.021Z" fill="#050625"/>
<path d="M184.23 75.3667C183.065 75.3667 182.042 75.1747 181.161 74.7907C180.28 74.4067 179.541 73.8734 178.945 73.1908C178.362 72.494 177.922 71.6763 177.623 70.7377C177.325 69.7991 177.176 68.7751 177.176 67.6659C177.176 66.5566 177.325 65.5327 177.623 64.5941C177.922 63.6413 178.362 62.8236 178.945 62.141C179.541 61.4583 180.28 60.925 181.161 60.5411C182.042 60.1429 183.065 59.9438 184.23 59.9438C185.395 59.9438 186.411 60.1429 187.277 60.5411C188.158 60.925 188.89 61.4655 189.472 62.1623C190.069 62.8449 190.517 63.6555 190.815 64.5941C191.113 65.5327 191.263 66.5566 191.263 67.6659C191.263 68.7751 191.113 69.7991 190.815 70.7377C190.517 71.6763 190.069 72.4869 189.472 73.1695C188.89 73.8521 188.158 74.3925 187.277 74.7907C186.411 75.1747 185.395 75.3667 184.23 75.3667ZM184.23 61.2024C183.278 61.2024 182.447 61.373 181.736 61.7143C181.026 62.0556 180.436 62.5249 179.968 63.1222C179.499 63.7053 179.151 64.3879 178.923 65.1701C178.696 65.9522 178.582 66.7842 178.582 67.6659C178.582 68.5476 178.696 69.3795 178.923 70.1617C179.165 70.9439 179.52 71.6265 179.989 72.2096C180.458 72.7926 181.04 73.2548 181.736 73.5961C182.447 73.9374 183.278 74.1081 184.23 74.1081C185.182 74.1081 186.013 73.9445 186.723 73.6175C187.434 73.2761 188.016 72.814 188.471 72.2309C188.925 71.6478 189.266 70.9652 189.494 70.183C189.721 69.4009 189.835 68.5618 189.835 67.6659C189.835 66.7842 189.721 65.9522 189.494 65.1701C189.266 64.3879 188.918 63.7053 188.449 63.1222C187.995 62.5249 187.412 62.0556 186.702 61.7143C186.006 61.373 185.182 61.2024 184.23 61.2024Z" fill="#050625"/>
<path d="M195.197 60.1144H200.311C201.945 60.1144 203.224 60.5126 204.147 61.309C205.071 62.1054 205.533 63.3498 205.533 65.0421C205.533 65.8954 205.383 66.6349 205.085 67.2606C204.801 67.8863 204.403 68.4125 203.892 68.8391C203.394 69.2516 202.798 69.5573 202.101 69.7564C201.42 69.9555 200.681 70.055 199.885 70.055H196.582V75.196H195.197V60.1144ZM199.842 68.7751C200.482 68.7751 201.064 68.704 201.59 68.5618C202.116 68.4196 202.563 68.1921 202.933 67.8792C203.302 67.5663 203.586 67.1681 203.785 66.6846C203.998 66.2011 204.105 65.6252 204.105 64.9568C204.105 63.6768 203.757 62.7667 203.06 62.2263C202.364 61.6717 201.412 61.3943 200.205 61.3943H196.582V68.7751H199.842Z" fill="#050625"/>
<path d="M215.82 75.3667C214.655 75.3667 213.632 75.1747 212.752 74.7907C211.871 74.4067 211.132 73.8734 210.535 73.1908C209.953 72.494 209.512 71.6763 209.214 70.7377C208.916 69.7991 208.766 68.7751 208.766 67.6659C208.766 66.5566 208.916 65.5327 209.214 64.5941C209.512 63.6413 209.953 62.8236 210.535 62.141C211.132 61.4583 211.871 60.925 212.752 60.5411C213.632 60.1429 214.655 59.9438 215.82 59.9438C216.985 59.9438 218.001 60.1429 218.868 60.5411C219.749 60.925 220.48 61.4655 221.063 62.1623C221.66 62.8449 222.107 63.6555 222.406 64.5941C222.704 65.5327 222.853 66.5566 222.853 67.6659C222.853 68.7751 222.704 69.7991 222.406 70.7377C222.107 71.6763 221.66 72.4869 221.063 73.1695C220.48 73.8521 219.749 74.3925 218.868 74.7907C218.001 75.1747 216.985 75.3667 215.82 75.3667ZM215.82 61.2024C214.869 61.2024 214.037 61.373 213.327 61.7143C212.617 62.0556 212.027 62.5249 211.558 63.1222C211.089 63.7053 210.741 64.3879 210.514 65.1701C210.287 65.9522 210.173 66.7842 210.173 67.6659C210.173 68.5476 210.287 69.3795 210.514 70.1617C210.755 70.9439 211.111 71.6265 211.579 72.2096C212.048 72.7926 212.631 73.2548 213.327 73.5961C214.037 73.9374 214.869 74.1081 215.82 74.1081C216.772 74.1081 217.603 73.9445 218.314 73.6175C219.024 73.2761 219.607 72.814 220.061 72.2309C220.516 71.6478 220.857 70.9652 221.084 70.183C221.312 69.4009 221.425 68.5618 221.425 67.6659C221.425 66.7842 221.312 65.9522 221.084 65.1701C220.857 64.3879 220.509 63.7053 220.04 63.1222C219.585 62.5249 219.003 62.0556 218.293 61.7143C217.596 61.373 216.772 61.2024 215.82 61.2024Z" fill="#050625"/>
<path d="M225.194 79.4837V73.9161H225.407C225.72 73.9161 225.99 73.8379 226.217 73.6814C226.458 73.5108 226.657 73.3046 226.814 73.0628C227.012 72.75 227.169 72.4087 227.282 72.0389C227.396 71.6692 227.474 71.335 227.517 71.0363C227.63 70.3537 227.709 69.6213 227.751 68.8391C227.794 68.057 227.829 67.353 227.858 66.7273C227.915 65.618 227.95 64.5159 227.964 63.4209C227.993 62.3258 228.021 61.2237 228.05 60.1144H237.448V73.9161H239.323V79.4837H237.938V75.196H226.579V79.4837H225.194ZM236.084 73.9161V61.3943H229.414L229.2 67.6659C229.172 68.3485 229.136 69.0809 229.094 69.8631C229.051 70.631 228.959 71.3492 228.817 72.0176C228.732 72.43 228.604 72.7997 228.433 73.1268C228.263 73.4539 228.071 73.717 227.858 73.9161H236.084Z" fill="#050625"/>
<path d="M248.781 61.2024C247.829 61.2166 247.005 61.3943 246.309 61.7357C245.613 62.0627 245.045 62.5249 244.604 63.1222C244.164 63.7053 243.837 64.3879 243.624 65.1701C243.411 65.938 243.304 66.7557 243.304 67.6232C243.304 68.5049 243.411 69.3369 243.624 70.119C243.837 70.9012 244.164 71.5909 244.604 72.1882C245.059 72.7713 245.627 73.2406 246.309 73.5961C247.005 73.9374 247.836 74.1081 248.802 74.1081C249.243 74.1081 249.69 74.0654 250.145 73.9801C250.6 73.8805 251.026 73.7312 251.424 73.5321C251.822 73.3188 252.177 73.0557 252.489 72.7429C252.802 72.43 253.043 72.0531 253.214 71.6123H254.77C254.556 72.2807 254.244 72.8566 253.832 73.3401C253.434 73.8094 252.965 74.1934 252.425 74.4921C251.9 74.7907 251.317 75.0111 250.678 75.1533C250.053 75.2956 249.413 75.3667 248.76 75.3667C247.581 75.3667 246.558 75.1747 245.691 74.7907C244.824 74.3925 244.107 73.8521 243.539 73.1695C242.984 72.4869 242.565 71.6763 242.281 70.7377C242.011 69.7991 241.876 68.7751 241.876 67.6659C241.876 66.5709 242.018 65.554 242.302 64.6154C242.587 63.6626 243.013 62.8449 243.581 62.1623C244.164 61.4655 244.888 60.925 245.755 60.5411C246.636 60.1429 247.652 59.9438 248.802 59.9438C249.456 59.9438 250.081 60.0149 250.678 60.1571C251.289 60.2993 251.843 60.5269 252.34 60.8397C252.852 61.1384 253.285 61.5223 253.64 61.9916C254.009 62.4609 254.294 63.0298 254.493 63.6982H253.086C252.915 63.2573 252.674 62.8805 252.361 62.5676C252.063 62.2547 251.722 61.9987 251.338 61.7997C250.955 61.5863 250.543 61.437 250.102 61.3517C249.662 61.2521 249.222 61.2024 248.781 61.2024Z" fill="#050625"/>
<path d="M258.711 75.196V60.1144H260.096V67.2606H262.739L267.789 60.1144H269.43L264.039 67.6232L269.473 75.196H267.811L262.973 68.5405H260.096V75.196H258.711Z" fill="#050625"/>
<path d="M278.273 75.3667C277.108 75.3667 276.085 75.1747 275.204 74.7907C274.324 74.4067 273.585 73.8734 272.988 73.1908C272.406 72.494 271.965 71.6763 271.667 70.7377C271.368 69.7991 271.219 68.7751 271.219 67.6659C271.219 66.5566 271.368 65.5327 271.667 64.5941C271.965 63.6413 272.406 62.8236 272.988 62.141C273.585 61.4583 274.324 60.925 275.204 60.5411C276.085 60.1429 277.108 59.9438 278.273 59.9438C279.438 59.9438 280.454 60.1429 281.321 60.5411C282.202 60.925 282.933 61.4655 283.516 62.1623C284.113 62.8449 284.56 63.6555 284.858 64.5941C285.157 65.5327 285.306 66.5566 285.306 67.6659C285.306 68.7751 285.157 69.7991 284.858 70.7377C284.56 71.6763 284.113 72.4869 283.516 73.1695C282.933 73.8521 282.202 74.3925 281.321 74.7907C280.454 75.1747 279.438 75.3667 278.273 75.3667ZM278.273 61.2024C277.321 61.2024 276.49 61.373 275.78 61.7143C275.069 62.0556 274.48 62.5249 274.011 63.1222C273.542 63.7053 273.194 64.3879 272.967 65.1701C272.739 65.9522 272.626 66.7842 272.626 67.6659C272.626 68.5476 272.739 69.3795 272.967 70.1617C273.208 70.9439 273.563 71.6265 274.032 72.2096C274.501 72.7926 275.084 73.2548 275.78 73.5961C276.49 73.9374 277.321 74.1081 278.273 74.1081C279.225 74.1081 280.056 73.9445 280.767 73.6175C281.477 73.2761 282.06 72.814 282.514 72.2309C282.969 71.6478 283.31 70.9652 283.537 70.183C283.764 69.4009 283.878 68.5618 283.878 67.6659C283.878 66.7842 283.764 65.9522 283.537 65.1701C283.31 64.3879 282.962 63.7053 282.493 63.1222C282.038 62.5249 281.456 62.0556 280.745 61.7143C280.049 61.373 279.225 61.2024 278.273 61.2024Z" fill="#050625"/>
<path d="M295.186 57.1707C295.783 57.1707 296.308 57.0498 296.763 56.808C297.232 56.552 297.523 56.1112 297.637 55.4854H298.958C298.915 56.0258 298.78 56.4738 298.553 56.8293C298.326 57.1849 298.042 57.4764 297.701 57.7039C297.36 57.9315 296.969 58.095 296.528 58.1946C296.102 58.2799 295.655 58.3226 295.186 58.3226C294.717 58.3226 294.262 58.2799 293.822 58.1946C293.396 58.095 293.005 57.9386 292.65 57.7253C292.309 57.4977 292.025 57.2062 291.797 56.8507C291.57 56.4809 291.435 56.0258 291.392 55.4854H292.714C292.827 56.1112 293.119 56.552 293.588 56.808C294.056 57.0498 294.589 57.1707 295.186 57.1707ZM289.24 75.196V60.1144H290.625V73.3615L299.278 60.1144H301.046V75.196H299.661V62.0556L291.009 75.196H289.24Z" fill="#050625"/>
<path d="M105.232 98.6377C104.067 98.6377 103.045 98.4457 102.164 98.0617C101.283 97.6778 100.544 97.1445 99.9473 96.4618C99.3648 95.765 98.9244 94.9473 98.626 94.0087C98.3276 93.0701 98.1785 92.0462 98.1785 90.9369C98.1785 89.8277 98.3276 88.8037 98.626 87.8651C98.9244 86.9123 99.3648 86.0946 99.9473 85.412C100.544 84.7294 101.283 84.1961 102.164 83.8121C103.045 83.4139 104.067 83.2148 105.232 83.2148C106.398 83.2148 107.413 83.4139 108.28 83.8121C109.161 84.1961 109.893 84.7365 110.475 85.4333C111.072 86.1159 111.519 86.9265 111.818 87.8651C112.116 88.8037 112.265 89.8277 112.265 90.9369C112.265 92.0462 112.116 93.0701 111.818 94.0087C111.519 94.9473 111.072 95.7579 110.475 96.4405C109.893 97.1231 109.161 97.6635 108.28 98.0617C107.413 98.4457 106.398 98.6377 105.232 98.6377ZM105.232 84.4734C104.281 84.4734 103.449 84.644 102.739 84.9854C102.029 85.3267 101.439 85.796 100.97 86.3932C100.501 86.9763 100.153 87.6589 99.926 88.4411C99.6987 89.2233 99.585 90.0552 99.585 90.9369C99.585 91.8186 99.6987 92.6506 99.926 93.4327C100.168 94.2149 100.523 94.8975 100.992 95.4806C101.46 96.0637 102.043 96.5258 102.739 96.8671C103.449 97.2085 104.281 97.3791 105.232 97.3791C106.184 97.3791 107.016 97.2156 107.726 96.8885C108.436 96.5472 109.019 96.085 109.473 95.5019C109.928 94.9189 110.269 94.2362 110.496 93.4541C110.724 92.6719 110.837 91.8329 110.837 90.9369C110.837 90.0552 110.724 89.2233 110.496 88.4411C110.269 87.6589 109.921 86.9763 109.452 86.3932C108.997 85.796 108.415 85.3267 107.705 84.9854C107.008 84.644 106.184 84.4734 105.232 84.4734Z" fill="#050625"/>
<path d="M116.199 83.3855H126.237V84.6654H117.585V89.785H121.399C122.138 89.785 122.841 89.8419 123.509 89.9557C124.177 90.0552 124.759 90.2614 125.257 90.5743C125.768 90.8729 126.173 91.2924 126.471 91.8329C126.77 92.3733 126.919 93.0772 126.919 93.9447C126.919 94.8122 126.77 95.5375 126.471 96.1205C126.173 96.6894 125.768 97.1516 125.257 97.5071C124.745 97.8484 124.148 98.0973 123.466 98.2537C122.799 98.3959 122.081 98.467 121.314 98.467H116.199V83.3855ZM117.585 97.1871H121.058C121.627 97.1871 122.181 97.1516 122.721 97.0805C123.26 96.9951 123.736 96.8458 124.148 96.6325C124.56 96.405 124.887 96.085 125.129 95.6726C125.384 95.2602 125.512 94.7126 125.512 94.03C125.512 93.3474 125.384 92.8141 125.129 92.4301C124.887 92.0319 124.56 91.7333 124.148 91.5342C123.736 91.3351 123.268 91.2071 122.742 91.1502C122.23 91.0934 121.705 91.0649 121.165 91.0649H117.585V97.1871Z" fill="#050625"/>
<path d="M140.564 98.467V84.6654H133.531C133.517 85.476 133.503 86.2866 133.489 87.0972L133.446 88.6971C133.446 89.5077 133.432 90.3183 133.403 91.1289C133.375 91.8968 133.339 92.7003 133.297 93.5394C133.254 94.3642 133.133 95.1464 132.934 95.8859C132.693 96.8103 132.288 97.4858 131.72 97.9124C131.151 98.339 130.398 98.5666 129.461 98.595V97.1658C129.887 97.1658 130.249 97.0662 130.548 96.8671C130.846 96.6538 131.087 96.3765 131.272 96.0352C131.428 95.7366 131.549 95.3526 131.634 94.8833C131.734 94.414 131.805 93.9234 131.848 93.4114C131.89 92.8994 131.919 92.4017 131.933 91.9182C131.947 91.4204 131.961 91.0009 131.975 90.6596C132.004 89.4508 132.025 88.242 132.039 87.0332C132.054 85.8244 132.075 84.6085 132.103 83.3855H141.949V98.467H140.564Z" fill="#050625"/>
<path d="M147.879 95.1179L146.643 98.467H145.088L150.714 83.3855H152.653L158.258 98.467H156.702L155.466 95.1179H147.879ZM148.348 93.838H155.019L151.673 84.6867L148.348 93.838Z" fill="#050625"/>
<path d="M167.162 84.4734C166.21 84.4876 165.386 84.6654 164.689 85.0067C163.993 85.3338 163.425 85.796 162.984 86.3932C162.544 86.9763 162.217 87.6589 162.004 88.4411C161.791 89.209 161.685 90.0268 161.685 90.8943C161.685 91.776 161.791 92.6079 162.004 93.3901C162.217 94.1722 162.544 94.862 162.984 95.4593C163.439 96.0423 164.007 96.5116 164.689 96.8671C165.386 97.2085 166.217 97.3791 167.183 97.3791C167.623 97.3791 168.071 97.3365 168.525 97.2511C168.98 97.1516 169.406 97.0023 169.804 96.8032C170.202 96.5898 170.557 96.3267 170.87 96.0139C171.182 95.701 171.424 95.3242 171.594 94.8833H173.15C172.937 95.5517 172.624 96.1277 172.212 96.6112C171.814 97.0805 171.346 97.4644 170.806 97.7631C170.28 98.0617 169.698 98.2822 169.058 98.4244C168.433 98.5666 167.794 98.6377 167.14 98.6377C165.961 98.6377 164.938 98.4457 164.071 98.0617C163.205 97.6635 162.487 97.1231 161.919 96.4405C161.365 95.7579 160.946 94.9473 160.662 94.0087C160.392 93.0701 160.257 92.0462 160.257 90.9369C160.257 89.8419 160.399 88.8251 160.683 87.8865C160.967 86.9337 161.393 86.1159 161.962 85.4333C162.544 84.7365 163.269 84.1961 164.135 83.8121C165.016 83.4139 166.032 83.2148 167.183 83.2148C167.836 83.2148 168.461 83.2859 169.058 83.4281C169.669 83.5703 170.223 83.7979 170.72 84.1107C171.232 84.4094 171.665 84.7934 172.02 85.2627C172.39 85.732 172.674 86.3008 172.873 86.9692H171.466C171.296 86.5283 171.054 86.1515 170.742 85.8386C170.443 85.5258 170.102 85.2698 169.719 85.0707C169.335 84.8574 168.923 84.708 168.483 84.6227C168.042 84.5232 167.602 84.4734 167.162 84.4734Z" fill="#050625"/>
<path d="M186.686 84.6654H181.699V98.467H180.314V84.6654H175.327V83.3855H186.686V84.6654Z" fill="#050625"/>
<path d="M189.91 98.467V83.3855H191.296V96.6325L199.948 83.3855H201.717V98.467H200.332V85.3267L191.679 98.467H189.91Z" fill="#050625"/>
</svg>
