<svg width="333" height="132" viewBox="0 0 333 132" fill="none" xmlns="http://www.w3.org/2000/svg">
<path fill-rule="evenodd" clip-rule="evenodd" d="M36 46.0685C37.7283 62.2371 44.5642 73.4668 44.5642 73.4668C44.5642 73.4668 47.6441 72.8212 52.808 71.389C56.2745 70.4246 62.0443 67.7294 62.0443 67.7294C52.0403 65.4207 41.9206 57.0412 36 46.0685Z" fill="#F47216"/>
<path fill-rule="evenodd" clip-rule="evenodd" d="M46.0298 76.7113C51.9704 87.5867 60.0863 93.291 60.0863 93.291C60.0863 93.291 88.2328 81.7811 94.7521 38.9995C76.54 66.1915 60.8282 72.7744 46.0298 76.7113Z" fill="#15642A"/>
<path d="M109.145 77.0666C109.145 78.2769 109.348 79.4061 109.756 80.4559C110.166 81.5043 110.734 82.4186 111.471 83.1997C112.206 83.9793 113.075 84.5905 114.08 85.0368C115.084 85.4818 116.19 85.7019 117.4 85.7019C118.607 85.7019 119.716 85.4818 120.728 85.0368C121.739 84.5905 122.616 83.9793 123.349 83.1997C124.085 82.4186 124.656 81.5043 125.062 80.4559C125.471 79.4061 125.674 78.2769 125.674 77.0666C125.674 75.8725 125.471 74.7467 125.062 73.6873C124.656 72.6336 124.085 71.7074 123.349 70.9225C122.616 70.1376 121.739 69.5179 120.728 69.0634C119.716 68.6137 118.607 68.3864 117.4 68.3864C116.19 68.3864 115.084 68.6137 114.08 69.0634C113.075 69.5179 112.206 70.1376 111.471 70.9225C110.734 71.7074 110.166 72.6336 109.756 73.6873C109.348 74.7467 109.145 75.8725 109.145 77.0666ZM100.684 77.0886C100.684 75.5451 100.88 74.0612 101.275 72.6361C101.668 71.2185 102.227 69.8861 102.958 68.6409C103.688 67.3915 104.56 66.2595 105.573 65.2392C106.587 64.2175 107.712 63.3457 108.953 62.6272C110.193 61.9058 111.525 61.3453 112.947 60.9443C114.37 60.5432 115.854 60.3403 117.4 60.3403C118.929 60.3403 120.409 60.5432 121.838 60.9443C123.268 61.3453 124.605 61.9058 125.843 62.6272C127.083 63.3457 128.215 64.2175 129.236 65.2392C130.255 66.2595 131.127 67.3915 131.849 68.6409C132.57 69.8861 133.131 71.2185 133.533 72.6361C133.935 74.0612 134.137 75.5451 134.137 77.0886C134.137 78.6369 133.935 80.1145 133.533 81.5387C133.131 82.9576 132.57 84.2849 131.849 85.5171C131.127 86.7489 130.255 87.8713 129.236 88.883C128.215 89.8952 127.083 90.7689 125.843 91.4974C124.605 92.2274 123.268 92.7855 121.838 93.1818C120.409 93.5714 118.929 93.7695 117.4 93.7695C115.854 93.7695 114.37 93.5714 112.947 93.1818C111.525 92.7855 110.193 92.2274 108.953 91.4974C107.712 90.7689 106.587 89.8952 105.573 88.883C104.56 87.8713 103.688 86.7489 102.958 85.5171C102.227 84.2849 101.668 82.9576 101.275 81.5387C100.88 80.1145 100.684 78.6369 100.684 77.0886Z" fill="#15642A"/>
<path d="M155.518 71.4047C155.518 70.9654 155.442 70.5304 155.286 70.0941C155.135 69.6553 154.914 69.2628 154.623 68.922C154.328 68.5796 153.976 68.299 153.563 68.0822C153.144 67.8635 152.676 67.7523 152.15 67.7523H147.517V75.0551H152.15C152.676 75.0551 153.148 74.9501 153.573 74.74C153.993 74.5284 154.349 74.2549 154.633 73.9183C154.917 73.5836 155.135 73.1964 155.286 72.7624C155.442 72.3213 155.518 71.8711 155.518 71.4047ZM139.054 61.826C139.054 61.5213 139.134 61.2783 139.293 61.0964C139.455 60.9141 139.693 60.8224 140.017 60.8224H153.986C154.99 60.8224 155.939 60.9604 156.829 61.2359C157.72 61.5142 158.535 61.8966 159.279 62.3855C160.02 62.8744 160.691 63.455 161.29 64.1357C161.888 64.8118 162.394 65.5437 162.809 66.3324C163.224 67.1182 163.539 67.9481 163.759 68.8145C163.979 69.6821 164.089 70.5596 164.089 71.4471C164.089 72.7624 163.852 74.042 163.378 75.2957C162.905 76.5508 162.229 77.6661 161.356 78.6401C160.483 79.6203 159.429 80.4085 158.206 81.0134C156.982 81.6198 155.627 81.9277 154.139 81.9425H147.517V92.3495C147.517 92.9754 147.182 93.291 146.507 93.291H140.017C139.723 93.291 139.491 93.2103 139.317 93.0614C139.142 92.9081 139.054 92.6699 139.054 92.3495V61.826Z" fill="#15642A"/>
<path d="M168.065 61.7634C168.065 61.1208 168.385 60.8004 169.029 60.8004H188.554C188.86 60.8152 189.094 60.9251 189.263 61.128C189.431 61.3347 189.515 61.5605 189.515 61.8088V67.5589C189.515 67.8635 189.421 68.1032 189.231 68.278C189.043 68.4541 188.816 68.542 188.554 68.542H176.528V92.3285C176.51 92.6174 176.404 92.8532 176.199 93.0294C175.997 93.2065 175.77 93.291 175.523 93.291H169.051C168.746 93.291 168.504 93.1965 168.328 93.0036C168.154 92.815 168.065 92.5925 168.065 92.3285V61.7634Z" fill="#15642A"/>
<path d="M191.44 92.7224C191.555 92.4999 191.677 92.2813 191.8 92.0516C191.921 91.8291 192.066 91.5966 192.226 91.366L202.065 76.6735C200.391 74.1542 198.73 71.6572 197.09 69.197C195.452 66.7306 193.793 64.2422 192.116 61.7195C192.028 61.6011 191.96 61.4922 191.907 61.391C191.858 61.2878 191.827 61.1781 191.81 61.0606C191.841 60.947 191.921 60.8921 192.061 60.9021C192.199 60.9054 192.343 60.8725 192.49 60.8004H200.098C200.638 60.8004 201.059 61.0779 201.363 61.6317L206.722 69.6763L212.141 61.6317C212.45 61.0779 212.871 60.8004 213.413 60.8004H220.273C220.392 60.8004 220.531 60.8004 220.692 60.8004C220.853 60.8004 221.003 60.8029 221.141 60.809C221.278 60.82 221.399 60.8443 221.5 60.8883C221.602 60.9312 221.654 60.9971 221.654 61.0854C221.654 61.2588 221.576 61.4506 221.415 61.6537L211.356 76.6735L221.609 91.979C221.756 92.1796 221.869 92.3667 221.949 92.5357C222.03 92.7014 222.063 92.8461 222.045 92.963C222.045 93.1822 221.917 93.291 221.654 93.291H213.827C213.578 93.291 213.354 93.2189 213.149 93.0733C212.944 92.9239 212.786 92.7272 212.671 92.4779L206.722 83.6684L200.841 92.4779C200.726 92.7272 200.564 92.9239 200.357 93.0733C200.155 93.2189 199.929 93.291 199.682 93.291H191.835C191.716 93.291 191.612 93.2566 191.529 93.1893C191.44 93.1258 191.392 93.0342 191.392 92.9158C191.392 92.8461 191.412 92.7811 191.44 92.7224Z" fill="#15642A"/>
<path d="M226.488 61.7634C226.488 61.5009 226.56 61.2783 226.716 61.0974C226.871 60.9141 227.114 60.8224 227.448 60.8224H233.657C234.038 60.8224 234.299 60.9031 234.445 61.063C234.589 61.223 234.664 61.4631 234.664 61.7868V80.5636C236.617 77.3592 238.537 74.19 240.435 71.0561C242.327 67.9223 244.247 64.7531 246.184 61.5448C246.343 61.3261 246.497 61.1523 246.643 61.0191C246.788 60.8898 246.957 60.8224 247.148 60.8224H254.119C254.427 60.8224 254.669 60.8921 254.84 61.0301C255.017 61.1686 255.104 61.3857 255.104 61.6765V92.3285C255.104 92.6355 255.003 92.8752 254.797 93.0413C254.594 93.2065 254.342 93.291 254.036 93.291H247.804C247.57 93.291 247.364 93.2189 247.19 93.0733C247.013 92.9291 246.898 92.7224 246.841 92.4598V74.9476C244.977 77.9359 243.131 80.8764 241.308 83.7773C239.489 86.6819 237.652 89.6239 235.799 92.6135C235.638 92.858 235.45 93.0342 235.231 93.1382C235.011 93.2395 234.801 93.291 234.598 93.291H227.448C227.128 93.291 226.887 93.1965 226.724 93.0036C226.565 92.815 226.488 92.5878 226.488 92.3285V61.7634Z" fill="#15642A"/>
<path d="M264.05 61.7844C264.074 61.5213 264.179 61.2979 264.354 61.106C264.524 60.9151 264.773 60.8224 265.096 60.8224H272.66C273.199 60.8224 273.549 61.1022 273.711 61.6537L279.657 81.5046L285.646 61.6537C285.85 61.1022 286.224 60.8224 286.762 60.8224H294.24C294.504 60.8224 294.74 60.9141 294.95 61.0964C295.162 61.2783 295.279 61.508 295.313 61.7844C295.824 66.9163 296.343 72.0043 296.876 77.0574C297.409 82.1063 297.926 87.198 298.437 92.3285V92.4374C298.437 93.0036 298.119 93.291 297.477 93.291H291.29C290.617 93.291 290.269 92.973 290.237 92.3285L288.335 75.427L283.416 92.4374C283.389 92.5806 283.282 92.7582 283.099 92.963C282.919 93.1659 282.741 93.271 282.564 93.271H276.814C276.641 93.271 276.456 93.1683 276.258 92.973C276.058 92.7749 275.955 92.5964 275.939 92.4374L271.019 75.4695L269.118 92.3285C269.092 92.973 268.732 93.291 268.046 93.291H261.859C261.234 93.291 260.921 92.973 260.921 92.3285L264.05 61.7844Z" fill="#15642A"/>
</svg>
