<svg width="333" height="132" viewBox="0 0 333 132" fill="none" xmlns="http://www.w3.org/2000/svg">
<path d="M23.1269 75.8247C15.1262 72.6287 12.714 65.6897 13.0054 62.7697C13.2977 59.851 14.5099 59.0685 15.4279 58.8054C15.4279 58.8054 11.2932 56.8352 9.53542 60.0684C8.75555 61.9271 8.32422 63.9688 8.32422 66.1116C8.32422 74.7332 15.3041 81.7224 23.9128 81.7224C28.8939 81.7224 33.3292 79.3823 36.183 75.7412C36.1763 75.7445 31.121 79.0182 23.1261 75.8241" fill="#005597"/>
<path d="M23.9128 50.5082C18.4384 50.5082 13.6231 53.3354 10.8425 57.6104C11.1787 57.4665 12.5413 56.9422 13.9801 57.1929C13.9858 57.1936 13.9944 57.1954 14.0012 57.1954C16.7017 53.7286 20.9115 51.4991 25.642 51.4991C28.4149 51.4991 31.0098 52.2665 33.2265 53.599C30.6279 51.6573 27.4049 50.5082 23.9128 50.5082Z" fill="#005597"/>
<path d="M23.2509 73.9747C25.2297 75.1071 27.4064 75.7352 29.5604 75.9383C30.4649 75.7153 31.3296 75.3845 32.0942 74.9508C35.1452 73.0445 44.1588 60.5241 44.1588 60.5241C44.1588 60.5241 39.252 59.5138 37.1228 61.0779C34.9879 62.6354 33.3929 65.1128 31.0314 67.7826C28.6679 70.4534 27.63 72.1339 25.5437 72.6619C23.9944 73.0575 22.5241 72.9917 21.2063 72.6963C21.8395 73.1281 22.5139 73.5525 23.2509 73.9747Z" fill="#005597"/>
<path d="M37.8196 74.5341C39.7078 73.1568 44.1176 67.1393 44.1176 67.1393C44.1176 67.1393 40.7334 65.3625 37.6606 67.1393C34.5858 68.9274 34.6782 69.3793 31.6263 71.8947C28.5801 74.4149 26.2985 74.6961 24.6179 74.5664C24.5246 74.5631 24.4322 74.5435 24.3389 74.5359C28.7381 76.5824 34.4613 76.9186 37.8196 74.5341Z" fill="#E41B13"/>
<path d="M44.1617 50.5254C44.1617 50.5254 39.3872 49.2138 35.5495 52.5299C32.7937 54.9166 26.8557 70.924 22.1845 71.8299C21.2789 72.0081 20.5505 72.0272 19.9553 71.9547C19.9648 71.9642 19.9726 71.9717 19.982 71.9767C20.7676 72.0491 21.6779 72.0215 22.7292 71.8175C27.397 70.9129 33.5725 56.135 36.4322 53.8691C39.2936 51.6149 42.715 52.1735 42.715 52.1735L39.7773 57.2759L44.1617 50.5254Z" fill="#005597"/>
<path d="M303.463 52.8286L300.216 79.4186H317.534C318.967 79.4186 320.396 78.8749 321.455 77.9294C322.387 77.0963 322.977 76.0096 323.116 74.863L324.646 62.903C324.947 60.3913 322.951 58.349 320.198 58.349H311.746L312.499 52.8281L303.463 52.8286ZM57.5591 52.8319L53.0129 59.8436H61.8974L59.4974 79.422H68.307L70.7069 59.8436H77.9343L78.7945 52.8319H57.5591ZM135.027 52.8319L131.769 79.4219H140.575L141.767 69.6985H146.786L145.593 79.4219H154.401L157.661 52.8319H148.855L147.65 62.6594H142.63L143.835 52.8319H135.027ZM186.001 52.8319L182.741 79.4219H191.548L192.741 69.6985H197.76L196.567 79.4219H205.375L208.633 52.8319H199.827L198.624 62.6594H193.604L194.809 52.8319H186.001ZM274.488 52.8319L273.623 59.8436H281.361L278.961 79.422H287.769L290.17 59.8436H296.551L301.097 52.8319H274.488ZM81.6142 52.8335L78.3574 79.4235H87.4192L88.0354 74.4121H96.4745C99.2311 74.4121 101.754 72.3673 102.096 69.8613L103.627 57.3988C103.78 56.2569 103.471 55.1708 102.754 54.3406C101.938 53.396 100.649 52.8546 99.2176 52.8546L81.6142 52.8335ZM112.168 52.8335C111.288 52.8335 110.419 53.3985 110.147 54.1486L100.933 79.4236H109.921L111.433 74.9005L120.016 74.7963L120.494 79.4236H129.494L126.687 54.1261C126.632 53.3664 125.956 52.8338 125.045 52.8338H112.169L112.168 52.8335ZM211.443 52.8335L208.182 79.4235H229.871L230.731 72.4118H217.905L218.309 69.1354H231.133L231.869 63.1279H219.044L219.447 59.8467H232.266L233.132 52.8333L211.443 52.8335ZM240.951 52.8335C239.519 52.8335 238.09 53.3779 237.03 54.3244C236.098 55.1565 235.508 56.2434 235.369 57.3892L233.846 69.855C233.546 72.3657 235.463 74.4107 238.217 74.4107H246.741L246.127 79.4237H255.006L255.622 74.4107H263.977C266.733 74.4107 269.256 72.3674 269.598 69.8615L271.128 57.4007C271.282 56.2588 270.971 55.171 270.255 54.3408C269.438 53.3962 268.15 52.8548 266.716 52.8548L263.133 52.8336L240.951 52.8335ZM167.064 52.8514C165.197 52.8514 163.324 53.5699 161.922 54.8224C160.696 55.9176 159.924 57.3381 159.744 58.8279L157.955 73.4337C157.757 74.9131 158.081 76.3416 159.043 77.4539C160.135 78.7168 161.82 79.4412 163.667 79.4412H173.246C176.839 79.4412 180.229 76.7402 180.672 73.4289L181.177 69.2281H172.238L171.848 72.4052H166.905L168.446 59.8402H173.389L173.064 62.4817H182.01L182.573 57.8789C183.019 54.1682 179.657 52.8512 176.643 52.8512L167.064 52.8514ZM243.883 59.8468H248.528L247.606 67.3582H242.961L243.883 59.8468ZM257.409 59.8468H262.064L261.216 66.7657C261.166 67.0975 260.86 67.3582 260.526 67.3582H256.489L257.409 59.8468ZM89.9101 59.8615H94.562L93.614 66.6779C93.5645 67.0563 93.2102 67.3647 92.8255 67.3647H88.9036L89.7312 61.1798L89.9101 59.8615ZM116.705 60.825H118.472L119.285 68.1606H113.962L116.705 60.825ZM310.819 65.3969H315.372L314.653 71.2676C314.574 71.9168 314.023 72.4053 313.37 72.4053H309.96L310.819 65.3969Z" fill="#005597"/>
</svg>
