<svg width="36" height="36" viewBox="0 0 36 36" fill="none" xmlns="http://www.w3.org/2000/svg">
<path d="M30.2804 1.99805H5.86141C5.56371 1.99805 5.32275 2.23936 5.32275 2.5367V33.5452C5.32275 33.8425 5.56371 34.0838 5.86141 34.0838H30.2804C30.5781 34.0838 30.819 33.8425 30.819 33.5452V2.5367C30.819 2.23936 30.5781 1.99805 30.2804 1.99805ZM29.7417 33.0062H6.40006V3.07499H29.7417V33.0062Z" fill="#EC2D38"/>
<path d="M10.791 21.9268L13.5238 21.3174L14.023 23.9112C14.0664 24.136 14.2467 24.3088 14.4729 24.3422C14.4995 24.3465 14.5257 24.3483 14.5519 24.3483C14.7498 24.3483 14.9344 24.2391 15.0284 24.0603L18.0711 18.2744L21.1138 24.0603C21.2079 24.2391 21.3925 24.3483 21.5903 24.3483C21.6165 24.3483 21.6428 24.3465 21.6693 24.3422C21.8956 24.3088 22.0762 24.136 22.1193 23.9112L22.6184 21.3174L25.3512 21.9268C25.5677 21.9753 25.7915 21.8863 25.9153 21.702C26.0392 21.5178 26.0378 21.2769 25.9114 21.0948L22.3671 15.9726C22.3383 15.9309 22.3035 15.8968 22.2665 15.8659C22.7743 15.0691 23.0723 14.1243 23.0723 13.1091C23.0723 10.2855 20.7963 7.98828 17.9986 7.98828C15.2012 7.98828 12.9252 10.2851 12.9252 13.1091C12.9252 14.163 13.243 15.143 13.7867 15.9582C13.7827 15.9632 13.7781 15.9672 13.7745 15.9726L10.2301 21.0948C10.1037 21.2772 10.1023 21.5182 10.2262 21.702C10.3504 21.8863 10.5745 21.9753 10.791 21.9268ZM24.243 20.5755L22.3121 20.145C22.1692 20.1126 22.0209 20.1399 21.8995 20.2204C21.7778 20.3001 21.6934 20.4258 21.6661 20.5691L21.3526 22.1983L19.1869 18.0798C20.1072 17.8561 20.9328 17.3835 21.5821 16.7295L24.243 20.5755ZM17.9989 9.06559C20.2028 9.06559 21.9954 10.8794 21.9954 13.1091C21.9954 15.1775 20.4466 16.885 18.4622 17.1195C18.4019 17.1249 18.3652 17.1307 18.3132 17.1343C18.2622 17.1378 18.2155 17.1418 18.1602 17.1457C18.1077 17.1479 18.0557 17.1493 18.0029 17.1493C17.9361 17.1511 17.883 17.149 17.8241 17.1447C17.7562 17.1396 17.6951 17.1361 17.6291 17.1307C15.5987 16.9411 14.0029 15.2109 14.0029 13.1091C14.0029 10.8794 15.7959 9.06559 17.9989 9.06559ZM14.5049 16.8103C15.171 17.4506 16.0066 17.9117 16.9389 18.1128L14.7904 22.1983L14.4769 20.5691C14.4492 20.4261 14.3648 20.3001 14.2435 20.2204C14.1217 20.1399 13.9723 20.1126 13.8308 20.145L11.8999 20.5755L14.5049 16.8103Z" fill="#EC2D38"/>
<path d="M20.8619 28.4258H15.2804C14.9827 28.4258 14.7417 28.6671 14.7417 28.9644C14.7417 29.2618 14.9827 29.5031 15.2804 29.5031H20.8619C21.1596 29.5031 21.4005 29.2618 21.4005 28.9644C21.4005 28.6671 21.1596 28.4258 20.8619 28.4258Z" fill="#EC2D38"/>
</svg>
