<svg width="36" height="36" viewBox="0 0 36 36" fill="none" xmlns="http://www.w3.org/2000/svg">
<path d="M33.348 25.2559C33.2804 23.3346 32.6816 21.0199 31.6625 18.7384C30.6434 16.4548 29.3195 14.4631 27.9346 13.1302C26.4452 11.6967 25.0206 11.1718 23.9179 11.647C23.909 11.6506 23.8997 11.652 23.8908 11.6559L22.5973 12.2337V9.19937C22.5973 9.19508 22.598 9.1908 22.598 9.18651C22.598 6.78639 18.4566 4.97656 12.9646 4.97656C7.48406 4.97656 3.34915 6.77924 3.332 9.17186C3.332 9.17686 3.33057 9.18151 3.33057 9.18687V14.611C3.33057 14.6396 3.3345 14.6674 3.33914 14.6946C3.3345 14.7221 3.33057 14.7496 3.33057 14.7782C3.33057 14.8272 3.33485 14.875 3.33843 14.9233C3.3345 14.949 3.33057 14.9744 3.33057 15.0012V20.4253C3.33057 20.4542 3.3345 20.4821 3.33914 20.5096C3.3345 20.5371 3.33057 20.565 3.33057 20.594C3.33057 20.6551 3.33521 20.7154 3.34021 20.7755C3.33414 20.8069 3.33057 20.8394 3.33057 20.8727V26.2968C3.33057 26.3254 3.3345 26.3532 3.33914 26.3804C3.3345 26.4079 3.33057 26.4354 3.33057 26.464C3.33057 28.8638 7.47262 30.6732 12.9653 30.6732C16.4546 30.6732 19.6344 29.8771 21.3081 28.6186C22.8059 30.5632 24.4175 31.7095 25.7671 31.7095C26.0747 31.7095 26.3695 31.6501 26.6453 31.5269L31.7318 29.2547C31.7368 29.2525 31.7422 29.2511 31.7472 29.249C32.8531 28.7555 33.4216 27.3373 33.348 25.2559ZM18.9401 13.8674L18.7857 13.9353C17.7234 14.4102 17.1867 15.7194 17.1689 17.5128C15.8861 17.7933 14.4482 17.948 12.9657 17.948C7.89962 17.948 4.3693 16.2775 4.3693 14.7779C4.3693 14.7493 4.36537 14.7214 4.36072 14.6942C4.36537 14.6667 4.3693 14.6392 4.3693 14.6106V11.1471C5.93007 12.506 9.11451 13.3965 12.965 13.3965C16.8144 13.3965 19.9978 12.5067 21.5593 11.1482V12.6975L18.9401 13.8674ZM4.36072 20.5096C4.36537 20.4821 4.3693 20.4542 4.3693 20.4253V16.7385C5.93078 18.0966 9.11522 18.9867 12.9657 18.9867C14.4514 18.9867 15.9061 18.8442 17.2142 18.5733C17.3339 19.8922 17.6873 21.3997 18.2758 22.9926C16.7008 23.5025 14.9188 23.7637 12.9657 23.7637C7.89962 23.7637 4.3693 22.0933 4.3693 20.5943C4.3693 20.565 4.36537 20.5371 4.36072 20.5096ZM12.965 6.01493C18.0257 6.01493 21.5532 7.68326 21.5596 9.18258C21.5596 9.18401 21.5593 9.18508 21.5593 9.18651V9.19616C21.5442 10.6937 18.0193 12.3581 12.965 12.3581C7.89962 12.3581 4.37001 10.6865 4.37001 9.18651C4.37001 7.68648 7.89962 6.01493 12.965 6.01493ZM12.9657 29.6352C7.89962 29.6352 4.3693 27.964 4.3693 26.4644C4.3693 26.4358 4.36537 26.4079 4.36072 26.3808C4.36537 26.3532 4.3693 26.3257 4.3693 26.2971V22.5542C5.93078 23.9124 9.11522 24.8021 12.9657 24.8021C15.0532 24.8021 16.9634 24.5166 18.6575 23.9596C18.7257 24.1221 18.7961 24.2854 18.8693 24.4491C19.4246 25.6918 20.0489 26.8085 20.7053 27.7779C19.2417 28.8988 16.2173 29.6352 12.9657 29.6352ZM26.3641 30.5139L26.2173 30.5814C24.8455 31.1903 21.883 28.649 19.8173 24.0253C17.7538 19.4001 17.841 15.495 19.2074 14.8843L22.5308 13.4004C22.3429 14.021 22.2589 14.7761 22.29 15.6497C22.3575 17.5707 22.9564 19.8861 23.9758 22.1697C24.9949 24.4523 26.3188 26.4429 27.7037 27.7757C28.3351 28.3828 28.9533 28.8209 29.5418 29.0953L26.3641 30.5139ZM31.3259 28.2999C31.3252 28.3003 31.3241 28.3003 31.3234 28.3006L31.3198 28.3021C30.6359 28.6044 29.5797 28.1402 28.4237 27.0275C27.1327 25.7851 25.8896 23.9095 24.9241 21.7463C23.9579 19.582 23.3909 17.4042 23.3276 15.6133C23.2712 14.006 23.6314 12.9098 24.316 12.6046C24.4543 12.5432 24.6068 12.5128 24.7726 12.5128C25.4301 12.5128 26.2898 12.9884 27.2146 13.8781C28.5056 15.1205 29.7483 16.9968 30.7141 19.1615C31.6803 21.324 32.2471 23.5015 32.3103 25.2924C32.3671 26.8974 32.008 27.9933 31.3259 28.2999Z" fill="#EC2D38"/>
</svg>
