<svg xmlns="http://www.w3.org/2000/svg" width="1019" height="500" viewBox="0 0 1019 500" fill="none">
    <path d="M0 407.843V327.124L174.843 6.53595H235.095V118.954H199.338L88.9701 321.569V325.49H338.143V407.843H0ZM201.027 493.464V383.333L202.717 347.059V6.53595H286.056V493.464H201.027Z" fill="#F6F7F9" />
    <path d="M508.233 500C472.57 500 442.069 490.196 416.729 470.588C391.577 450.763 372.244 422.331 358.73 385.294C345.403 348.039 338.739 303.05 338.739 250.327C338.739 197.821 345.497 152.941 359.011 115.686C372.526 78.2135 391.859 49.5643 417.011 29.7386C442.35 9.91285 472.758 0 508.233 0C543.896 0 574.304 9.91285 599.456 29.7386C624.795 49.5643 644.128 78.1046 657.455 115.359C670.969 152.614 677.727 197.603 677.727 250.327C677.727 303.05 671.063 348.039 657.737 385.294C644.41 422.331 625.077 450.763 599.737 470.588C574.585 490.196 544.084 500 508.233 500ZM508.233 415.033C525.314 415.033 539.673 408.715 551.31 396.078C563.135 383.224 572.051 364.488 578.058 339.869C584.252 315.251 587.349 285.403 587.349 250.327C587.349 215.033 584.252 185.076 578.058 160.458C572.051 135.839 563.135 117.102 551.31 104.248C539.673 91.1765 525.314 84.6405 508.233 84.6405C482.893 84.6405 463.373 99.1285 449.67 128.105C435.968 156.863 429.117 197.603 429.117 250.327C429.117 285.403 432.12 315.251 438.127 339.869C444.321 364.488 453.331 383.224 465.156 396.078C476.981 408.715 491.34 415.033 508.233 415.033Z" fill="#F6F7F9" />
    <path d="M680.857 407.843V327.124L855.701 6.53595H915.952V118.954H880.195L769.828 321.569V325.49H1019V407.843H680.857ZM881.885 493.464V383.333L883.574 347.059V6.53595H966.913V493.464H881.885Z" fill="#F6F7F9" />
</svg>