<svg xmlns="http://www.w3.org/2000/svg" xmlns:xlink="http://www.w3.org/1999/xlink" viewBox="0 0 300 300">
    <style>:root>svg{display:none}:root>svg:target{display:block}</style>
    <svg id="ext-link" xmlns="http://www.w3.org/2000/svg" viewBox="0 0 19 18">
        <path d="M18.822 3.18736C18.8815 2.50681 18.3781 1.90685 17.6975 1.8473L6.6073 0.877033C5.92675 0.817493 5.32678 1.32092 5.26724 2.00148C5.2077 2.68203 5.71113 3.28199 6.39169 3.34153L16.2497 4.204L15.3872 14.062C15.3277 14.7425 15.8311 15.3425 16.5117 15.4021C17.1922 15.4616 17.7922 14.9582 17.8517 14.2776L18.822 3.18736ZM1 17L1.7951 17.9476L18.3848 4.02712L17.5897 3.07955L16.7946 2.13199L0.2049 16.0524L1 17Z" />
    </svg>
    <svg id="btn-prev" xmlns="http://www.w3.org/2000/svg" viewBox="0 0 24 20">
        <path d="M1.00413 10.9137C0.521065 10.4307 0.521065 9.64746 1.00413 9.1644L8.87607 1.29246C9.35913 0.809395 10.1423 0.809395 10.6254 1.29246C11.1085 1.77552 11.1085 2.55872 10.6254 3.04178L3.62811 10.0391L10.6254 17.0363C11.1085 17.5194 11.1085 18.3026 10.6254 18.7857C10.1423 19.2687 9.35913 19.2687 8.87607 18.7857L1.00413 10.9137ZM23.5352 10.0391V11.276L1.87879 11.276V10.0391V8.80211L23.5352 8.80211V10.0391Z" />
    </svg>
    <svg id="btn-next" xmlns="http://www.w3.org/2000/svg" viewBox="0 0 24 20">
        <path d="M22.9959 10.9137C23.4789 10.4307 23.4789 9.64746 22.9959 9.1644L15.1239 1.29246C14.6409 0.809395 13.8577 0.809395 13.3746 1.29246C12.8915 1.77552 12.8915 2.55872 13.3746 3.04178L20.3719 10.0391L13.3746 17.0363C12.8915 17.5194 12.8915 18.3026 13.3746 18.7857C13.8577 19.2687 14.6409 19.2687 15.1239 18.7857L22.9959 10.9137ZM0.464844 10.0391L0.464844 11.276L22.1212 11.276V10.0391V8.80211L0.464844 8.80211L0.464844 10.0391Z" />
    </svg>
    <svg id="chevron-bot" xmlns="http://www.w3.org/2000/svg" viewBox="0 0 18 18" fill="none">
        <path d="M1 5L9 13L17 5" stroke-width="2" stroke-linecap="round" stroke-linejoin="round" />
    </svg>
    <svg id="chevron-left" xmlns="http://www.w3.org/2000/svg" viewBox="0 0 16 16">
        <path fill-rule="evenodd" clip-rule="evenodd" d="M10.2309 4.18414C10.4606 4.423 10.4532 4.80282 10.2143 5.0325L7.0641 8L10.2143 10.9675C10.4532 11.1972 10.4606 11.577 10.2309 11.8159C10.0013 12.0547 9.62143 12.0622 9.38257 11.8325L5.78257 8.4325C5.66492 8.31938 5.59844 8.16321 5.59844 8C5.59844 7.83679 5.66492 7.68062 5.78257 7.5675L9.38257 4.1675C9.62143 3.93782 10.0013 3.94527 10.2309 4.18414Z" />
    </svg>
    <svg id="chevron-right" xmlns="http://www.w3.org/2000/svg" viewBox="0 0 16 16">
        <path fill-rule="evenodd" clip-rule="evenodd" d="M5.76906 11.8159C5.53939 11.577 5.54683 11.1972 5.7857 10.9675L8.9359 8L5.7857 5.0325C5.54683 4.80282 5.53939 4.423 5.76906 4.18413C5.99874 3.94527 6.37857 3.93782 6.61743 4.1675L10.2174 7.5675C10.3351 7.68062 10.4016 7.83679 10.4016 8C10.4016 8.16321 10.3351 8.31938 10.2174 8.4325L6.61743 11.8325C6.37857 12.0622 5.99874 12.0547 5.76906 11.8159Z" />
    </svg>
</svg>